<svg xmlns="http://www.w3.org/2000/svg" width="79.013" height="90.658" viewBox="0 0 79.013 90.658">
  <g id="Сгруппировать_634" data-name="Сгруппировать 634" transform="translate(-1050.23 -1325.09)">
    <path id="Контур_1017" data-name="Контур 1017" d="M950.755,93.285V94.4l-1.187.682.214.125.973-.562v1.1l39.484-22.8V70.489Z" transform="translate(139 1320)" fill="#061728"/>
    <path id="Контур_1018" data-name="Контур 1018" d="M950.755,86.909,943.08,91.34l.375.214,7.3-4.212v.928l39.484-22.8V63.185l-39.484,22.8Z" transform="translate(139 1320)" fill="#061728"/>
    <path id="Контур_1019" data-name="Контур 1019" d="M950.755,79.422,936.6,87.6l.536.308,13.622-7.866v.74l39.484-22.8v-2.1l-39.484,22.8Z" transform="translate(139 1320)" fill="#061728"/>
    <path id="Контур_1020" data-name="Контур 1020" d="M990.239,27.342l-.58-.335L958.037,45.261l-4.1-2.369,9.607-5.555V35.944l20.806-12.011-1.017-.585L963.543,34.771V33.589L950.692,41l-4.462-2.561L977.861,20.2l-.843-.508L945.4,37.948l-4.314-2.49,7.009-4.047-1.311-.759,24.608-14.207-.7-.4L946.087,30.251l-1.249-.718L937.8,33.589v1.45l-6.59,3.8-.478-.276-19.5,11.257V51.74L932.4,39.514l-.482-.281L937.8,35.82v1.494l4.337,2.5-4.591,2.646-.317-.183-26,15.011v1.731l27.495-15.876-.321-.187,4.587-2.646,4.435,2.556L937.8,48.442v1.009L911.23,64.791V66.34L937.8,50.99v1.183l4.123,2.378L911.23,72.274v.665l.6.348,31.279-18.044,4.266,2.463-9.576,5.47V64.43L917.138,76.361l1.017.585L937.788,65.6v1.45l12.9-7.433,3.891,2.231-3.819,2.2v.375L923.635,80.091l.856.5,26.273-15.171v.37l5.318-3.07,4.221,2.437-6.889,3.975.607.348-3.257,1.883v.558L930.122,83.835l.7.4L950.764,72.72v.58l4.908-2.838.99.572,6.881-3.981V65.9l26.7-15.411V48.576l-26.7,15.412v-.7l-4.217-2.437L990.239,43V41.272L957.831,59.986l-3.89-2.231,9.606-5.547V50.941l26.7-15.412V33.986l-26.7,15.393v-.945l-4.324-2.5,31.02-17.911ZM941.072,50.321l9.62-5.555,4.1,2.369-4.578,2.642-5.028,2.9Zm19.218,0-9.656,5.52-4.279-2.472,4.418-2.548,5.189-2.994Z" transform="translate(139 1320)" fill="#061728"/>
    <path id="Контур_1021" data-name="Контур 1021" d="M925.41,35.5l39.484-22.8-.535-.308-39.484,22.8-.643-.37-13,7.505v2.106l14.827-8.563Z" transform="translate(139 1320)" fill="#061728"/>
    <path id="Контур_1022" data-name="Контур 1022" d="M918.914,31.759l39.493-22.8-.375-.218-39.493,22.8-.8-.459-6.506,3.757v2.289l8.492-4.9Z" transform="translate(139 1320)" fill="#061728"/>
    <path id="Контур_1023" data-name="Контур 1023" d="M912.421,28.02l39.5-22.805-.21-.125L912.2,27.895l-.963-.553-.009,0v2.477l2.155-1.245Z" transform="translate(139 1320)" fill="#061728"/>
  </g>
</svg>
