<svg xmlns="http://www.w3.org/2000/svg" width="106.55" height="65.048" viewBox="0 0 106.55 65.048">
  <path id="Контур_1028" data-name="Контур 1028" d="M508.126,75.906l2.176-1.39c-2.971-4.415-9.245-5.777-9.247-11.877l-7-.669,2.423-1.48c-.418-.2-.657-.412-.9-.419-8.857-.239-17.087,2.658-25.361,5.209-5.552,1.711-10.933,3.983-16.5,5.648-3.227.966-6.666,1.227-10.009,1.805l-.351-.822,3.433-2.975-2.1-.669,31.239-16.153c0-.157-.007-.314-.01-.471H470.75c.12-.556.1-.83.206-.9,12.876-8.086,25.58-16.47,38.73-24.086,5.914-3.425,11.805-6.613,17.084-11.077,6.732-5.692,11.108-5.3,17.944.372,1.636,1.358,3.248,2.745,5.189,4.387a14.372,14.372,0,0,1-1.56.687,15.588,15.588,0,0,0-11.545,11.9c-2.522,10.049-9.1,16.317-18.362,20.265a49.039,49.039,0,0,0-6.487,3.433c-4.727,2.919-5.668,8.09-1.837,12.153,2.237,2.374,5.254,4.02,7.946,5.959a6.841,6.841,0,0,1,2.058,1.737c-1.979-.172-3.959-.485-5.937-.474-1.915.01-3.828.354-5.743.552-.1-.215-.207-.429-.31-.644" transform="translate(-443.353 -11.502)" fill="#ff5795"/>
</svg>
