<svg xmlns="http://www.w3.org/2000/svg" xmlns:xlink="http://www.w3.org/1999/xlink" width="235.518" height="180.813" viewBox="0 0 235.518 180.813">
  <defs>
    <clipPath id="clip-path">
      <rect id="Прямоугольник_1140"  width="235.518" height="180.813" fill="none"/>
    </clipPath>
  </defs>
  <g id="Сгруппировать_917"  transform="translate(-116.5 -1940.763)">
    <g id="Сгруппировать_916"  transform="translate(116.5 1940.763)">
      <g id="Сгруппировать_915"  clip-path="url(#clip-path)">
        <path id="Контур_2933"  d="M201.457,119.285s2.367,71.6,1.268,74.353-4.821,2.82-4.867.083-3-75.236-1.005-75.727,4.6,1.291,4.6,1.291" transform="translate(-64.717 -38.9)" fill="#e6e6e6"/>
        <path id="Контур_2934"  d="M201.457,119.285s2.367,71.6,1.268,74.353-4.821,2.82-4.867.083-3-75.236-1.005-75.727S201.457,119.285,201.457,119.285Z" transform="translate(-64.717 -38.9)" fill="none" stroke="#000" stroke-miterlimit="10" stroke-width="1"/>
        <path id="Контур_2935"  d="M198.491,219.137s-.933-8.245-2.905-7.758-.308,8.2.51,8.455,2.451-.273,2.4-.7" transform="translate(-64.221 -69.73)" fill="#ffed00" fill-rule="evenodd"/>
        <path id="Контур_2936"  d="M198.491,219.137s-.933-8.245-2.905-7.758-.308,8.2.51,8.455S198.546,219.561,198.491,219.137Z" transform="translate(-64.221 -69.73)" fill="none" stroke="#000" stroke-miterlimit="10" stroke-width="1"/>
        <path id="Контур_2937"  d="M195.587,211.379c.877-.217,1.548,1.3,2.024,3.043a12.516,12.516,0,0,1-2.883.661c-.176-1.806-.027-3.486.86-3.7" transform="translate(-64.222 -69.73)" fill="#4d4d4d" fill-rule="evenodd"/>
        <path id="Контур_2938"  d="M195.587,211.379c.877-.217,1.548,1.3,2.024,3.043a12.516,12.516,0,0,1-2.883.661C194.552,213.277,194.7,211.6,195.587,211.379Z" transform="translate(-64.222 -69.73)" fill="none" stroke="#000" stroke-miterlimit="10" stroke-width="1"/>
        <path id="Контур_2939"  d="M173.715,236.848s-.206,2.3.741,3.373,9.754,5.73,14.793,4.754c4.182-.81,13.459-5.674,13.086-7.1s-.207-4.921-3.689-3.715-25.107,2.144-24.931,2.689" transform="translate(-57.305 -77.171)" fill="#d1bd04" fill-rule="evenodd"/>
        <path id="Контур_2940"  d="M173.715,236.848s-.206,2.3.741,3.373,9.754,5.73,14.793,4.754c4.182-.81,13.459-5.674,13.086-7.1s-.207-4.921-3.689-3.715S173.539,236.3,173.715,236.848Z" transform="translate(-57.305 -77.171)" fill="none" stroke="#000" stroke-miterlimit="10" stroke-width="1"/>
        <path id="Контур_2941"  d="M172.638,228.263c-2.239,1.08-.649,6.582,2.257,7.194,2.5.527,6.641,2.5,10.1,3.33,4.367,1.045,13.542-4.614,14.946-6.163,1.292-1.425-.938-4.019-.938-4.019s.056-6.133-6.872-6.07-10.309.377-13.4,2.4a45.557,45.557,0,0,1-6.1,3.327" transform="translate(-56.608 -73.418)" fill="#ffed00" fill-rule="evenodd"/>
        <path id="Контур_2942"  d="M172.638,228.263c-2.239,1.08-.649,6.582,2.257,7.194,2.5.527,6.641,2.5,10.1,3.33,4.367,1.045,13.542-4.614,14.946-6.163,1.292-1.425-.938-4.019-.938-4.019s.056-6.133-6.872-6.07-10.309.377-13.4,2.4A45.557,45.557,0,0,1,172.638,228.263Z" transform="translate(-56.608 -73.418)" fill="none" stroke="#000" stroke-miterlimit="10" stroke-width="1"/>
        <path id="Контур_2943"  d="M189.443,223.787s-3.929-7.365-5.662-6.359,2.71,7.675,3.595,7.678,2.275-.942,2.067-1.319" transform="translate(-60.501 -71.702)" fill="#ffed00" fill-rule="evenodd"/>
        <path id="Контур_2944"  d="M189.443,223.787s-3.929-7.365-5.662-6.359,2.71,7.675,3.595,7.678S189.651,224.164,189.443,223.787Z" transform="translate(-60.501 -71.702)" fill="none" stroke="#000" stroke-miterlimit="10" stroke-width="1"/>
        <path id="Контур_2945"  d="M183.782,217.427c.771-.448,1.976.764,3.077,2.245a11.977,11.977,0,0,1-2.552,1.424c-.832-1.621-1.3-3.216-.525-3.669" transform="translate(-60.502 -71.701)" fill="#4d4d4d" fill-rule="evenodd"/>
        <path id="Контур_2946"  d="M183.782,217.427c.771-.448,1.976.764,3.077,2.245a11.977,11.977,0,0,1-2.552,1.424C183.475,219.474,183,217.879,183.782,217.427Z" transform="translate(-60.502 -71.701)" fill="none" stroke="#000" stroke-miterlimit="10" stroke-width="1"/>
        <path id="Контур_2947"  d="M189.835,231.453a2.024,2.024,0,1,0,1.307-2.547,2.025,2.025,0,0,0-1.307,2.547" transform="translate(-62.597 -75.487)" fill="#333" fill-rule="evenodd"/>
        <path id="Контур_2948"  d="M189.252,238.587a2.024,2.024,0,1,0,1.307-2.547,2.025,2.025,0,0,0-1.307,2.547" transform="translate(-62.405 -77.841)" fill="#e30613" fill-rule="evenodd"/>
        <path id="Контур_2949"  d="M207.832,230.132a1.412,1.412,0,1,0,.912-1.776,1.412,1.412,0,0,0-.912,1.776" transform="translate(-68.545 -75.315)" fill="#e30613" fill-rule="evenodd"/>
        <path id="Контур_2950"  d="M192.487,230.777a.7.7,0,1,0,.61-.783.7.7,0,0,0-.61.783" transform="translate(-63.503 -75.877)" fill="#fff" fill-rule="evenodd"/>
        <path id="Контур_2951"  d="M205.985,226.928a2.024,2.024,0,1,0-2.857.184,2.025,2.025,0,0,0,2.857-.184" transform="translate(-66.788 -73.758)" fill="#333" fill-rule="evenodd"/>
        <path id="Контур_2952"  d="M204.471,226.544a.7.7,0,1,0-.985-.121.7.7,0,0,0,.985.121" transform="translate(-67.084 -74.326)" fill="#fff" fill-rule="evenodd"/>
        <path id="Контур_2953"  d="M201.754,232.566c.07-.248.559-1.532-.258-1.269s-1.25.552-.958.759a7.19,7.19,0,0,0,1.216.51" transform="translate(-66.131 -76.297)" fill="#1d1d1b" fill-rule="evenodd"/>
        <path id="Контур_2954"  d="M201.754,232.566c.07-.248.559-1.532-.258-1.269s-1.25.552-.958.759A7.19,7.19,0,0,0,201.754,232.566Z" transform="translate(-66.131 -76.297)" fill="none" stroke="#000" stroke-miterlimit="10" stroke-width="1"/>
        <path id="Контур_2955"  d="M204.346,234.08a2.419,2.419,0,0,1-1.044,1.963c-1.859.938-2.488-.413-2.488-.413a10.521,10.521,0,0,0,.946-.984c.015-.1.115-1.437.115-1.437Z" transform="translate(-66.252 -76.939)" fill="#da65a2" fill-rule="evenodd"/>
        <path id="Контур_2956"  d="M204.346,234.08a2.419,2.419,0,0,1-1.044,1.963c-1.859.938-2.488-.413-2.488-.413a10.521,10.521,0,0,0,.946-.984c.015-.1.115-1.437.115-1.437Z" transform="translate(-66.252 -76.939)" fill="none" stroke="#000" stroke-miterlimit="10" stroke-width="1"/>
        <path id="Контур_2957"  d="M198.134,235.619s3.167.625,2.794-2.543c0,0,2.318,1.995,3.437-.042" transform="translate(-65.368 -76.882)" fill="none" stroke="#000" stroke-linecap="round" stroke-linejoin="round" stroke-width="1"/>
        <path id="Контур_2958"  d="M28.426,183.275s-3.756,37.54-5.64,37.572-2.075,1.082-2.111-1.011,4.969-40.073,4.969-40.073Z" transform="translate(-6.821 -59.307)" fill="#f0d283"/>
        <path id="Контур_2959"  d="M28.426,183.275s-3.756,37.54-5.64,37.572-2.075,1.082-2.111-1.011,4.969-40.073,4.969-40.073Z" transform="translate(-6.821 -59.307)" fill="none" stroke="#000" stroke-linecap="round" stroke-linejoin="round" stroke-width="1"/>
        <path id="Контур_2960"  d="M84.747,151.383s-3.756,37.54-5.64,37.572-2.075,1.082-2.111-1.011,4.969-40.073,4.969-40.073Z" transform="translate(-25.402 -48.785)" fill="#f0d283"/>
        <path id="Контур_2961"  d="M84.747,151.383s-3.756,37.54-5.64,37.572-2.075,1.082-2.111-1.011,4.969-40.073,4.969-40.073Z" transform="translate(-25.402 -48.785)" fill="none" stroke="#000" stroke-linecap="round" stroke-linejoin="round" stroke-width="1"/>
        <path id="Контур_2962"  d="M85.195,192.012s5.034,37.39,6.918,37.358,2.111,1.011,2.075-1.082-6.333-39.88-6.333-39.88Z" transform="translate(-28.107 -62.159)" fill="#f0d283"/>
        <path id="Контур_2963"  d="M85.195,192.012s5.034,37.39,6.918,37.358,2.111,1.011,2.075-1.082-6.333-39.88-6.333-39.88Z" transform="translate(-28.107 -62.159)" fill="none" stroke="#000" stroke-linecap="round" stroke-linejoin="round" stroke-width="1"/>
        <path id="Контур_2964"  d="M83.546,152.707s-41.437,13.268-63.841.879S-5.005,91.827,10.2,87.17s34.073-3.093,42.592,5.345,37.887,36.412,49.492,41.657-6.207,16.646-18.736,18.534" transform="translate(-0.165 -27.907)" fill="#ed1c24"/>
        <path id="Контур_2965"  d="M83.546,152.707s-41.437,13.268-63.841.879S-5.005,91.827,10.2,87.17s34.073-3.093,42.592,5.345,37.887,36.412,49.492,41.657S96.075,150.818,83.546,152.707Z" transform="translate(-0.165 -27.907)" fill="none" stroke="#000" stroke-miterlimit="10" stroke-width="1"/>
        <path id="Контур_2966"  d="M87.085,149.909s-45.247,10.821-58.07-4.453S7.1,100.189,16.857,95.416s25.236-5.664,30.966-1.156,13.784,22.586,21.394,26.852S103.98,133.919,103.456,140s-16.371,9.91-16.371,9.91" transform="translate(-4.208 -30.127)" fill="#c1272d"/>
        <path id="Контур_2967"  d="M87.085,149.909s-45.247,10.821-58.07-4.453S7.1,100.189,16.857,95.416s25.236-5.664,30.966-1.156,13.784,22.586,21.394,26.852S103.98,133.919,103.456,140,87.085,149.909,87.085,149.909Z" transform="translate(-4.208 -30.127)" fill="none" stroke="#000" stroke-miterlimit="10" stroke-width="1"/>
        <path id="Контур_2968"  d="M82.078,131.937c.769.056,36.66.757,45.566,5.79a18.145,18.145,0,0,1,4.22,3.2,7.2,7.2,0,0,1,3.541,1.835c1.892,2.517,14.79,49.7,13.913,51.691s-14.753,9.664-14.753,9.664c-4.939-5.661-14.7-36.942-16.314-51.727-18.3.683-34.531,1.724-37.489-2.515-3.031-4.344,1.316-17.939,1.316-17.939" transform="translate(-26.29 -43.528)" fill="#474a75"/>
        <path id="Контур_2969"  d="M82.078,131.937c.769.056,36.66.757,45.566,5.79a18.145,18.145,0,0,1,4.22,3.2,7.2,7.2,0,0,1,3.541,1.835c1.892,2.517,14.79,49.7,13.913,51.691s-14.753,9.664-14.753,9.664c-4.939-5.661-14.7-36.942-16.314-51.727-18.3.683-34.531,1.724-37.489-2.515C77.731,145.532,82.078,131.937,82.078,131.937Z" transform="translate(-26.29 -43.528)" fill="none" stroke="#000" stroke-linecap="round" stroke-linejoin="round" stroke-width="1"/>
        <path id="Контур_2970"  d="M50.172,143.049c.728.2,43.88,13.917,44.161,14.085,2.921,1.74,44.527,47.689,44.466,50.039s-16.321,12.266-16.321,12.266c-8.6-4.313-40.551-34.415-41.805-43.834-.019-.14-33.118-10.456-35.218-15.2-2.146-4.843,4.717-17.358,4.717-17.358" transform="translate(-14.859 -47.194)" fill="#474a75"/>
        <path id="Контур_2971"  d="M50.172,143.049c.728.2,43.88,13.917,44.161,14.085,2.921,1.74,44.527,47.689,44.466,50.039s-16.321,12.266-16.321,12.266c-8.6-4.313-40.551-34.415-41.805-43.834-.019-.14-33.118-10.456-35.218-15.2C43.31,155.564,50.172,143.049,50.172,143.049Z" transform="translate(-14.859 -47.194)" fill="none" stroke="#000" stroke-linecap="round" stroke-linejoin="round" stroke-width="1"/>
        <path id="Контур_2972"  d="M46.445,51.48l-2.314,6.232s-18.051,2.4-18.193,2.054-2.853-6.6-2.79-7.3,1.772-19.416,1.837-19.9,7.053-6.974,8.1-6.775,9.091,2.078,9.091,2.078l3.144,7.856Z" transform="translate(-7.636 -8.506)" fill="#7f6d5e" fill-rule="evenodd"/>
        <path id="Контур_2973"  d="M46.445,51.48l-2.314,6.232s-18.051,2.4-18.193,2.054-2.853-6.6-2.79-7.3,1.772-19.416,1.837-19.9,7.053-6.974,8.1-6.775,9.091,2.078,9.091,2.078l3.144,7.856Z" transform="translate(-7.636 -8.506)" fill="none" stroke="#000" stroke-miterlimit="10" stroke-width="1"/>
        <path id="Контур_2974"  d="M34.134,54s1.239,7.753-.229,11.737,11.459.244,11.708-.328a13.661,13.661,0,0,0,.12-3.077s-3.442-1.776-4.158-4.81a11.621,11.621,0,0,1-.5-4.162s-7.047-1.31-6.946.639" transform="translate(-11.147 -17.463)" fill="#f1b387"/>
        <path id="Контур_2975"  d="M34.134,54s1.239,7.753-.229,11.737,11.459.244,11.708-.328a13.661,13.661,0,0,0,.12-3.077s-3.442-1.776-4.158-4.81a11.621,11.621,0,0,1-.5-4.162S34.033,52.053,34.134,54Z" transform="translate(-11.147 -17.463)" fill="none" stroke="#000" stroke-linecap="round" stroke-linejoin="round" stroke-width="1"/>
        <path id="Контур_2976"  d="M68.317,98.53s4.674,8.544,6.536,9.315,3.3,1.189,3.775-3.041S76.517,92.55,76.517,92.55s-8.9,1.895-8.2,5.98" transform="translate(-22.526 -30.534)" fill="#f1b387"/>
        <path id="Контур_2977"  d="M68.317,98.53s4.674,8.544,6.536,9.315,3.3,1.189,3.775-3.041S76.517,92.55,76.517,92.55,67.614,94.445,68.317,98.53Z" transform="translate(-22.526 -30.534)" fill="none" stroke="#000" stroke-linecap="round" stroke-linejoin="round" stroke-width="1"/>
        <path id="Контур_2978"  d="M102.54,115.589c-.446-.119-22.849-1.62-26.358.74s-4.216,3.976-.173,5.223,25.19-3.571,25.19-3.571,4.743-1.488,1.342-2.392" transform="translate(-24.167 -37.943)" fill="#f1b387"/>
        <path id="Контур_2979"  d="M102.54,115.589c-.446-.119-22.849-1.62-26.358.74s-4.216,3.976-.173,5.223,25.19-3.571,25.19-3.571S105.941,116.493,102.54,115.589Z" transform="translate(-24.167 -37.943)" fill="none" stroke="#000" stroke-linecap="round" stroke-linejoin="round" stroke-width="1"/>
        <path id="Контур_2980"  d="M64.543,67.833s5.508,5.187,7.64,10.918,3.979,9.931,3.979,9.931-10.333,1.7-11.078,3.195S56.57,80.121,56.57,80.121s2.851-16.39,7.973-12.287" transform="translate(-18.663 -22.162)" fill="#ffed00"/>
        <path id="Контур_2981"  d="M64.543,67.833s5.508,5.187,7.64,10.918,3.979,9.931,3.979,9.931-10.333,1.7-11.078,3.195S56.57,80.121,56.57,80.121,59.421,63.73,64.543,67.833Z" transform="translate(-18.663 -22.162)" fill="none" stroke="#000" stroke-miterlimit="10" stroke-width="1"/>
        <path id="Контур_2982"  d="M28.9,69.024s-9.175,4.684-9.565,10.225c-1.682,23.87,9.806,55.937,15.38,56.271,1.089.065,2.739-5.806,8.018-6.867,15.589-3.133,25.8-11.886,26.124-13.112.482-1.807-14.447-44-16.383-47.869C51.331,65.39,46.4,63.936,40.2,65.025c0,0-5.112,6.425-11.3,4" transform="translate(-6.323 -21.331)" fill="#ffed00"/>
        <path id="Контур_2983"  d="M28.9,69.024s-9.175,4.684-9.565,10.225c-1.682,23.87,9.806,55.937,15.38,56.271,1.089.065,2.739-5.806,8.018-6.867,15.589-3.133,25.8-11.886,26.124-13.112.482-1.807-14.447-44-16.383-47.869C51.331,65.39,46.4,63.936,40.2,65.025,40.2,65.025,35.09,71.449,28.9,69.024Z" transform="translate(-6.323 -21.331)" fill="none" stroke="#000" stroke-miterlimit="10" stroke-width="1"/>
        <path id="Контур_2984"  d="M132.057,148.743s2.428,75.228,1.332,78.124-4.819,2.958-4.867.083-3.067-79.053-1.071-79.566,4.606,1.36,4.606,1.36" transform="translate(-41.823 -48.595)" fill="#e6e6e6"/>
        <path id="Контур_2985"  d="M132.057,148.743s2.428,75.228,1.332,78.124-4.819,2.958-4.867.083-3.067-79.053-1.071-79.566S132.057,148.743,132.057,148.743Z" transform="translate(-41.823 -48.595)" fill="none" stroke="#000" stroke-miterlimit="10" stroke-width="1"/>
        <path id="Контур_2986"  d="M63.038,147.29s2.428,75.228,1.332,78.124-4.819,2.958-4.867.083-3.067-79.053-1.071-79.566,4.606,1.36,4.606,1.36" transform="translate(-19.053 -48.115)" fill="#e6e6e6"/>
        <path id="Контур_2987"  d="M63.038,147.29s2.428,75.228,1.332,78.124-4.819,2.958-4.867.083-3.067-79.053-1.071-79.566S63.038,147.29,63.038,147.29Z" transform="translate(-19.053 -48.115)" fill="none" stroke="#000" stroke-miterlimit="10" stroke-width="1"/>
        <path id="Контур_2988"  d="M58.674,137.038l-9.251,1.673.157,3.418,59.3,3.628,46.356-25.668.5-3.87-45.329,3.45Z" transform="translate(-16.305 -38.343)" fill="#79a8b2"/>
        <path id="Контур_2989"  d="M58.674,137.038l-9.251,1.673.157,3.418,59.3,3.628,46.356-25.668.5-3.87-45.329,3.45Z" transform="translate(-16.305 -38.343)" fill="none" stroke="#000" stroke-linecap="round" stroke-linejoin="round" stroke-width="1"/>
        <path id="Контур_2990"  d="M49.422,137.1l59.735,3.545,46.576-26.037L105.8,111.327Z" transform="translate(-16.305 -36.729)" fill="#97cbdb"/>
        <path id="Контур_2991"  d="M49.422,137.1l59.735,3.545,46.576-26.037L105.8,111.327Z" transform="translate(-16.305 -36.729)" fill="none" stroke="#000" stroke-linecap="round" stroke-linejoin="round" stroke-width="1"/>
        <path id="Контур_2992"  d="M75.991,135.029s26.5,2.312,26.956,2.239,34.639-18.1,34.639-18.1l.194-2.71-33.68,7.362L75.887,133.967Z" transform="translate(-25.036 -38.422)" fill="#5b5b5b"/>
        <path id="Контур_2993"  d="M75.991,135.029s26.5,2.312,26.956,2.239,34.639-18.1,34.639-18.1l.194-2.71-33.68,7.362L75.887,133.967Z" transform="translate(-25.036 -38.422)" fill="none" stroke="#000" stroke-linecap="round" stroke-linejoin="round" stroke-width="1"/>
        <path id="Контур_2994"  d="M75.887,133.572l27.1.941,34.8-18.448-21.973-.8Z" transform="translate(-25.036 -38.027)" fill="gray"/>
        <path id="Контур_2995"  d="M75.887,133.572l27.1.941,34.8-18.448-21.973-.8Z" transform="translate(-25.036 -38.027)" fill="none" stroke="#000" stroke-linecap="round" stroke-linejoin="round" stroke-width="1"/>
        <path id="Контур_2996"  d="M115.329,117.57a15.612,15.612,0,0,1,2.989,1.471,3.262,3.262,0,0,0,1.969,1.261.1.1,0,0,0,.059.009,2.4,2.4,0,0,1,1.581.245.4.4,0,0,0,.578-.328c.16-.626-.126-1.043-.892-1.218.3-.184.354-.506.789-.564a7.6,7.6,0,0,1,2.485.414c.657.123,1.313.257,1.973.361a.768.768,0,0,0,.486-.08.526.526,0,0,0,.222-.377.438.438,0,0,0-.237-.324c-.478-.2-.967-.373-1.459-.533-.568-.186-1.144-.344-1.713-.523-.06-.019-.151-.112-.141-.147a.745.745,0,0,1,.163-.3c.043-.045.149-.046.225-.043,1.4.05,2.8.1,4.2.157.377.016.56-.071.642-.346.089-.3,0-.461-.312-.515-.716-.127-1.434-.246-2.15-.37-.078-.013-.154-.031-.231-.048l0-.084c.524-.017,1.048-.032,1.571-.051a3.9,3.9,0,0,0,.477-.034.47.47,0,0,0,.379-.53c-.025-.263-.2-.346-.436-.353l-1.139-.035c-.027-.2,0-.4-.084-.5s-.3-.11-.461-.155a9.835,9.835,0,0,0-3.356-.005c-.524.036-1.051.031-1.574.079-.564.052-1.124.139-1.685.221a3.087,3.087,0,0,0-.492.128,14.33,14.33,0,0,1-4.473.681" transform="translate(-38.035 -37.569)" fill="#f1b387"/>
        <path id="Контур_2997"  d="M115.329,117.57a15.612,15.612,0,0,1,2.989,1.471,3.262,3.262,0,0,0,1.969,1.261.1.1,0,0,0,.059.009,2.4,2.4,0,0,1,1.581.245.4.4,0,0,0,.578-.328c.16-.626-.126-1.043-.892-1.218.3-.184.354-.506.789-.564a7.6,7.6,0,0,1,2.485.414c.657.123,1.313.257,1.973.361a.768.768,0,0,0,.486-.08.526.526,0,0,0,.222-.377.438.438,0,0,0-.237-.324c-.478-.2-.967-.373-1.459-.533-.568-.186-1.144-.344-1.713-.523-.06-.019-.151-.112-.141-.147a.745.745,0,0,1,.163-.3c.043-.045.149-.046.225-.043,1.4.05,2.8.1,4.2.157.377.016.56-.071.642-.346.089-.3,0-.461-.312-.515-.716-.127-1.434-.246-2.15-.37-.078-.013-.154-.031-.231-.048l0-.084c.524-.017,1.048-.032,1.571-.051a3.9,3.9,0,0,0,.477-.034.47.47,0,0,0,.379-.53c-.025-.263-.2-.346-.436-.353l-1.139-.035c-.027-.2,0-.4-.084-.5s-.3-.11-.461-.155a9.835,9.835,0,0,0-3.356-.005c-.524.036-1.051.031-1.574.079-.564.052-1.124.139-1.685.221a3.087,3.087,0,0,0-.492.128,14.33,14.33,0,0,1-4.473.681" transform="translate(-38.035 -37.569)" fill="none" stroke="#000" stroke-linecap="round" stroke-linejoin="round" stroke-width="1"/>
        <path id="Контур_2998"  d="M35.1,106.3s5.721,8.047,7.128,10.2c.484.738,1.4,1.985,1.557,1.921,4.214-1.749,27.292,5.034,27.738,5.255.038.019.062.036.1.054a9.959,9.959,0,0,1,2.492.371,7.685,7.685,0,0,0,1.733-.127,13.188,13.188,0,0,1,1.47-.184,7.707,7.707,0,0,0,2.238-.334,3.341,3.341,0,0,0,.846-.575c.146-.1.218-.345.48-.22s.275.348.277.575a2.388,2.388,0,0,1-.092.455,8.706,8.706,0,0,1,.927-.109,14.037,14.037,0,0,1,3.738.287c.238.061.482.133.489.434s-.21.457-.479.529a1.793,1.793,0,0,1-.383.05c-.917.04-1.834.076-2.751.115-.039,0-.078.01-.156.021.6.351,1.159.674,1.713,1.01.259.157.506.333.751.511.3.214.582.446.88.659.322.23.421.453.288.7a.579.579,0,0,1-.811.238c-.14-.058-.274-.129-.409-.2-.761-.385-1.516-.782-2.284-1.151a2.059,2.059,0,0,0-.623-.133c-.341-.047-.684-.082-1.027-.112-.2-.018-.434-.11-.608.2a4.09,4.09,0,0,1,2.278,1.482c.326.316.626.659.939.988.179.188.353.381.545.554.274.248.332.47.157.7a.549.549,0,0,1-.781.074c-.813-.631-1.621-1.267-2.434-1.9a1.977,1.977,0,0,0-.36-.212c-.331-.157-.659-.32-1-.449a1.676,1.676,0,0,0-.475-.036l-.016.11a2.383,2.383,0,0,0,.226.163,2.1,2.1,0,0,1,.879.883,4.33,4.33,0,0,0,.319.408c.151.22.295.446.43.676.125.213.233.436.35.653s.188.442-.029.617a.453.453,0,0,1-.645-.058c-.131-.129-.242-.278-.368-.412a11.353,11.353,0,0,0-1.354-1.389,3.755,3.755,0,0,0-1.925-.82,16.118,16.118,0,0,1-3.567-.375,3.225,3.225,0,0,1-1.443-.759,1.144,1.144,0,0,0-.7-.294c-.387-.029-.827-.485-1.1-1.077-4.337-.057-25.83.032-29.4-1.91-1.27-.691-13.506-10.431-13.506-10.431-.852-1.467,7.768-7.636,7.768-7.636" transform="translate(-8.999 -35.071)" fill="#f1b387"/>
        <path id="Контур_2999"  d="M35.1,106.3s5.721,8.047,7.128,10.2c.484.738,1.4,1.985,1.557,1.921,4.214-1.749,27.292,5.034,27.738,5.255.038.019.062.036.1.054a9.959,9.959,0,0,1,2.492.371,7.685,7.685,0,0,0,1.733-.127,13.188,13.188,0,0,1,1.47-.184,7.707,7.707,0,0,0,2.238-.334,3.341,3.341,0,0,0,.846-.575c.146-.1.218-.345.48-.22s.275.348.277.575a2.388,2.388,0,0,1-.092.455,8.706,8.706,0,0,1,.927-.109,14.037,14.037,0,0,1,3.738.287c.238.061.482.133.489.434s-.21.457-.479.529a1.793,1.793,0,0,1-.383.05c-.917.04-1.834.076-2.751.115-.039,0-.078.01-.156.021.6.351,1.159.674,1.713,1.01.259.157.506.333.751.511.3.214.582.446.88.659.322.23.421.453.288.7a.579.579,0,0,1-.811.238c-.14-.058-.274-.129-.409-.2-.761-.385-1.516-.782-2.284-1.151a2.059,2.059,0,0,0-.623-.133c-.341-.047-.684-.082-1.027-.112-.2-.018-.434-.11-.608.2a4.09,4.09,0,0,1,2.278,1.482c.326.316.626.659.939.988.179.188.353.381.545.554.274.248.332.47.157.7a.549.549,0,0,1-.781.074c-.813-.631-1.621-1.267-2.434-1.9a1.977,1.977,0,0,0-.36-.212c-.331-.157-.659-.32-1-.449a1.676,1.676,0,0,0-.475-.036l-.016.11a2.383,2.383,0,0,0,.226.163,2.1,2.1,0,0,1,.879.883,4.33,4.33,0,0,0,.319.408c.151.22.295.446.43.676.125.213.233.436.35.653s.188.442-.029.617a.453.453,0,0,1-.645-.058c-.131-.129-.242-.278-.368-.412a11.353,11.353,0,0,0-1.354-1.389,3.755,3.755,0,0,0-1.925-.82,16.118,16.118,0,0,1-3.567-.375,3.225,3.225,0,0,1-1.443-.759,1.144,1.144,0,0,0-.7-.294c-.387-.029-.827-.485-1.1-1.077-4.337-.057-25.83.032-29.4-1.91-1.27-.691-13.506-10.431-13.506-10.431C26.484,112.471,35.1,106.3,35.1,106.3Z" transform="translate(-8.999 -35.071)" fill="none" stroke="#000" stroke-linecap="round" stroke-linejoin="round" stroke-width="1"/>
        <path id="Контур_3000"  d="M163.621,255.482s.281,2.294,1.431,3.143,10.737,3.559,15.46,1.55c3.92-1.669,11.973-8.367,11.309-9.685s-1.234-4.768-4.385-2.86-24.1,7.355-23.815,7.851" transform="translate(-53.98 -81.512)" fill="#d1bd04" fill-rule="evenodd"/>
        <path id="Контур_3001"  d="M163.621,255.482s.281,2.294,1.431,3.143,10.737,3.559,15.46,1.55c3.92-1.669,11.973-8.367,11.309-9.685s-1.234-4.768-4.385-2.86S163.334,254.986,163.621,255.482Z" transform="translate(-53.98 -81.512)" fill="none" stroke="#000" stroke-miterlimit="10" stroke-width="1"/>
        <path id="Контур_3002"  d="M161.229,247.8c-1.963,1.524.744,6.571,3.714,6.562,2.552-.008,7.017,1.054,10.573,1.14,4.49.108,12.275-7.348,13.325-9.157.965-1.663-1.76-3.733-1.76-3.733s-1.23-6.009-7.991-4.5-10,2.527-12.6,5.154a45.5,45.5,0,0,1-5.264,4.53" transform="translate(-52.972 -78.479)" fill="#ffed00" fill-rule="evenodd"/>
        <path id="Контур_3003"  d="M161.229,247.8c-1.963,1.524.744,6.571,3.714,6.562,2.552-.008,7.017,1.054,10.573,1.14,4.49.108,12.275-7.348,13.325-9.157.965-1.663-1.76-3.733-1.76-3.733s-1.23-6.009-7.991-4.5-10,2.527-12.6,5.154A45.5,45.5,0,0,1,161.229,247.8Z" transform="translate(-52.972 -78.479)" fill="none" stroke="#000" stroke-miterlimit="10" stroke-width="1"/>
        <path id="Контур_3004"  d="M184,235.584s-2.639-7.867-4.465-6.978,1.417,8.085,2.269,8.161,2.339-.78,2.2-1.183" transform="translate(-59.052 -75.398)" fill="#ffed00" fill-rule="evenodd"/>
        <path id="Контур_3005"  d="M184,235.584s-2.639-7.867-4.465-6.978,1.417,8.085,2.269,8.161S184.147,235.987,184,235.584Z" transform="translate(-59.052 -75.398)" fill="none" stroke="#000" stroke-miterlimit="10" stroke-width="1"/>
        <path id="Контур_3006"  d="M179.54,228.607c.813-.4,1.785.944,2.616,2.552a12.479,12.479,0,0,1-2.681,1.25c-.549-1.729-.756-3.4.065-3.8" transform="translate(-59.053 -75.398)" fill="#4d4d4d" fill-rule="evenodd"/>
        <path id="Контур_3007"  d="M179.54,228.607c.813-.4,1.785.944,2.616,2.552a12.479,12.479,0,0,1-2.681,1.25C178.926,230.68,178.719,229.006,179.54,228.607Z" transform="translate(-59.053 -75.398)" fill="none" stroke="#000" stroke-miterlimit="10" stroke-width="1"/>
        <path id="Контур_3008"  d="M175.308,241.731s-6.244-5.54-7.519-4,5.209,6.255,6.04,5.95,1.806-1.674,1.479-1.955" transform="translate(-55.301 -78.343)" fill="#ffed00" fill-rule="evenodd"/>
        <path id="Контур_3009"  d="M175.308,241.731s-6.244-5.54-7.519-4,5.209,6.255,6.04,5.95S175.635,242.013,175.308,241.731Z" transform="translate(-55.301 -78.343)" fill="none" stroke="#000" stroke-miterlimit="10" stroke-width="1"/>
        <path id="Контур_3010"  d="M167.789,237.735c.568-.688,2.119.029,3.666,1.036a12.035,12.035,0,0,1-1.9,2.221c-1.344-1.23-2.341-2.563-1.768-3.257" transform="translate(-55.302 -78.343)" fill="#4d4d4d" fill-rule="evenodd"/>
        <path id="Контур_3011"  d="M167.789,237.735c.568-.688,2.119.029,3.666,1.036a12.035,12.035,0,0,1-1.9,2.221C168.213,239.762,167.216,238.429,167.789,237.735Z" transform="translate(-55.302 -78.343)" fill="none" stroke="#000" stroke-miterlimit="10" stroke-width="1"/>
        <path id="Контур_3012"  d="M176.119,250.439a2.024,2.024,0,1,0,.744-2.765,2.024,2.024,0,0,0-.744,2.765" transform="translate(-58.015 -81.623)" fill="#333" fill-rule="evenodd"/>
        <path id="Контур_3013"  d="M175.382,258.527a2.024,2.024,0,1,0,.744-2.765,2.024,2.024,0,0,0-.744,2.765" transform="translate(-57.772 -84.291)" fill="#e30613" fill-rule="evenodd"/>
        <path id="Контур_3014"  d="M194.665,244.631a1.748,1.748,0,1,0,.643-2.387,1.748,1.748,0,0,0-.643,2.387" transform="translate(-64.146 -79.843)" fill="#e30613" fill-rule="evenodd"/>
        <path id="Контур_3015"  d="M178.448,249.372a.7.7,0,1,0,.432-.893.7.7,0,0,0-.432.893" transform="translate(-58.86 -81.964)" fill="#fff" fill-rule="evenodd"/>
        <path id="Контур_3016"  d="M190.963,242.632a2.024,2.024,0,1,0-2.755.779,2.025,2.025,0,0,0,2.755-.779" transform="translate(-61.751 -79.054)" fill="#333" fill-rule="evenodd"/>
        <path id="Контур_3017"  d="M189.28,242.724a.7.7,0,1,0-.988.088.7.7,0,0,0,.988-.088" transform="translate(-62.037 -79.698)" fill="#fff" fill-rule="evenodd"/>
        <path id="Контур_3018"  d="M187.651,249.259c.017-.257.226-1.615-.518-1.187s-1.106.8-.777.942a7.148,7.148,0,0,0,1.3.245" transform="translate(-61.442 -81.816)" fill="#1d1d1b" fill-rule="evenodd"/>
        <path id="Контур_3019"  d="M187.651,249.259c.017-.257.226-1.615-.518-1.187s-1.106.8-.777.942A7.148,7.148,0,0,0,187.651,249.259Z" transform="translate(-61.442 -81.816)" fill="none" stroke="#000" stroke-miterlimit="10" stroke-width="1"/>
        <path id="Контур_3020"  d="M190.686,250.219a2.417,2.417,0,0,1-.61,2.138c-1.622,1.307-2.52.117-2.52.117a10.421,10.421,0,0,0,.719-1.16c-.006-.1-.188-1.429-.188-1.429Z" transform="translate(-61.878 -82.441)" fill="#da65a2" fill-rule="evenodd"/>
        <path id="Контур_3021"  d="M190.686,250.219a2.417,2.417,0,0,1-.61,2.138c-1.622,1.307-2.52.117-2.52.117a10.421,10.421,0,0,0,.719-1.16c-.006-.1-.188-1.429-.188-1.429Z" transform="translate(-61.878 -82.441)" fill="none" stroke="#000" stroke-miterlimit="10" stroke-width="1"/>
        <path id="Контур_3022"  d="M184.951,252.492s3.228-.052,2.2-3.072c0,0,2.685,1.465,3.352-.761" transform="translate(-61.018 -82.037)" fill="none" stroke="#000" stroke-linecap="round" stroke-linejoin="round" stroke-width="1"/>
        <path id="Контур_3023"  d="M159.665,50.6l2.61-5.178s-.483-1.309-5.6-.563-34.8,12.309-35.055,12.971,1.3,45.258,1.831,45.644a3.423,3.423,0,0,0,1.27.505s19.762-40.747,20.543-41.287,14.4-12.092,14.4-12.092" transform="translate(-40.114 -14.724)" fill="gray"/>
        <path id="Контур_3024"  d="M159.665,50.6l2.61-5.178s-.483-1.309-5.6-.563-34.8,12.309-35.055,12.971,1.3,45.258,1.831,45.644a3.423,3.423,0,0,0,1.27.505s19.762-40.747,20.543-41.287S159.665,50.6,159.665,50.6Z" transform="translate(-40.114 -14.724)" fill="none" stroke="#000" stroke-linecap="round" stroke-linejoin="round" stroke-width="1"/>
        <path id="Контур_3025"  d="M123.731,59s38.543-15.634,39.251-13.306.209,40.4.209,40.4-37.75,19.157-37.767,18.154S123.731,59,123.731,59" transform="translate(-40.821 -14.997)" fill="#b3b3b3"/>
        <path id="Контур_3026"  d="M123.731,59s38.543-15.634,39.251-13.306.209,40.4.209,40.4-37.75,19.157-37.767,18.154S123.731,59,123.731,59Z" transform="translate(-40.821 -14.997)" fill="none" stroke="#000" stroke-linecap="round" stroke-linejoin="round" stroke-width="1"/>
        <path id="Контур_3027"  d="M148.375,95.354l-1.543,29.829,19.268-9.9-7.09-23.618Z" transform="translate(-48.442 -30.241)" fill="gray"/>
        <path id="Контур_3028"  d="M148.375,95.354l-1.543,29.829,19.268-9.9-7.09-23.618Z" transform="translate(-48.442 -30.241)" fill="none" stroke="#000" stroke-linecap="round" stroke-linejoin="round" stroke-width="1"/>
        <path id="Контур_3029"  d="M35.126,100.449s-9.59-22.965-13.335-22.237S14.914,83,17.331,90.839s4.559,15.73,4.559,15.73,12.79-5.219,13.236-6.12" transform="translate(-5.437 -25.798)" fill="#ffed00"/>
        <path id="Контур_3030"  d="M35.126,100.449s-9.59-22.965-13.335-22.237S14.914,83,17.331,90.839s4.559,15.73,4.559,15.73S34.68,101.35,35.126,100.449Z" transform="translate(-5.437 -25.798)" fill="none" stroke="#000" stroke-miterlimit="10" stroke-width="1"/>
        <path id="Контур_3031"  d="M19.6,55.243s-1.549,9.53-1.23,11.314,1.348,10.1,2.316,8.556,3.034-14.815,2.9-15.337-.911-8.11-1.416-9.458S19.6,55.243,19.6,55.243" transform="translate(-6.045 -16.538)" fill="#998675" fill-rule="evenodd"/>
        <path id="Контур_3032"  d="M19.6,55.243s-1.549,9.53-1.23,11.314,1.348,10.1,2.316,8.556,3.034-14.815,2.9-15.337-.911-8.11-1.416-9.458S19.6,55.243,19.6,55.243Z" transform="translate(-6.045 -16.538)" fill="none" stroke="#000" stroke-miterlimit="10" stroke-width="1"/>
        <path id="Контур_3033"  d="M53.75,27.579s2.929,11.7,3.174,14.018-.955,22.96.628,26.364,4.374,9.281,3.244,9.878-5.767-9.515-5.862-11.1-.129-19.821-.283-24.16-3.939-14.4-3.381-15.7,2.481.7,2.481.7" transform="translate(-16.896 -8.722)" fill="#998675" fill-rule="evenodd"/>
        <path id="Контур_3034"  d="M53.75,27.579s2.929,11.7,3.174,14.018-.955,22.96.628,26.364,4.374,9.281,3.244,9.878-5.767-9.515-5.862-11.1-.129-19.821-.283-24.16-3.939-14.4-3.381-15.7S53.75,27.579,53.75,27.579Z" transform="translate(-16.896 -8.722)" fill="none" stroke="#000" stroke-miterlimit="10" stroke-width="1"/>
        <path id="Контур_3035"  d="M41.909,28.17s.939,3.826,1.035,4.614c.176,1.438-.141,2.256.263,3.9a29.9,29.9,0,0,1,.031,7.339c-.244,2.72-1.872,5.423-4.234,5.345S28.726,47.553,28.072,45.36s-1.044-3.5-1.5-3.933,1.162-.8-.9-1.651c-.681-.282-1.548-2.507-1.548-2.507a7.95,7.95,0,0,1-.94-4.427c.222-2.514.4-6.354,5.828-7.545s11.9-.3,12.9,2.874" transform="translate(-7.639 -8.179)" fill="#f1b387" fill-rule="evenodd"/>
        <path id="Контур_3036"  d="M41.909,28.17s.939,3.826,1.035,4.614c.176,1.438-.141,2.256.263,3.9a29.9,29.9,0,0,1,.031,7.339c-.244,2.72-1.872,5.423-4.234,5.345S28.726,47.553,28.072,45.36s-1.044-3.5-1.5-3.933,1.162-.8-.9-1.651c-.681-.282-1.548-2.507-1.548-2.507a7.95,7.95,0,0,1-.94-4.427c.222-2.514.4-6.354,5.828-7.545S40.913,24.992,41.909,28.17Z" transform="translate(-7.639 -8.179)" fill="none" stroke="#000" stroke-linecap="round" stroke-linejoin="round" stroke-width="1"/>
        <path id="Контур_3037"  d="M41.942,39.573a11.285,11.285,0,0,0-3.318.533c-.8.456-1.518.9-1.245,1.116s1.26-.268,2.333-.375,2.991-.481,2.231-1.275" transform="translate(-12.313 -13.056)" fill="#998675" fill-rule="evenodd"/>
        <path id="Контур_3038"  d="M41.942,39.573a11.285,11.285,0,0,0-3.318.533c-.8.456-1.518.9-1.245,1.116s1.26-.268,2.333-.375S42.7,40.367,41.942,39.573Z" transform="translate(-12.313 -13.056)" fill="none" stroke="#000" stroke-miterlimit="10" stroke-width="1"/>
        <path id="Контур_3039"  d="M49.33,38.326s.034-.271,1.4-.549,1.142.768.589.962a5.973,5.973,0,0,1-2.036.271c-.5-.052-.448-.479.043-.683" transform="translate(-16.145 -12.448)" fill="#998675" fill-rule="evenodd"/>
        <path id="Контур_3040"  d="M49.33,38.326s.034-.271,1.4-.549,1.142.768.589.962a5.973,5.973,0,0,1-2.036.271C48.786,38.958,48.839,38.531,49.33,38.326Z" transform="translate(-16.145 -12.448)" fill="none" stroke="#000" stroke-miterlimit="10" stroke-width="1"/>
        <path id="Контур_3041"  d="M35.483,30.431s-4.258,6.417-5.211,6.921-2.357,2.374-2.109.573,5.467-7.114,6.324-7.7,1.659-.635,1,.208" transform="translate(-9.282 -9.828)" fill="#998675" fill-rule="evenodd"/>
        <path id="Контур_3042"  d="M35.483,30.431s-4.258,6.417-5.211,6.921-2.357,2.374-2.109.573,5.467-7.114,6.324-7.7S36.147,29.587,35.483,30.431Z" transform="translate(-9.282 -9.828)" fill="none" stroke="#000" stroke-miterlimit="10" stroke-width="1"/>
        <path id="Контур_3043"  d="M42.693,26.484s.049,1.136-1.948,2.05-5.517.333-7.226.46-4.334.421-4.929,1.372.287,4.5-.084,5.136-2.361-.71-2.926.363c-.582,1.1-.237,2.694,1.134,4.025,1.129,1.1.828,2.96-1.3,2.01s-4.474-7.368-4.863-9.041c-.612-2.628,1.209-9.53,5.989-11.07s10.5-.121,12.068.147c1.4.239,3.937,3.073,4.086,4.549" transform="translate(-6.742 -6.955)" fill="#998675" fill-rule="evenodd"/>
        <path id="Контур_3044"  d="M42.693,26.484s.049,1.136-1.948,2.05-5.517.333-7.226.46-4.334.421-4.929,1.372.287,4.5-.084,5.136-2.361-.71-2.926.363c-.582,1.1-.237,2.694,1.134,4.025,1.129,1.1.828,2.96-1.3,2.01s-4.474-7.368-4.863-9.041c-.612-2.628,1.209-9.53,5.989-11.07s10.5-.121,12.068.147C40.007,22.174,42.545,25.008,42.693,26.484Z" transform="translate(-6.742 -6.955)" fill="none" stroke="#000" stroke-miterlimit="10" stroke-width="1"/>
        <path id="Контур_3045"  d="M22.455,31.529s.529,31.779.932,31.436S26.924,47.7,25.906,43.092s-1.344-11.8-2.09-11.856a2.583,2.583,0,0,0-1.361.293" transform="translate(-7.408 -10.303)" fill="#998675" fill-rule="evenodd"/>
        <path id="Контур_3046"  d="M22.455,31.529s.529,31.779.932,31.436S26.924,47.7,25.906,43.092s-1.344-11.8-2.09-11.856A2.583,2.583,0,0,0,22.455,31.529Z" transform="translate(-7.408 -10.303)" fill="none" stroke="#000" stroke-miterlimit="10" stroke-width="1"/>
        <path id="Контур_3047"  d="M29.524,31.44s-.5,23.464-1.056,26.572,4.522,24.117,2.447,24.878-5-21.543-5.025-23.662,2.26-27.7,2.664-28.047.97.26.97.26" transform="translate(-8.541 -10.252)" fill="#998675" fill-rule="evenodd"/>
        <path id="Контур_3048"  d="M29.524,31.44s-.5,23.464-1.056,26.572,4.522,24.117,2.447,24.878-5-21.543-5.025-23.662,2.26-27.7,2.664-28.047S29.524,31.44,29.524,31.44Z" transform="translate(-8.541 -10.252)" fill="none" stroke="#000" stroke-miterlimit="10" stroke-width="1"/>
        <path id="Контур_3049"  d="M25.8,31.083S23.244,57.321,22.546,61.6s-1.508,22.57.129,19.821S27.1,35.034,27.1,35.034s.359-6.384-1.3-3.951" transform="translate(-7.165 -10.072)" fill="#998675" fill-rule="evenodd"/>
        <path id="Контур_3050"  d="M25.8,31.083S23.244,57.321,22.546,61.6s-1.508,22.57.129,19.821S27.1,35.034,27.1,35.034,27.46,28.65,25.8,31.083Z" transform="translate(-7.165 -10.072)" fill="none" stroke="#000" stroke-miterlimit="10" stroke-width="1"/>
        <path id="Контур_3051"  d="M17.094,30.453s-2.569,19.028-3.017,23.933S15.464,70.42,15.62,71.259s1-1.015,1.213-4.526-2.088-4.752-.309-13.978,3.983-21.975,3.391-23-2.821.7-2.821.7" transform="translate(-4.621 -9.709)" fill="#998675" fill-rule="evenodd"/>
        <path id="Контур_3052"  d="M17.094,30.453s-2.569,19.028-3.017,23.933S15.464,70.42,15.62,71.259s1-1.015,1.213-4.526-2.088-4.752-.309-13.978,3.983-21.975,3.391-23S17.094,30.453,17.094,30.453Z" transform="translate(-4.621 -9.709)" fill="none" stroke="#000" stroke-miterlimit="10" stroke-width="1"/>
        <path id="Контур_3053"  d="M18.648,76.22c-.125-.418-3.263-15.5-3.178-17.623s3.67-23.653,4.346-24.754,2.341,3.677,2.045,5.815-3.07,15.984-3.533,18.874,2.6,13.31,2.3,15.343-1.449,4.116-1.98,2.345" transform="translate(-5.103 -11.112)" fill="#998675" fill-rule="evenodd"/>
        <path id="Контур_3054"  d="M18.648,76.22c-.125-.418-3.263-15.5-3.178-17.623s3.67-23.653,4.346-24.754,2.341,3.677,2.045,5.815-3.07,15.984-3.533,18.874,2.6,13.31,2.3,15.343S19.179,77.992,18.648,76.22Z" transform="translate(-5.103 -11.112)" fill="none" stroke="#000" stroke-miterlimit="10" stroke-width="1"/>
        <path id="Контур_3055"  d="M20.757,21.846s-2.249,2.3-3.858,3.775-3.106,6.549-4.1,9.366S10.565,45.512,9.325,47.813s-5.786,6.073-7.37,6.168S4.94,50.727,6.9,48.064s4.737-14.7,5.517-17.615,3.106-6.548,5.037-7.936,3.452-2.63,3.3-.667" transform="translate(-0.537 -6.872)" fill="#998675" fill-rule="evenodd"/>
        <path id="Контур_3056"  d="M20.757,21.846s-2.249,2.3-3.858,3.775-3.106,6.549-4.1,9.366S10.565,45.512,9.325,47.813s-5.786,6.073-7.37,6.168S4.94,50.727,6.9,48.064s4.737-14.7,5.517-17.615,3.106-6.548,5.037-7.936S20.906,19.883,20.757,21.846Z" transform="translate(-0.537 -6.872)" fill="none" stroke="#000" stroke-miterlimit="10" stroke-width="1"/>
        <path id="Контур_3057"  d="M43.21,27.241S33.438,29.3,29.893,29.02s-9.573.476-9.529-.408S24.3,27.2,28.076,26.484s10.788-3.1,12.252-3.185,3.685,2.62,2.882,3.942" transform="translate(-6.719 -7.686)" fill="#998675" fill-rule="evenodd"/>
        <path id="Контур_3058"  d="M43.21,27.241S33.438,29.3,29.893,29.02s-9.573.476-9.529-.408S24.3,27.2,28.076,26.484s10.788-3.1,12.252-3.185S44.013,25.919,43.21,27.241Z" transform="translate(-6.719 -7.686)" fill="none" stroke="#000" stroke-miterlimit="10" stroke-width="1"/>
        <path id="Контур_3059"  d="M36.111,20.59s-5.633.828-7.613,2.123-10.292,4.831-8.437,4.719,15.3-1.409,17.18-2.7,3.525-1.681,2.679-2.708-3.809-1.437-3.809-1.437" transform="translate(-6.53 -6.793)" fill="#998675" fill-rule="evenodd"/>
        <path id="Контур_3060"  d="M36.111,20.59s-5.633.828-7.613,2.123-10.292,4.831-8.437,4.719,15.3-1.409,17.18-2.7,3.525-1.681,2.679-2.708S36.111,20.59,36.111,20.59Z" transform="translate(-6.53 -6.793)" fill="none" stroke="#000" stroke-miterlimit="10" stroke-width="1"/>
        <path id="Контур_3061"  d="M23.049,25.889c.306-.176,12.153-4.845,11.911-5.614s-4.579-1.195-6.68-.285-9.269,5.553-9.313,6.438,3.515-.21,4.083-.539" transform="translate(-6.257 -6.426)" fill="#998675" fill-rule="evenodd"/>
        <path id="Контур_3062"  d="M23.049,25.889c.306-.176,12.153-4.845,11.911-5.614s-4.579-1.195-6.68-.285-9.269,5.553-9.313,6.438S22.48,26.218,23.049,25.889Z" transform="translate(-6.257 -6.426)" fill="none" stroke="#000" stroke-miterlimit="10" stroke-width="1"/>
        <path id="Контур_3063"  d="M42.377,43.912c-.045.423-.246.748-.449.726s-.331-.382-.286-.8.246-.748.449-.726.331.382.286.8" transform="translate(-13.735 -14.222)"/>
        <path id="Контур_3064"  d="M50.86,41.812c-.045.423-.246.748-.449.726s-.331-.382-.286-.8.246-.748.449-.726.331.382.286.8" transform="translate(-16.534 -13.529)"/>
        <path id="Контур_3065"  d="M47.078,43.709s1.467,2.446,1.723,3.1-.429,1.341-1.2,1.333" transform="translate(-15.532 -14.42)" fill="none" stroke="#000" stroke-linecap="round" stroke-linejoin="round" stroke-width="1"/>
        <path id="Контур_3066"  d="M48.959,53.549s-.765,2.389-3.07.541" transform="translate(-15.14 -17.667)" fill="none" stroke="#000" stroke-linecap="round" stroke-linejoin="round" stroke-width="1"/>
        <path id="Контур_3067"  d="M277.81,46.412a3.86,3.86,0,0,1-3.86-3.86V35.01a3.86,3.86,0,0,1,3.86-3.86h40.862a3.861,3.861,0,0,1,3.86,3.86v8.2a3.637,3.637,0,0,0,2.532,3.129.039.039,0,0,1-.014.074Z" transform="translate(-90.38 -10.277)" fill="#00a7f8"/>
        <path id="Контур_3068"  d="M265.263,108.791a3.86,3.86,0,0,1-3.86-3.86V96.29a3.86,3.86,0,0,1,3.86-3.86h50.079a3.86,3.86,0,0,1,3.86,3.86v9.3a3.638,3.638,0,0,0,2.532,3.13.038.038,0,0,1-.014.074Z" transform="translate(-86.241 -30.494)" fill="#00a7f8"/>
        <path id="Контур_3069"  d="M265.725,77.225a3.86,3.86,0,0,0,3.86-3.86V65.14a3.86,3.86,0,0,0-3.86-3.86H222.168a3.86,3.86,0,0,0-3.86,3.86v8.881a3.638,3.638,0,0,1-2.532,3.129.038.038,0,0,0,.013.074Z" transform="translate(-71.18 -20.217)" fill="#fff"/>
        <path id="Контур_3070"  d="M273.6,15.945a3.86,3.86,0,0,0,3.86-3.86V3.86A3.86,3.86,0,0,0,273.6,0H222.167a3.86,3.86,0,0,0-3.86,3.86v8.881a3.638,3.638,0,0,1-2.532,3.13.038.038,0,0,0,.014.074Z" transform="translate(-71.179)" fill="#fff"/>
      </g>
    </g>
  </g>
</svg>
