<svg xmlns="http://www.w3.org/2000/svg" xmlns:xlink="http://www.w3.org/1999/xlink" width="201.483" height="158.071" viewBox="0 0 201.483 158.071">
  <defs>
    <clipPath id="clip-path">
      <rect id="Прямоугольник_1143" data-name="Прямоугольник 1143" width="201.483" height="158.071" fill="none"/>
    </clipPath>
  </defs>
  <g id="Сгруппировать_923" data-name="Сгруппировать 923" transform="translate(-145 -1927.763)">
    <g id="Сгруппировать_922" data-name="Сгруппировать 922" transform="translate(145 1927.763)">
      <rect id="Прямоугольник_1141" data-name="Прямоугольник 1141" width="133.5" height="82.346" transform="matrix(0.995, -0.103, 0.103, 0.995, 0.341, 14.069)" fill="#558ac9"/>
      <g id="Сгруппировать_919" data-name="Сгруппировать 919">
        <g id="Сгруппировать_918" data-name="Сгруппировать 918" clip-path="url(#clip-path)">
          <rect id="Прямоугольник_1142" data-name="Прямоугольник 1142" width="133.5" height="82.346" transform="matrix(0.995, -0.103, 0.103, 0.995, 0.344, 14.064)" fill="none" stroke="#000" stroke-miterlimit="10" stroke-width="1"/>
        </g>
      </g>
      <text id="GRANT" transform="translate(33.558 35.446) rotate(-5.9)" fill="#fff" font-size="20" font-family="Roboto-Regular, Roboto"><tspan x="0" y="0" letter-spacing="0.049em">G</tspan><tspan y="0" letter-spacing="0.05em">R</tspan><tspan y="0" letter-spacing="0.049em">A</tspan><tspan y="0" letter-spacing="0.035em">N</tspan><tspan y="0">T</tspan></text>
      <text id="X200" transform="matrix(0.995, -0.103, 0.103, 0.995, 91.728, 60.398)" fill="#fff" font-size="12" font-family="Roboto-Regular, Roboto"><tspan x="0" y="0" letter-spacing="0.05em">X2</tspan><tspan y="0" letter-spacing="0.049em">0</tspan><tspan y="0">0</tspan></text>
      <path id="Контур_3072" data-name="Контур 3072" d="M60.4,150.51l-7.866-3.541-6.779,5.054L43.04,125.749l14.645-1.513Z" transform="translate(-16.361 -47.228)" fill="#fcee21"/>
      <path id="Контур_3073" data-name="Контур 3073" d="M60.4,150.51l-7.866-3.541-6.779,5.054L43.04,125.749l14.645-1.513Z" transform="translate(-16.361 -47.228)" fill="none" stroke="#000" stroke-miterlimit="10" stroke-width="1"/>
      <g id="Сгруппировать_921" data-name="Сгруппировать 921">
        <g id="Сгруппировать_920" data-name="Сгруппировать 920" clip-path="url(#clip-path)">
          <path id="Контур_3074" data-name="Контур 3074" d="M44.8,93.478h0a2.228,2.228,0,0,1,2.915.239,2.228,2.228,0,0,0,2.178.594,2.228,2.228,0,0,1,2.632,1.276,2.226,2.226,0,0,0,1.816,1.341,2.229,2.229,0,0,1,1.993,2.141,2.226,2.226,0,0,0,1.208,1.906,2.228,2.228,0,0,1,1.085,2.716,2.228,2.228,0,0,0,.438,2.214h0a2.227,2.227,0,0,1,.031,2.924,2.227,2.227,0,0,0-.391,2.223,2.228,2.228,0,0,1-1.028,2.739,2.227,2.227,0,0,0-1.168,1.931,2.229,2.229,0,0,1-1.948,2.183,2.228,2.228,0,0,0-1.787,1.379,2.228,2.228,0,0,1-2.6,1.331,2.227,2.227,0,0,0-2.165.641,2.229,2.229,0,0,1-2.91.3,2.227,2.227,0,0,0-2.249-.185,2.228,2.228,0,0,1-2.822-.77A2.227,2.227,0,0,0,38,119.619a2.227,2.227,0,0,1-2.352-1.737,2.23,2.23,0,0,0-1.538-1.653,2.227,2.227,0,0,1-1.566-2.47,2.228,2.228,0,0,0-.838-2.1,2.227,2.227,0,0,1-.568-2.869,2.228,2.228,0,0,0-.024-2.258,2.228,2.228,0,0,1,.506-2.88,2.228,2.228,0,0,0,.793-2.114,2.227,2.227,0,0,1,1.513-2.5,2.227,2.227,0,0,0,1.5-1.685,2.228,2.228,0,0,1,2.315-1.787,2.228,2.228,0,0,0,2.01-1.027,2.228,2.228,0,0,1,2.8-.831,2.226,2.226,0,0,0,2.245-.232" transform="translate(-11.705 -35.371)" fill="#fcee21"/>
          <path id="Контур_3075" data-name="Контур 3075" d="M44.8,93.478h0a2.228,2.228,0,0,1,2.915.239,2.228,2.228,0,0,0,2.178.594,2.228,2.228,0,0,1,2.632,1.276,2.226,2.226,0,0,0,1.816,1.341,2.229,2.229,0,0,1,1.993,2.141,2.226,2.226,0,0,0,1.208,1.906,2.228,2.228,0,0,1,1.085,2.716,2.228,2.228,0,0,0,.438,2.214h0a2.227,2.227,0,0,1,.031,2.924,2.227,2.227,0,0,0-.391,2.223,2.228,2.228,0,0,1-1.028,2.739,2.227,2.227,0,0,0-1.168,1.931,2.229,2.229,0,0,1-1.948,2.183,2.228,2.228,0,0,0-1.787,1.379,2.228,2.228,0,0,1-2.6,1.331,2.227,2.227,0,0,0-2.165.641,2.229,2.229,0,0,1-2.91.3,2.227,2.227,0,0,0-2.249-.185,2.228,2.228,0,0,1-2.822-.77A2.227,2.227,0,0,0,38,119.619a2.227,2.227,0,0,1-2.352-1.737,2.23,2.23,0,0,0-1.538-1.653,2.227,2.227,0,0,1-1.566-2.47,2.228,2.228,0,0,0-.838-2.1,2.227,2.227,0,0,1-.568-2.869,2.228,2.228,0,0,0-.024-2.258,2.228,2.228,0,0,1,.506-2.88,2.228,2.228,0,0,0,.793-2.114,2.227,2.227,0,0,1,1.513-2.5,2.227,2.227,0,0,0,1.5-1.685,2.228,2.228,0,0,1,2.315-1.787,2.228,2.228,0,0,0,2.01-1.027,2.228,2.228,0,0,1,2.8-.831A2.226,2.226,0,0,0,44.8,93.478Z" transform="translate(-11.705 -35.371)" fill="none" stroke="#000" stroke-miterlimit="10" stroke-width="1"/>
          <path id="Контур_3076" data-name="Контур 3076" d="M58.553,107.662A12.19,12.19,0,1,1,45.174,96.789a12.19,12.19,0,0,1,13.379,10.873" transform="translate(-13.014 -36.769)" fill="#fcee21"/>
          <path id="Контур_3077" data-name="Контур 3077" d="M58.553,107.662A12.19,12.19,0,1,1,45.174,96.789,12.19,12.19,0,0,1,58.553,107.662Z" transform="translate(-13.014 -36.769)" fill="none" stroke="#000" stroke-miterlimit="10" stroke-width="1"/>
          <line id="Линия_488" data-name="Линия 488" x1="21.36" y1="29.864" transform="translate(71.633 43.824)" fill="none" stroke="#fff" stroke-linecap="round" stroke-linejoin="round" stroke-width="1"/>
          <line id="Линия_489" data-name="Линия 489" y1="3.567" x2="36.547" transform="translate(55.534 75.405)" fill="none" stroke="#fff" stroke-linecap="round" stroke-linejoin="round" stroke-width="1"/>
          <line id="Линия_490" data-name="Линия 490" x1="15.312" y2="33.716" transform="translate(54.78 43.919)" fill="none" stroke="#fff" stroke-linecap="round" stroke-linejoin="round" stroke-width="1"/>
          <path id="Контур_3078" data-name="Контур 3078" d="M122.575,110.524l-9.978-4.077-9,5.93" transform="translate(-39.381 -40.465)" fill="none" stroke="#fff" stroke-linecap="round" stroke-linejoin="round" stroke-width="1"/>
          <line id="Линия_491" data-name="Линия 491" x1="7.886" y2="17.363" transform="translate(64.214 54.548)" fill="none" stroke="#fff" stroke-linecap="round" stroke-linejoin="round" stroke-width="1"/>
          <path id="Контур_3079" data-name="Контур 3079" d="M122.575,110.524l-9.978-4.077-9,5.93" transform="translate(-39.381 -40.465)" fill="none" stroke="#fff" stroke-linecap="round" stroke-linejoin="round" stroke-width="1"/>
          <path id="Контур_3080" data-name="Контур 3080" d="M122.575,103.513l-18.98,1.852L111.481,88Z" transform="translate(-39.381 -33.454)" fill="none" stroke="#fff" stroke-linecap="round" stroke-linejoin="round" stroke-width="1"/>
          <path id="Контур_3081" data-name="Контур 3081" d="M151.288,120.037a1.413,1.413,0,1,1-1.543-1.269A1.412,1.412,0,0,1,151.288,120.037Z" transform="translate(-56.44 -45.147)" fill="none" stroke="#fff" stroke-linecap="round" stroke-linejoin="round" stroke-width="1"/>
          <path id="Контур_3082" data-name="Контур 3082" d="M114.689,67.838a1.413,1.413,0,1,1-1.543-1.269A1.412,1.412,0,0,1,114.689,67.838Z" transform="translate(-42.527 -25.303)" fill="none" stroke="#fff" stroke-linecap="round" stroke-linejoin="round" stroke-width="1"/>
          <path id="Контур_3083" data-name="Контур 3083" d="M87.858,126.262a1.413,1.413,0,1,1-1.543-1.269A1.412,1.412,0,0,1,87.858,126.262Z" transform="translate(-32.327 -47.513)" fill="none" stroke="#fff" stroke-linecap="round" stroke-linejoin="round" stroke-width="1"/>
          <line id="Линия_492" data-name="Линия 492" x2="1.116" y2="11.434" transform="translate(72.1 54.548)" fill="none" stroke="#fff" stroke-linecap="round" stroke-linejoin="round" stroke-width="1"/>
          <path id="Контур_3084" data-name="Контур 3084" d="M261.645,177.154c-6.122-4.082-20.407-5.612-23.979-11.224a39.613,39.613,0,0,1-4.806-12.519l-27.327-4-2.841,3.6s-.995,7.3-4.566,12.916-17.857,7.143-23.979,11.224" transform="translate(-66.201 -56.799)" fill="#eaae87"/>
          <path id="Контур_3085" data-name="Контур 3085" d="M261.645,177.154c-6.122-4.082-20.407-5.612-23.979-11.224a39.613,39.613,0,0,1-4.806-12.519l-27.327-4-2.841,3.6s-.995,7.3-4.566,12.916-17.857,7.143-23.979,11.224" transform="translate(-66.201 -56.799)" fill="none" stroke="#282b38" stroke-linecap="round" stroke-linejoin="round" stroke-width="1"/>
          <path id="Контур_3086" data-name="Контур 3086" d="M233.912,176.059c3.572,5.612,17.857,7.143,23.979,11.224,3.673,2.448,5.141,31.077,5.729,37.406H164.273c.025-1.543.4-33.594,6.12-37.406,6.122-4.082,20.407-5.612,23.979-11.224,0,0,5.59,4.177,19.726,4.177s19.814-4.177,19.814-4.177" transform="translate(-62.448 -66.928)" fill="#9291ba"/>
          <path id="Контур_3087" data-name="Контур 3087" d="M233.912,176.059c3.572,5.612,17.857,7.143,23.979,11.224,3.673,2.448,5.141,31.077,5.729,37.406H164.273c.025-1.543.4-33.594,6.12-37.406,6.122-4.082,20.407-5.612,23.979-11.224,0,0,5.59,4.177,19.726,4.177S233.912,176.059,233.912,176.059Z" transform="translate(-62.448 -66.928)" fill="none" stroke="#282b38" stroke-linecap="round" stroke-linejoin="round" stroke-width="1"/>
          <path id="Контур_3088" data-name="Контур 3088" d="M254.768,100.358c-1.289-2.295-5.525-.53-5.525-.53V88.708c-2.3-4.4-15.816-5.86-20.581-5.257-4.765-.6-18.286.858-20.581,5.257V99.828s-4.235-1.765-5.525.53c-.611,1.088-.921,10.768,1.658,13.239s3.867,1.059,3.867,1.059,1.289,12.357,9.024,16.064c7.64,3.661,8.993,3.707,11.51,3.707h.093c2.517,0,3.87-.045,11.51-3.707a11.137,11.137,0,0,0,2.608-1.754c5.429-4.849,6.416-14.309,6.416-14.309s1.289,1.412,3.867-1.059,2.269-12.152,1.658-13.239" transform="translate(-76.84 -31.674)" fill="#eaae87"/>
          <path id="Контур_3089" data-name="Контур 3089" d="M254.768,100.358c-1.289-2.295-5.525-.53-5.525-.53V88.708c-2.3-4.4-15.816-5.86-20.581-5.257-4.765-.6-18.286.858-20.581,5.257V99.828s-4.235-1.765-5.525.53c-.611,1.088-.921,10.768,1.658,13.239s3.867,1.059,3.867,1.059,1.289,12.357,9.024,16.064c7.64,3.661,8.993,3.707,11.51,3.707h.093c2.517,0,3.87-.045,11.51-3.707a11.137,11.137,0,0,0,2.608-1.754c5.429-4.849,6.416-14.309,6.416-14.309s1.289,1.412,3.867-1.059S255.379,101.446,254.768,100.358Z" transform="translate(-76.84 -31.674)" fill="none" stroke="#282b38" stroke-linecap="round" stroke-linejoin="round" stroke-width="1"/>
          <path id="Контур_3090" data-name="Контур 3090" d="M211.04,83.454s.5-7.143,5.006-7.653,13.014,5.1,20.023,4.591,15.017-2.041,16.018,0,1.589-6.811-.322-12.813c-1.194-3.755-3.134-5.124-7.639-8.185s-4.638-5.457-4.638-5.457-3.682,2.965-5.183,2.455-1.364-3.82-1.364-3.82-11.388,7.412-13.391,7.922-7.007,1.02-9.01,6.632.5,16.326.5,16.326" transform="translate(-79.74 -19.986)" fill="#534741"/>
          <path id="Контур_3091" data-name="Контур 3091" d="M211.04,83.454s.5-7.143,5.006-7.653,13.014,5.1,20.023,4.591,15.017-2.041,16.018,0,1.589-6.811-.322-12.813c-1.194-3.755-3.134-5.124-7.639-8.185s-4.638-5.457-4.638-5.457-3.682,2.965-5.183,2.455-1.364-3.82-1.364-3.82-11.388,7.412-13.391,7.922-7.007,1.02-9.01,6.632S211.04,83.454,211.04,83.454Z" transform="translate(-79.74 -19.986)" fill="none" stroke="#282b38" stroke-linecap="round" stroke-linejoin="round" stroke-width="1"/>
          <path id="Контур_3092" data-name="Контур 3092" d="M231.845,116.9c0,1.594-.571,2.887-1.276,2.887s-1.275-1.293-1.275-2.887.571-2.887,1.275-2.887,1.276,1.293,1.276,2.887" transform="translate(-87.165 -43.341)" fill="#282b38"/>
          <path id="Контур_3093" data-name="Контур 3093" d="M256.538,116.9c0,1.594-.571,2.887-1.276,2.887s-1.275-1.293-1.275-2.887.571-2.887,1.275-2.887,1.276,1.293,1.276,2.887" transform="translate(-96.552 -43.341)" fill="#282b38"/>
          <path id="Контур_3094" data-name="Контур 3094" d="M245.966,139.234c-.469,1.643-2.627,3.051-5.867,3.051s-5.4-1.408-5.868-3.051" transform="translate(-89.042 -52.929)" fill="none" stroke="#282b38" stroke-linecap="round" stroke-linejoin="round" stroke-width="1"/>
        </g>
      </g>
    </g>
  </g>
</svg>
