<svg xmlns="http://www.w3.org/2000/svg" width="63.778" height="83.609" viewBox="0 0 63.778 83.609">
  <g id="Сгруппировать_635" data-name="Сгруппировать 635" transform="translate(-361.299 -1322.221)">
    <path id="Контур_1026" data-name="Контур 1026" d="M254.23,2.221A31.959,31.959,0,0,0,222.3,34.152a33.456,33.456,0,0,0,1.689,10.39,4.461,4.461,0,0,0,8.448-2.872,22.483,22.483,0,0,1-1.267-8.194,23.065,23.065,0,1,1,24.413,23.653s-4.478.253-6.674.591c-1.1.169-1.943.338-2.534.423a.339.339,0,0,1-.422-.423l.76-3.716L250.767,35a4.408,4.408,0,0,0-8.617-1.859S232.182,79.6,232.1,80.106a4.407,4.407,0,1,0,8.616,1.858c.085-.506,1.436-6.673,1.436-6.673a11.22,11.22,0,0,1,9.461-8.785c1.014-.169,4.984-.423,4.984-.423A31.98,31.98,0,0,0,254.23,2.221Z" transform="translate(139 1320)"/>
    <path id="Контур_1027" data-name="Контур 1027" d="M263.692,74.3A5.829,5.829,0,1,0,261.3,85.706a5.747,5.747,0,0,0,6.9-4.508,5.886,5.886,0,0,0-4.509-6.9" transform="translate(139 1320)"/>
  </g>
</svg>
