<svg xmlns="http://www.w3.org/2000/svg" width="94.095" height="24.962" viewBox="0 0 94.095 24.962">
  <g id="Сгруппировать_633" data-name="Сгруппировать 633" transform="translate(-1248.58 -1365.647)">
    <path id="Контур_1033" data-name="Контур 1033" d="M1114.9,49.043a2.661,2.661,0,1,1-2.671-2.738,2.706,2.706,0,0,1,2.671,2.738" transform="translate(139 1320)" fill="#1b1464"/>
    <path id="Контур_1034" data-name="Контур 1034" d="M1114.938,58.411a2.661,2.661,0,1,1-2.671-2.738,2.706,2.706,0,0,1,2.671,2.738" transform="translate(139 1320)" fill="#1b1464"/>
    <path id="Контур_1035" data-name="Контур 1035" d="M1114.976,67.779a2.661,2.661,0,1,1-2.671-2.738,2.706,2.706,0,0,1,2.671,2.738" transform="translate(139 1320)" fill="#1b1464"/>
    <path id="Контур_1036" data-name="Контур 1036" d="M1124.22,58.373a2.661,2.661,0,1,1-2.671-2.738,2.706,2.706,0,0,1,2.671,2.738" transform="translate(139 1320)" fill="#1b1464"/>
    <path id="Контур_1037" data-name="Контур 1037" d="M1124.182,49.005a2.661,2.661,0,1,1-2.671-2.738,2.706,2.706,0,0,1,2.671,2.738" transform="translate(139 1320)" fill="#1b1464"/>
    <path id="Контур_1038" data-name="Контур 1038" d="M1133.5,58.335a2.661,2.661,0,1,1-2.671-2.738,2.706,2.706,0,0,1,2.671,2.738" transform="translate(139 1320)" fill="#1b1464"/>
    <path id="Контур_1039" data-name="Контур 1039" d="M1133.464,48.967a2.661,2.661,0,1,1-2.671-2.738,2.706,2.706,0,0,1,2.671,2.738" transform="translate(139 1320)" fill="#1b1464"/>
    <path id="Контур_1040" data-name="Контур 1040" d="M1133.541,67.7a2.661,2.661,0,1,1-2.671-2.738,2.707,2.707,0,0,1,2.671,2.738" transform="translate(139 1320)" fill="#1b1464"/>
    <path id="Контур_1041" data-name="Контур 1041" d="M1124.258,67.741A2.661,2.661,0,1,1,1121.587,65a2.706,2.706,0,0,1,2.671,2.738" transform="translate(139 1320)" fill="#1b1464"/>
    <path id="Контур_1042" data-name="Контур 1042" d="M1153.8,60.456l4.807,9.833-4.033.016-4.673-9.523-5.266.022.039,9.542-3.433.014-.1-24.114,10.233-.041c4.067-.017,7.509,2.208,7.529,7.169.016,3.858-1.941,6.242-5.1,7.082m-2.411-10.841-6.8.028.032,7.75,6.8-.027c2.333-.01,3.961-1.257,3.95-3.875a3.628,3.628,0,0,0-3.982-3.876" transform="translate(139 1320)" fill="#1b1464"/>
    <path id="Контур_1043" data-name="Контур 1043" d="M1173.138,70.609c-6.033.025-9.888-5.092-9.917-12.4s3.782-12.451,9.815-12.476c6.067-.025,9.921,5.092,9.951,12.4s-3.783,12.451-9.849,12.476m-.087-21.254c-4.066.017-6.286,3.436-6.264,8.844s2.27,8.81,6.336,8.793c4.1-.017,6.319-3.436,6.3-8.844s-2.269-8.81-6.369-8.793" transform="translate(139 1320)" fill="#1b1464"/>
    <path id="Контур_1044" data-name="Контур 1044" d="M1195.072,70.519a10.665,10.665,0,0,1-8.317-3.859l2.49-2.525a8.412,8.412,0,0,0,6.078,2.835c3.266-.014,4.828-1.191,4.82-3.534-.008-1.86-1.378-2.784-5.284-3.974-4.938-1.5-7.31-2.76-7.328-7.066-.017-4.168,3.373-6.731,7.672-6.749a10.287,10.287,0,0,1,7.646,3.241l-2.455,2.594a6.957,6.957,0,0,0-5.442-2.286c-2.734.011-3.9,1.394-3.889,3.013.008,1.688,1.077,2.51,5.116,3.734,4.606,1.428,7.479,2.932,7.5,7.238.018,4.34-2.638,7.314-8.6,7.338" transform="translate(139 1320)" fill="#1b1464"/>
  </g>
</svg>
