<svg id="Сгруппировать_827"  xmlns="http://www.w3.org/2000/svg" xmlns:xlink="http://www.w3.org/1999/xlink" width="258" height="205.388" viewBox="0 0 258 205.388">
  <defs>
    <clipPath id="clip-path">
      <rect id="Прямоугольник_994"  width="258" height="205.388" fill="none"/>
    </clipPath>
    <clipPath id="clip-path-3">
      <rect id="Прямоугольник_962"  width="25.273" height="22.495" fill="none"/>
    </clipPath>
    <clipPath id="clip-path-4">
      <rect id="Прямоугольник_963"  width="45.158" height="38.235" fill="none"/>
    </clipPath>
    <clipPath id="clip-path-5">
      <rect id="Прямоугольник_964"  width="31.201" height="30.288" fill="none"/>
    </clipPath>
  </defs>
  <g id="Сгруппировать_826"  clip-path="url(#clip-path)">
    <g id="Сгруппировать_825" >
      <g id="Сгруппировать_824"  clip-path="url(#clip-path)">
        <path id="Контур_2276"  d="M148.051,162.02s2.008.188,2.062,1.064-.575,1.047-1.107,1.224-1.59-.794-1.42-1.084.116-1.166.465-1.2" transform="translate(-20.291 -22.278)" fill="#b5c0f1"/>
        <path id="Контур_2277"  d="M148.051,162.02s2.008.188,2.062,1.064-.575,1.047-1.107,1.224-1.59-.794-1.42-1.084S147.7,162.058,148.051,162.02Z" transform="translate(-20.291 -22.278)" fill="none" stroke="#000" stroke-miterlimit="10" stroke-width="0.5"/>
        <path id="Контур_2278"  d="M150.529,163.616s4.081,1.985,2.936,3.331c-.844.994-1.884-.068-2.321-.385a5.619,5.619,0,0,1-1.681-1.77c-.192-.521-.009-1.6,1.066-1.176" transform="translate(-20.543 -22.485)" fill="#b5c0f1"/>
        <path id="Контур_2279"  d="M150.529,163.616s4.081,1.985,2.936,3.331c-.844.994-1.884-.068-2.321-.385a5.619,5.619,0,0,1-1.681-1.77C149.271,164.271,149.454,163.194,150.529,163.616Z" transform="translate(-20.543 -22.485)" fill="none" stroke="#000" stroke-miterlimit="10" stroke-width="0.5"/>
        <path id="Контур_2280"  d="M144.095,158.864s5.106,2.286,3.926,3.667-3.161-.648-3.161-.648-2.48-1.653-2.237-2.175a1.7,1.7,0,0,1,1.472-.844" transform="translate(-19.609 -21.843)" fill="#b5c0f1"/>
        <path id="Контур_2281"  d="M144.095,158.864s5.106,2.286,3.926,3.667-3.161-.648-3.161-.648-2.48-1.653-2.237-2.175A1.7,1.7,0,0,1,144.095,158.864Z" transform="translate(-19.609 -21.843)" fill="none" stroke="#000" stroke-miterlimit="10" stroke-width="0.5"/>
        <path id="Контур_2282"  d="M145.972,165.293s2,.282,2.007,1.159-.63,1.017-1.17,1.169-1.549-.867-1.364-1.148.177-1.158.527-1.18" transform="translate(-19.996 -22.729)" fill="#b5c0f1"/>
        <path id="Контур_2283"  d="M145.972,165.293s2,.282,2.007,1.159-.63,1.017-1.17,1.169-1.549-.867-1.364-1.148S145.622,165.315,145.972,165.293Z" transform="translate(-19.996 -22.729)" fill="none" stroke="#000" stroke-miterlimit="10" stroke-width="0.5"/>
        <path id="Контур_2284"  d="M142.181,161.964s4.989,2.522,3.736,3.843-3.127-.794-3.127-.794-2.393-1.766-2.124-2.276a1.716,1.716,0,0,1,1.515-.773" transform="translate(-19.339 -22.269)" fill="#b5c0f1"/>
        <path id="Контур_2285"  d="M142.181,161.964s4.989,2.522,3.736,3.843-3.127-.794-3.127-.794-2.393-1.766-2.124-2.276A1.716,1.716,0,0,1,142.181,161.964Z" transform="translate(-19.339 -22.269)" fill="none" stroke="#000" stroke-miterlimit="10" stroke-width="0.5"/>
        <path id="Контур_2286"  d="M148.622,167.1s4.875,2.39,3.708,3.776c-.835.993-2.644-.449-3.115-.768s-2.38-1.73-2.108-2.236a1.74,1.74,0,0,1,1.515-.772" transform="translate(-20.224 -22.974)" fill="#b5c0f1"/>
        <path id="Контур_2287"  d="M148.622,167.1s4.875,2.39,3.708,3.776c-.835.993-2.644-.449-3.115-.768s-2.38-1.73-2.108-2.236A1.74,1.74,0,0,1,148.622,167.1Z" transform="translate(-20.224 -22.974)" fill="none" stroke="#000" stroke-miterlimit="10" stroke-width="0.5"/>
        <path id="Контур_2288"  d="M143.56,168.7s1.95.523,1.843,1.39-.762.93-1.32,1.013-1.426-1.045-1.2-1.3.33-1.124.681-1.1" transform="translate(-19.642 -23.197)" fill="#b5c0f1"/>
        <path id="Контур_2289"  d="M143.56,168.7s1.95.523,1.843,1.39-.762.93-1.32,1.013-1.426-1.045-1.2-1.3S143.209,168.675,143.56,168.7Z" transform="translate(-19.642 -23.197)" fill="none" stroke="#000" stroke-miterlimit="10" stroke-width="0.5"/>
        <path id="Контур_2290"  d="M140.239,164.959s4.626,3.1,3.206,4.256-3.006-1.166-3.006-1.166-2.147-2.037-1.81-2.51a1.745,1.745,0,0,1,1.61-.58" transform="translate(-19.057 -22.677)" fill="#b5c0f1"/>
        <path id="Контур_2291"  d="M140.239,164.959s4.626,3.1,3.206,4.256-3.006-1.166-3.006-1.166-2.147-2.037-1.81-2.51A1.745,1.745,0,0,1,140.239,164.959Z" transform="translate(-19.057 -22.677)" fill="none" stroke="#000" stroke-miterlimit="10" stroke-width="0.5"/>
        <path id="Контур_2292"  d="M145.951,170.654s4.562,2.438,3.235,3.686c-.977.919-2.888-.648-2.888-.648s-2.236-1.9-1.924-2.382a1.756,1.756,0,0,1,1.577-.656" transform="translate(-19.848 -23.462)" fill="#b5c0f1"/>
        <path id="Контур_2293"  d="M145.951,170.654s4.562,2.438,3.235,3.686c-.977.919-2.888-.648-2.888-.648s-2.236-1.9-1.924-2.382A1.756,1.756,0,0,1,145.951,170.654Z" transform="translate(-19.848 -23.462)" fill="none" stroke="#000" stroke-miterlimit="10" stroke-width="0.5"/>
        <path id="Контур_2294"  d="M139.528,170.257s1.714.42,1.658,1.219-.62.875-1.1.969-1.281-.915-1.1-1.157.238-1.039.543-1.031" transform="translate(-19.107 -23.411)" fill="#b5c0f1"/>
        <path id="Контур_2295"  d="M139.528,170.257s1.714.42,1.658,1.219-.62.875-1.1.969-1.281-.915-1.1-1.157S139.223,170.248,139.528,170.257Z" transform="translate(-19.107 -23.411)" fill="none" stroke="#000" stroke-miterlimit="10" stroke-width="0.5"/>
        <path id="Контур_2296"  d="M136.485,166.929s4.145,2.7,2.963,3.8-2.656-.979-2.656-.979-1.948-1.8-1.678-2.247a1.451,1.451,0,0,1,1.371-.579" transform="translate(-18.575 -22.949)" fill="#b5c0f1"/>
        <path id="Контур_2297"  d="M136.485,166.929s4.145,2.7,2.963,3.8-2.656-.979-2.656-.979-1.948-1.8-1.678-2.247A1.451,1.451,0,0,1,136.485,166.929Z" transform="translate(-18.575 -22.949)" fill="none" stroke="#000" stroke-miterlimit="10" stroke-width="0.5"/>
        <path id="Контур_2298"  d="M141.645,171.781s3.985,1.565,2.694,2.841c-.952.944-2.584-.2-2.584-.2s-1.905-1.39-1.589-1.859a2.026,2.026,0,0,1,1.479-.787" transform="translate(-19.268 -23.62)" fill="#b5c0f1"/>
        <path id="Контур_2299"  d="M141.645,171.781s3.985,1.565,2.694,2.841c-.952.944-2.584-.2-2.584-.2s-1.905-1.39-1.589-1.859A2.026,2.026,0,0,1,141.645,171.781Z" transform="translate(-19.268 -23.62)" fill="none" stroke="#000" stroke-miterlimit="10" stroke-width="0.5"/>
        <path id="Контур_2300"  d="M129.4,156.744s1.088,1.318,1.509,1.076c.666-.381,2.094-1.5,1.439-2.368a3.878,3.878,0,0,0-1.319-.921,1.766,1.766,0,0,0-1.629,2.212" transform="translate(-17.787 -21.248)" fill="#b5c0f1"/>
        <path id="Контур_2301"  d="M129.4,156.744s1.088,1.318,1.509,1.076c.666-.381,2.094-1.5,1.439-2.368a3.878,3.878,0,0,0-1.319-.921A1.766,1.766,0,0,0,129.4,156.744Z" transform="translate(-17.787 -21.248)" fill="none" stroke="#000" stroke-miterlimit="10" stroke-width="0.5"/>
        <path id="Контур_2302"  d="M127.967,155.572s1.088,1.318,1.509,1.076c.666-.381,2.093-1.5,1.439-2.368a3.878,3.878,0,0,0-1.319-.921,1.766,1.766,0,0,0-1.629,2.212" transform="translate(-17.59 -21.087)" fill="#b5c0f1"/>
        <path id="Контур_2303"  d="M127.967,155.572s1.088,1.318,1.509,1.076c.666-.381,2.093-1.5,1.439-2.368a3.878,3.878,0,0,0-1.319-.921A1.766,1.766,0,0,0,127.967,155.572Z" transform="translate(-17.59 -21.087)" fill="none" stroke="#000" stroke-miterlimit="10" stroke-width="0.5"/>
        <path id="Контур_2304"  d="M126.529,154.4s1.088,1.318,1.509,1.076c.666-.381,2.094-1.5,1.439-2.368a3.879,3.879,0,0,0-1.319-.921,1.766,1.766,0,0,0-1.629,2.212" transform="translate(-17.392 -20.926)" fill="#b5c0f1"/>
        <path id="Контур_2305"  d="M126.529,154.4s1.088,1.318,1.509,1.076c.666-.381,2.094-1.5,1.439-2.368a3.879,3.879,0,0,0-1.319-.921A1.766,1.766,0,0,0,126.529,154.4Z" transform="translate(-17.392 -20.926)" fill="none" stroke="#000" stroke-miterlimit="10" stroke-width="0.5"/>
        <path id="Контур_2306"  d="M125.092,153.229s1.088,1.318,1.509,1.076c.666-.381,2.094-1.5,1.439-2.368a3.879,3.879,0,0,0-1.319-.921,1.766,1.766,0,0,0-1.629,2.212" transform="translate(-17.194 -20.765)" fill="#b5c0f1"/>
        <path id="Контур_2307"  d="M125.092,153.229s1.088,1.318,1.509,1.076c.666-.381,2.094-1.5,1.439-2.368a3.879,3.879,0,0,0-1.319-.921A1.766,1.766,0,0,0,125.092,153.229Z" transform="translate(-17.194 -20.765)" fill="none" stroke="#000" stroke-miterlimit="10" stroke-width="0.5"/>
        <path id="Контур_2308"  d="M123.655,152.057s1.088,1.318,1.509,1.076c.666-.381,2.094-1.5,1.439-2.368a3.879,3.879,0,0,0-1.319-.921,1.766,1.766,0,0,0-1.629,2.212" transform="translate(-16.997 -20.603)" fill="#b5c0f1"/>
        <path id="Контур_2309"  d="M123.655,152.057s1.088,1.318,1.509,1.076c.666-.381,2.094-1.5,1.439-2.368a3.879,3.879,0,0,0-1.319-.921A1.766,1.766,0,0,0,123.655,152.057Z" transform="translate(-16.997 -20.603)" fill="none" stroke="#000" stroke-miterlimit="10" stroke-width="0.5"/>
        <path id="Контур_2310"  d="M122.439,151.066s1.088,1.318,1.509,1.076c.666-.381,2.094-1.5,1.439-2.368a3.884,3.884,0,0,0-1.319-.922,1.766,1.766,0,0,0-1.629,2.213" transform="translate(-16.829 -20.467)" fill="#b5c0f1"/>
        <path id="Контур_2311"  d="M122.439,151.066s1.088,1.318,1.509,1.076c.666-.381,2.094-1.5,1.439-2.368a3.884,3.884,0,0,0-1.319-.922A1.766,1.766,0,0,0,122.439,151.066Z" transform="translate(-16.829 -20.467)" fill="none" stroke="#000" stroke-miterlimit="10" stroke-width="0.5"/>
        <path id="Контур_2312"  d="M121,149.894s1.088,1.318,1.509,1.076c.667-.381,2.1-1.5,1.439-2.368a3.879,3.879,0,0,0-1.319-.921c-1.074-.11-1.885,1.18-1.629,2.212" transform="translate(-16.632 -20.306)" fill="#b5c0f1"/>
        <path id="Контур_2313"  d="M121,149.894s1.088,1.318,1.509,1.076c.667-.381,2.1-1.5,1.439-2.368a3.879,3.879,0,0,0-1.319-.921C121.557,147.572,120.745,148.862,121,149.894Z" transform="translate(-16.632 -20.306)" fill="none" stroke="#000" stroke-miterlimit="10" stroke-width="0.5"/>
        <path id="Контур_2314"  d="M133.224,150.552c1.584-.135,8.176,5.906,8.923,6.754s-3.379,8.554-6.674,9.254-10.335-7.664-9.4-9.27,5.571-6.6,7.154-6.738" transform="translate(-17.324 -20.701)" fill="#b5c0f1"/>
        <path id="Контур_2315"  d="M133.224,150.552c1.584-.135,8.176,5.906,8.923,6.754s-3.379,8.554-6.674,9.254-10.335-7.664-9.4-9.27S131.64,150.686,133.224,150.552Z" transform="translate(-17.324 -20.701)" fill="none" stroke="#000" stroke-miterlimit="10" stroke-width="0.5"/>
        <path id="Контур_2316"  d="M108.214,139.721,121.5,151.043s3.553-2.519,2.223-3.607-11.4-11.036-12.41-10.7-3.1,2.984-3.1,2.984" transform="translate(-14.88 -18.801)" fill="#b5c0f1"/>
        <path id="Контур_2317"  d="M108.214,139.721,121.5,151.043s3.553-2.519,2.223-3.607-11.4-11.036-12.41-10.7S108.214,139.721,108.214,139.721Z" transform="translate(-14.88 -18.801)" fill="none" stroke="#000" stroke-miterlimit="10" stroke-width="0.5"/>
        <path id="Контур_2318"  d="M100.31,135.466s5.344,5.874,7.957,5.508,5.186-3.363,5.259-5.438-6.989-8.922-9.307-7.881-3.909,7.811-3.909,7.811" transform="translate(-13.793 -17.538)" fill="#b5c0f1"/>
        <path id="Контур_2319"  d="M100.31,135.466s5.344,5.874,7.957,5.508,5.186-3.363,5.259-5.438-6.989-8.922-9.307-7.881S100.31,135.466,100.31,135.466Z" transform="translate(-13.793 -17.538)" fill="none" stroke="#000" stroke-miterlimit="10" stroke-width="0.5"/>
        <path id="Контур_2320"  d="M142.558,162.94s-2.008.188-2.062,1.064.575,1.047,1.107,1.224,1.59-.793,1.42-1.084-.116-1.166-.465-1.2" transform="translate(-19.318 -22.405)" fill="#f0d283"/>
        <path id="Контур_2321"  d="M142.558,162.94s-2.008.188-2.062,1.064.575,1.047,1.107,1.224,1.59-.793,1.42-1.084S142.906,162.978,142.558,162.94Z" transform="translate(-19.318 -22.405)" fill="none" stroke="#000" stroke-miterlimit="10" stroke-width="0.5"/>
        <path id="Контур_2322"  d="M139.8,164.536s-4.081,1.985-2.936,3.332c.844.994,1.884-.068,2.321-.386a5.616,5.616,0,0,0,1.681-1.769c.192-.522.009-1.6-1.066-1.177" transform="translate(-18.792 -22.611)" fill="#f0d283"/>
        <path id="Контур_2323"  d="M139.8,164.536s-4.081,1.985-2.936,3.332c.844.994,1.884-.068,2.321-.386a5.616,5.616,0,0,0,1.681-1.769C141.063,165.191,140.88,164.114,139.8,164.536Z" transform="translate(-18.792 -22.611)" fill="none" stroke="#000" stroke-miterlimit="10" stroke-width="0.5"/>
        <path id="Контур_2324"  d="M146.029,159.785s-5.106,2.286-3.926,3.667,3.161-.647,3.161-.647,2.48-1.653,2.237-2.176a1.7,1.7,0,0,0-1.472-.844" transform="translate(-19.515 -21.97)" fill="#f0d283"/>
        <path id="Контур_2325"  d="M146.029,159.785s-5.106,2.286-3.926,3.667,3.161-.647,3.161-.647,2.48-1.653,2.237-2.176A1.7,1.7,0,0,0,146.029,159.785Z" transform="translate(-19.515 -21.97)" fill="none" stroke="#000" stroke-miterlimit="10" stroke-width="0.5"/>
        <path id="Контур_2326"  d="M144.635,166.213s-2,.282-2.007,1.159.63,1.017,1.17,1.169,1.549-.867,1.364-1.148-.177-1.158-.527-1.18" transform="translate(-19.612 -22.855)" fill="#f0d283"/>
        <path id="Контур_2327"  d="M144.635,166.213s-2,.282-2.007,1.159.63,1.017,1.17,1.169,1.549-.867,1.364-1.148S144.985,166.235,144.635,166.213Z" transform="translate(-19.612 -22.855)" fill="none" stroke="#000" stroke-miterlimit="10" stroke-width="0.5"/>
        <path id="Контур_2328"  d="M147.96,162.885s-4.988,2.522-3.736,3.843,3.127-.794,3.127-.794,2.393-1.766,2.124-2.276a1.716,1.716,0,0,0-1.515-.773" transform="translate(-19.804 -22.395)" fill="#f0d283"/>
        <path id="Контур_2329"  d="M147.96,162.885s-4.988,2.522-3.736,3.843,3.127-.794,3.127-.794,2.393-1.766,2.124-2.276A1.716,1.716,0,0,0,147.96,162.885Z" transform="translate(-19.804 -22.395)" fill="none" stroke="#000" stroke-miterlimit="10" stroke-width="0.5"/>
        <path id="Контур_2330"  d="M141.526,168.017s-4.875,2.39-3.708,3.776c.836.993,2.644-.449,3.116-.768s2.379-1.73,2.108-2.236a1.74,1.74,0,0,0-1.516-.772" transform="translate(-18.926 -23.101)" fill="#f0d283"/>
        <path id="Контур_2331"  d="M141.526,168.017s-4.875,2.39-3.708,3.776c.836.993,2.644-.449,3.116-.768s2.379-1.73,2.108-2.236A1.74,1.74,0,0,0,141.526,168.017Z" transform="translate(-18.926 -23.101)" fill="none" stroke="#000" stroke-miterlimit="10" stroke-width="0.5"/>
        <path id="Контур_2332"  d="M147.046,169.617s-1.95.523-1.843,1.39.762.93,1.32,1.013,1.426-1.045,1.2-1.3-.33-1.124-.681-1.1" transform="translate(-19.966 -23.323)" fill="#f0d283"/>
        <path id="Контур_2333"  d="M147.046,169.617s-1.95.523-1.843,1.39.762.93,1.32,1.013,1.426-1.045,1.2-1.3S147.4,169.6,147.046,169.617Z" transform="translate(-19.966 -23.323)" fill="none" stroke="#000" stroke-miterlimit="10" stroke-width="0.5"/>
        <path id="Контур_2334"  d="M149.959,165.88s-4.626,3.1-3.206,4.256,3.006-1.166,3.006-1.166,2.147-2.037,1.81-2.51a1.745,1.745,0,0,0-1.61-.58" transform="translate(-20.142 -22.804)" fill="#f0d283"/>
        <path id="Контур_2335"  d="M149.959,165.88s-4.626,3.1-3.206,4.256,3.006-1.166,3.006-1.166,2.147-2.037,1.81-2.51A1.745,1.745,0,0,0,149.959,165.88Z" transform="translate(-20.142 -22.804)" fill="none" stroke="#000" stroke-miterlimit="10" stroke-width="0.5"/>
        <path id="Контур_2336"  d="M144.254,171.574s-4.562,2.438-3.235,3.686c.977.919,2.888-.648,2.888-.648s2.236-1.9,1.924-2.382a1.756,1.756,0,0,0-1.577-.656" transform="translate(-19.357 -23.588)" fill="#f0d283"/>
        <path id="Контур_2337"  d="M144.254,171.574s-4.562,2.438-3.235,3.686c.977.919,2.888-.648,2.888-.648s2.236-1.9,1.924-2.382A1.756,1.756,0,0,0,144.254,171.574Z" transform="translate(-19.357 -23.588)" fill="none" stroke="#000" stroke-miterlimit="10" stroke-width="0.5"/>
        <path id="Контур_2338"  d="M149.732,154.985s-7.468,1.778-6.614,3.375,5.195-.493,5.195-.493,2.8-1.2,2.679-1.768a1.629,1.629,0,0,0-1.259-1.113" transform="translate(-19.67 -21.311)" fill="#f0d283"/>
        <path id="Контур_2339"  d="M149.732,154.985s-7.468,1.778-6.614,3.375,5.195-.493,5.195-.493,2.8-1.2,2.679-1.768A1.629,1.629,0,0,0,149.732,154.985Z" transform="translate(-19.67 -21.311)" fill="none" stroke="#000" stroke-miterlimit="10" stroke-width="0.5"/>
        <path id="Контур_2340"  d="M151.132,171.178s-1.714.42-1.658,1.22.62.875,1.1.968,1.281-.915,1.1-1.157-.238-1.039-.543-1.031" transform="translate(-20.553 -23.538)" fill="#f0d283"/>
        <path id="Контур_2341"  d="M151.132,171.178s-1.714.42-1.658,1.22.62.875,1.1.968,1.281-.915,1.1-1.157S151.437,171.169,151.132,171.178Z" transform="translate(-20.553 -23.538)" fill="none" stroke="#000" stroke-miterlimit="10" stroke-width="0.5"/>
        <path id="Контур_2342"  d="M153.8,167.849s-4.145,2.7-2.963,3.8,2.656-.979,2.656-.979,1.948-1.8,1.678-2.246a1.452,1.452,0,0,0-1.371-.58" transform="translate(-20.712 -23.076)" fill="#f0d283"/>
        <path id="Контур_2343"  d="M153.8,167.849s-4.145,2.7-2.963,3.8,2.656-.979,2.656-.979,1.948-1.8,1.678-2.246A1.452,1.452,0,0,0,153.8,167.849Z" transform="translate(-20.712 -23.076)" fill="none" stroke="#000" stroke-miterlimit="10" stroke-width="0.5"/>
        <path id="Контур_2344"  d="M148.659,172.7s-3.985,1.565-2.694,2.842c.952.943,2.584-.2,2.584-.2s1.905-1.39,1.589-1.859a2.029,2.029,0,0,0-1.479-.787" transform="translate(-20.035 -23.746)" fill="#f0d283"/>
        <path id="Контур_2345"  d="M148.659,172.7s-3.985,1.565-2.694,2.842c.952.943,2.584-.2,2.584-.2s1.905-1.39,1.589-1.859A2.029,2.029,0,0,0,148.659,172.7Z" transform="translate(-20.035 -23.746)" fill="none" stroke="#000" stroke-miterlimit="10" stroke-width="0.5"/>
        <path id="Контур_2346"  d="M161.106,157.664s-1.088,1.318-1.509,1.076c-.666-.381-2.094-1.5-1.439-2.368a3.879,3.879,0,0,1,1.319-.921,1.765,1.765,0,0,1,1.629,2.212" transform="translate(-21.724 -21.374)" fill="#f0d283"/>
        <path id="Контур_2347"  d="M161.106,157.664s-1.088,1.318-1.509,1.076c-.666-.381-2.094-1.5-1.439-2.368a3.879,3.879,0,0,1,1.319-.921A1.765,1.765,0,0,1,161.106,157.664Z" transform="translate(-21.724 -21.374)" fill="none" stroke="#000" stroke-miterlimit="10" stroke-width="0.5"/>
        <path id="Контур_2348"  d="M162.543,156.493s-1.088,1.318-1.509,1.076c-.666-.381-2.094-1.5-1.439-2.368a3.879,3.879,0,0,1,1.319-.921,1.765,1.765,0,0,1,1.629,2.212" transform="translate(-21.922 -21.213)" fill="#f0d283"/>
        <path id="Контур_2349"  d="M162.543,156.493s-1.088,1.318-1.509,1.076c-.666-.381-2.094-1.5-1.439-2.368a3.879,3.879,0,0,1,1.319-.921A1.765,1.765,0,0,1,162.543,156.493Z" transform="translate(-21.922 -21.213)" fill="none" stroke="#000" stroke-miterlimit="10" stroke-width="0.5"/>
        <path id="Контур_2350"  d="M163.981,155.321s-1.088,1.318-1.509,1.076c-.666-.381-2.094-1.5-1.439-2.368a3.878,3.878,0,0,1,1.319-.921,1.765,1.765,0,0,1,1.629,2.212" transform="translate(-22.12 -21.052)" fill="#f0d283"/>
        <path id="Контур_2351"  d="M163.981,155.321s-1.088,1.318-1.509,1.076c-.666-.381-2.094-1.5-1.439-2.368a3.878,3.878,0,0,1,1.319-.921A1.765,1.765,0,0,1,163.981,155.321Z" transform="translate(-22.12 -21.052)" fill="none" stroke="#000" stroke-miterlimit="10" stroke-width="0.5"/>
        <path id="Контур_2352"  d="M165.418,154.149s-1.088,1.318-1.509,1.076c-.666-.381-2.094-1.5-1.439-2.368a3.879,3.879,0,0,1,1.319-.921,1.765,1.765,0,0,1,1.629,2.212" transform="translate(-22.317 -20.891)" fill="#f0d283"/>
        <path id="Контур_2353"  d="M165.418,154.149s-1.088,1.318-1.509,1.076c-.666-.381-2.094-1.5-1.439-2.368a3.879,3.879,0,0,1,1.319-.921A1.765,1.765,0,0,1,165.418,154.149Z" transform="translate(-22.317 -20.891)" fill="none" stroke="#000" stroke-miterlimit="10" stroke-width="0.5"/>
        <path id="Контур_2354"  d="M166.855,152.978s-1.088,1.318-1.509,1.076c-.666-.381-2.094-1.5-1.439-2.368a3.879,3.879,0,0,1,1.319-.921,1.765,1.765,0,0,1,1.629,2.212" transform="translate(-22.515 -20.73)" fill="#f0d283"/>
        <path id="Контур_2355"  d="M166.855,152.978s-1.088,1.318-1.509,1.076c-.666-.381-2.094-1.5-1.439-2.368a3.879,3.879,0,0,1,1.319-.921A1.765,1.765,0,0,1,166.855,152.978Z" transform="translate(-22.515 -20.73)" fill="none" stroke="#000" stroke-miterlimit="10" stroke-width="0.5"/>
        <path id="Контур_2356"  d="M168.071,151.986s-1.088,1.318-1.509,1.076c-.666-.381-2.094-1.5-1.439-2.368a3.879,3.879,0,0,1,1.319-.921,1.766,1.766,0,0,1,1.629,2.212" transform="translate(-22.682 -20.594)" fill="#f0d283"/>
        <path id="Контур_2357"  d="M168.071,151.986s-1.088,1.318-1.509,1.076c-.666-.381-2.094-1.5-1.439-2.368a3.879,3.879,0,0,1,1.319-.921A1.766,1.766,0,0,1,168.071,151.986Z" transform="translate(-22.682 -20.594)" fill="none" stroke="#000" stroke-miterlimit="10" stroke-width="0.5"/>
        <path id="Контур_2358"  d="M169.508,150.815s-1.088,1.318-1.509,1.076c-.666-.381-2.094-1.5-1.439-2.368a3.866,3.866,0,0,1,1.319-.921,1.766,1.766,0,0,1,1.629,2.212" transform="translate(-22.88 -20.433)" fill="#f0d283"/>
        <path id="Контур_2359"  d="M169.508,150.815s-1.088,1.318-1.509,1.076c-.666-.381-2.094-1.5-1.439-2.368a3.866,3.866,0,0,1,1.319-.921A1.766,1.766,0,0,1,169.508,150.815Z" transform="translate(-22.88 -20.433)" fill="none" stroke="#000" stroke-miterlimit="10" stroke-width="0.5"/>
        <path id="Контур_2360"  d="M155.2,151.473c-1.584-.135-8.176,5.906-8.923,6.754s3.379,8.554,6.674,9.254,10.335-7.664,9.4-9.27-5.571-6.6-7.154-6.738" transform="translate(-20.102 -20.828)" fill="#f0d283"/>
        <path id="Контур_2361"  d="M155.2,151.473c-1.584-.135-8.176,5.906-8.923,6.754s3.379,8.554,6.674,9.254,10.335-7.664,9.4-9.27S156.784,151.607,155.2,151.473Z" transform="translate(-20.102 -20.828)" fill="none" stroke="#000" stroke-miterlimit="10" stroke-width="0.5"/>
        <path id="Контур_2362"  d="M147.754,159.785c-.263.349-.539.924.476,1.273a.871.871,0,1,0-.476-1.273" transform="translate(-20.283 -21.912)" fill="#f0d283"/>
        <path id="Контур_2363"  d="M147.754,159.785c-.263.349-.539.924.476,1.273a.871.871,0,1,0-.476-1.273Z" transform="translate(-20.283 -21.912)" fill="none" stroke="#000" stroke-miterlimit="10" stroke-width="0.5"/>
        <path id="Контур_2364"  d="M149.935,163.212c-.263.349-.539.924.476,1.273a.871.871,0,1,0-.476-1.273" transform="translate(-20.583 -22.383)" fill="#f0d283"/>
        <path id="Контур_2365"  d="M149.935,163.212c-.263.349-.539.924.476,1.273a.871.871,0,1,0-.476-1.273Z" transform="translate(-20.583 -22.383)" fill="none" stroke="#000" stroke-miterlimit="10" stroke-width="0.5"/>
        <path id="Контур_2366"  d="M151.727,165.892c-.263.349-.539.924.476,1.273a.871.871,0,1,0-.476-1.273" transform="translate(-20.83 -22.751)" fill="#f0d283"/>
        <path id="Контур_2367"  d="M151.727,165.892c-.263.349-.539.924.476,1.273a.871.871,0,1,0-.476-1.273Z" transform="translate(-20.83 -22.751)" fill="none" stroke="#000" stroke-miterlimit="10" stroke-width="0.5"/>
        <path id="Контур_2368"  d="M154.709,167.048c-.263.349-.539.924.476,1.273a.871.871,0,1,0-.476-1.273" transform="translate(-21.24 -22.91)" fill="#f0d283"/>
        <path id="Контур_2369"  d="M154.709,167.048c-.263.349-.539.924.476,1.273a.871.871,0,1,0-.476-1.273Z" transform="translate(-21.24 -22.91)" fill="none" stroke="#000" stroke-miterlimit="10" stroke-width="0.5"/>
        <path id="Контур_2370"  d="M150.925,156.35c-.263.349-.539.924.476,1.273a.871.871,0,1,0-.476-1.273" transform="translate(-20.719 -21.439)" fill="#f0d283"/>
        <path id="Контур_2371"  d="M150.925,156.35c-.263.349-.539.924.476,1.273a.871.871,0,1,0-.476-1.273Z" transform="translate(-20.719 -21.439)" fill="none" stroke="#000" stroke-miterlimit="10" stroke-width="0.5"/>
        <path id="Контур_2372"  d="M180.281,140.642l-13.287,11.322s-3.553-2.519-2.223-3.607,11.4-11.036,12.41-10.7,3.1,2.984,3.1,2.984" transform="translate(-22.616 -18.927)" fill="#f0d283"/>
        <path id="Контур_2373"  d="M180.281,140.642l-13.287,11.322s-3.553-2.519-2.223-3.607,11.4-11.036,12.41-10.7S180.281,140.642,180.281,140.642Z" transform="translate(-22.616 -18.927)" fill="none" stroke="#000" stroke-miterlimit="10" stroke-width="0.5"/>
        <path id="Контур_2374"  d="M188.6,136.387s-5.344,5.874-7.957,5.508-5.187-3.363-5.259-5.438,6.988-8.922,9.307-7.881,3.908,7.811,3.908,7.811" transform="translate(-24.116 -17.665)" fill="#001a47"/>
        <path id="Контур_2375"  d="M188.6,136.387s-5.344,5.874-7.957,5.508-5.187-3.363-5.259-5.438,6.988-8.922,9.307-7.881S188.6,136.387,188.6,136.387Z" transform="translate(-24.116 -17.665)" fill="none" stroke="#000" stroke-miterlimit="10" stroke-width="0.5"/>
        <path id="Контур_2376"  d="M115.468,130.244a8.275,8.275,0,1,1-10.5,12.791L65.047,111.956A10.758,10.758,0,1,1,78.7,95.328Z" transform="translate(-8.404 -12.772)" fill="#ffb300"/>
        <path id="Контур_2377"  d="M115.468,130.244a8.275,8.275,0,1,1-10.5,12.791L65.047,111.956A10.758,10.758,0,1,1,78.7,95.328Z" transform="translate(-8.404 -12.772)" fill="none" stroke="#000" stroke-miterlimit="10" stroke-width="0.5"/>
        <g id="Сгруппировать_817"  transform="translate(72.882 96.418)" opacity="0.5" style="mix-blend-mode: screen;isolation: isolate">
          <g id="Сгруппировать_816" >
            <g id="Сгруппировать_815"  clip-path="url(#clip-path-3)">
              <path id="Контур_2378"  d="M86.385,119.986a4.486,4.486,0,0,1,5.709-6.922l15.87,13.092a4.487,4.487,0,0,1-5.711,6.922Z" transform="translate(-84.536 -111.824)" fill="#ffb300"/>
              <path id="Контур_2379"  d="M86.385,119.986a4.486,4.486,0,0,1,5.709-6.922l15.87,13.092a4.487,4.487,0,0,1-5.711,6.922Z" transform="translate(-84.536 -111.824)" fill="none" stroke="#000" stroke-miterlimit="10" stroke-width="0.5"/>
            </g>
          </g>
        </g>
        <path id="Контур_2380"  d="M121.553,141.993a5.546,5.546,0,1,0-5.617,5.473,5.546,5.546,0,0,0,5.617-5.473" transform="translate(-15.189 -18.752)" fill="#4d4d4d"/>
        <path id="Контур_2381"  d="M121.553,141.993a5.546,5.546,0,1,0-5.617,5.473A5.546,5.546,0,0,0,121.553,141.993Z" transform="translate(-15.189 -18.752)" fill="none" stroke="#000" stroke-miterlimit="10" stroke-width="0.5"/>
        <path id="Контур_2382"  d="M116.161,146.37a4.241,4.241,0,1,1,4.294-4.187,4.247,4.247,0,0,1-4.294,4.187" transform="translate(-15.397 -18.96)" fill="#2e2f2e"/>
        <path id="Контур_2383"  d="M116.161,146.37a4.241,4.241,0,1,1,4.294-4.187A4.247,4.247,0,0,1,116.161,146.37Z" transform="translate(-15.397 -18.96)" fill="none" stroke="#000" stroke-miterlimit="10" stroke-width="0.5"/>
        <circle id="Эллипс_129"  cx="1.687" cy="1.687" r="1.687" transform="translate(56.689 64.979)" fill="none" stroke="#b5d1e6" stroke-linecap="round" stroke-linejoin="round" stroke-width="0.5"/>
        <path id="Контур_2384"  d="M75.428,70.489a10.548,10.548,0,0,0-18.429,0" transform="translate(-7.838 -8.948)" fill="none" stroke="#b5d1e6" stroke-linecap="round" stroke-linejoin="round" stroke-width="0.5"/>
        <path id="Контур_2385"  d="M73.92,72.667a8.134,8.134,0,0,0-14.84,0" transform="translate(-8.124 -9.332)" fill="none" stroke="#b5d1e6" stroke-linecap="round" stroke-linejoin="round" stroke-width="0.5"/>
        <path id="Контур_2386"  d="M72.338,74.933a5.724,5.724,0,0,0-11.075,0" transform="translate(-8.424 -9.716)" fill="none" stroke="#b5d1e6" stroke-linecap="round" stroke-linejoin="round" stroke-width="0.5"/>
        <line id="Линия_180"  y2="11.268" transform="translate(58.28 70.879)" fill="none" stroke="#b5d1e6" stroke-linecap="round" stroke-linejoin="round" stroke-width="0.5"/>
        <path id="Контур_2387"  d="M50.928,208.942v-29.31a16.811,16.811,0,0,0-33.623,0v29.31Z" transform="translate(-2.38 -22.389)" fill="#ffd500"/>
        <path id="Контур_2388"  d="M50.928,208.942v-29.31a16.811,16.811,0,0,0-33.623,0v29.31Z" transform="translate(-2.38 -22.389)" fill="none" stroke="#000" stroke-miterlimit="10" stroke-width="0.5"/>
        <path id="Контур_2389"  d="M50.9,98.928a11.126,11.126,0,1,1,20.564,8.5L47.121,170.942a14.465,14.465,0,0,1-26.734-11.055Z" transform="translate(-2.652 -12.657)" fill="#ffb300"/>
        <path id="Контур_2390"  d="M50.9,98.928a11.126,11.126,0,1,1,20.564,8.5L47.121,170.942a14.465,14.465,0,0,1-26.734-11.055Z" transform="translate(-2.652 -12.657)" fill="none" stroke="#000" stroke-miterlimit="10" stroke-width="0.5"/>
        <path id="Контур_2391"  d="M27.975,179.757a9.224,9.224,0,1,0,3.16-12.656,9.223,9.223,0,0,0-3.16,12.656" transform="translate(-3.666 -22.796)" fill="#4d4d4d"/>
        <path id="Контур_2392"  d="M27.975,179.757a9.224,9.224,0,1,0,3.16-12.656A9.223,9.223,0,0,0,27.975,179.757Z" transform="translate(-3.666 -22.796)" fill="none" stroke="#000" stroke-miterlimit="10" stroke-width="0.5"/>
        <path id="Контур_2393"  d="M32.6,169.309a7.053,7.053,0,1,1-2.418,9.678,7.062,7.062,0,0,1,2.418-9.678" transform="translate(-4.012 -23.143)" fill="#2e2f2e"/>
        <path id="Контур_2394"  d="M32.6,169.309a7.053,7.053,0,1,1-2.418,9.678A7.062,7.062,0,0,1,32.6,169.309Z" transform="translate(-4.012 -23.143)" fill="none" stroke="#000" stroke-miterlimit="10" stroke-width="0.5"/>
        <path id="Контур_2395"  d="M125.823,74.611a30.151,30.151,0,1,0,23.3-35.712,30.15,30.15,0,0,0-23.3,35.712" transform="translate(-17.212 -5.259)" fill="#c1a056"/>
        <path id="Контур_2396"  d="M128.049,73.63a29.634,29.634,0,1,0,22.9-35.1,29.634,29.634,0,0,0-22.9,35.1" transform="translate(-17.519 -5.21)" fill="#ffcc01"/>
        <g id="Сгруппировать_820"  transform="translate(119.334 37.059)" opacity="0.1">
          <g id="Сгруппировать_819" >
            <g id="Сгруппировать_818"  clip-path="url(#clip-path-4)">
              <path id="Контур_2397"  d="M182.332,63.359a24.393,24.393,0,0,0-43.973-8.806A24.394,24.394,0,1,1,179.207,81.2a24.307,24.307,0,0,0,3.125-17.843" transform="translate(-138.359 -42.967)"/>
            </g>
          </g>
        </g>
        <path id="Контур_2398"  d="M157.078,38.537a29.1,29.1,0,0,1,28.336,23.026,28.988,28.988,0,0,1-22.4,34.333,28.958,28.958,0,0,1-34.333-22.4,28.986,28.986,0,0,1,22.4-34.332,29.151,29.151,0,0,1,6-.627m0-.647a29.637,29.637,0,1,0,28.97,23.539,29.733,29.733,0,0,0-28.97-23.539" transform="translate(-17.519 -5.21)" fill="#ffd715"/>
        <path id="Контур_2399"  d="M141.11,53.476a23.2,23.2,0,0,0,37.644,25.051A23.2,23.2,0,1,1,141.11,53.476" transform="translate(-18.406 -7.353)" fill="#fcbd11"/>
        <path id="Контур_2400"  d="M176.971,65.757a18.493,18.493,0,0,0-34.762-4.207,18.494,18.494,0,1,1,34.255,13.734,18.41,18.41,0,0,0,.507-9.526" transform="translate(-19.554 -6.706)" fill="#ffdb53"/>
        <path id="Контур_2401"  d="M136.011,73.305A22.638,22.638,0,1,0,153.5,46.492,22.638,22.638,0,0,0,136.011,73.305Z" transform="translate(-18.635 -6.326)" fill="none" stroke="#ffe36e" stroke-linecap="round" stroke-linejoin="round" stroke-width="0.75" stroke-dasharray="6 6"/>
        <g id="Сгруппировать_823"  transform="translate(125.07 47.017)" opacity="0.1">
          <g id="Сгруппировать_822" >
            <g id="Сгруппировать_821"  clip-path="url(#clip-path-5)">
              <path id="Контур_2402"  d="M158.364,65.247a.671.671,0,0,1,.637.208l9.213,10.209c.009.01.015.022.023.033s.026.037.039.057a.731.731,0,0,1,.063.124.488.488,0,0,1,.021.06.654.654,0,0,1,.024.178c0,.008,0,.014,0,.022v0a.66.66,0,0,1-.032.181.141.141,0,0,1-.009.02c-.007.019-.016.035-.025.053a.656.656,0,0,1-.073.123.507.507,0,0,1-.045.052.656.656,0,0,1-.105.091c-.017.012-.034.025-.053.036a.656.656,0,0,1-.191.075l-13.533,2.846a.626.626,0,0,1-.138.015.681.681,0,0,1-.167-.023c-.016,0-.031-.01-.047-.016a.684.684,0,0,1-.112-.05c-.015-.009-.029-.016-.043-.025a.675.675,0,0,1-.121-.1l-.009-.009h0a.678.678,0,0,1-.1-.152l0-.005c0-.008,0-.017-.007-.025a.666.666,0,0,1-.047-.166.576.576,0,0,1-.005-.067.641.641,0,0,1,.007-.135c0-.024.008-.047.014-.071s0-.025.007-.038l4.32-13.056a.671.671,0,0,1,.5-.447m1.307,2.956,1.109,5.272,4.882,1.366Zm1.14,8.678,4.08-.858-4.526-1.267-3.633,2.983Zm-1.346-3.127-1.107-5.268-2.807,8.483Z" transform="translate(-146.179 -55.987)"/>
              <path id="Контур_2403"  d="M145.285,82.185a1.675,1.675,0,0,1,1.069-.731,1.482,1.482,0,0,1,.194-.021l7.93-23.97a1.692,1.692,0,0,1-.53-.911h0a1.691,1.691,0,1,1,3.19.349l16.911,18.739c.041-.012.079-.029.122-.039a1.691,1.691,0,0,1,.7,3.31,1.741,1.741,0,0,1-.352.036,1.674,1.674,0,0,1-.92-.275,1.7,1.7,0,0,1-.455-.439l-24.784,5.213a1.69,1.69,0,1,1-3.071-1.263M174.18,77.33a.348.348,0,1,0,.267-.411.345.345,0,0,0-.267.411m-18.238-21.2a.345.345,0,0,0-.338-.275.4.4,0,0,0-.072.007.348.348,0,0,0-.268.411.334.334,0,0,0,.164.214c.025.005.05.009.075.016a.658.658,0,0,1,.071.032.359.359,0,0,0,.1.005.364.364,0,0,0,.1-.041.643.643,0,0,1,.046-.062.539.539,0,0,1,.074-.044l0,0a.342.342,0,0,0,.048-.26m-7.862,26,24.784-5.214a1.694,1.694,0,0,1,.151-.417L156.138,57.8a1.751,1.751,0,0,1-.187.06,1.843,1.843,0,0,1-.195.02l-7.931,23.973a1.634,1.634,0,0,1,.254.279m-1.717,1.048a.347.347,0,1,0,.339-.418.328.328,0,0,0-.071.008.347.347,0,0,0-.268.411" transform="translate(-145.009 -54.513)"/>
            </g>
          </g>
        </g>
        <path id="Контур_2404"  d="M158.584,64.6a.671.671,0,0,1,.637.208l9.213,10.209c.009.01.015.022.023.033s.026.037.039.057a.732.732,0,0,1,.063.124.484.484,0,0,1,.021.06.654.654,0,0,1,.024.178c0,.008,0,.014,0,.022v0a.661.661,0,0,1-.032.181.14.14,0,0,1-.009.02c-.007.019-.016.035-.025.053a.655.655,0,0,1-.073.123.506.506,0,0,1-.045.052.656.656,0,0,1-.105.091c-.017.012-.034.025-.053.036a.656.656,0,0,1-.191.075L154.542,78.97a.639.639,0,0,1-.139.015.681.681,0,0,1-.167-.023c-.016,0-.031-.01-.047-.016a.684.684,0,0,1-.112-.05c-.015-.009-.029-.016-.043-.025a.676.676,0,0,1-.121-.1l-.009-.009h0a.679.679,0,0,1-.1-.152l0-.005c0-.008,0-.017-.007-.025a.667.667,0,0,1-.047-.166.576.576,0,0,1-.005-.067.64.64,0,0,1,.007-.135c0-.024.008-.047.014-.071s0-.025.007-.038l4.32-13.056a.671.671,0,0,1,.5-.447m1.307,2.956L161,72.826l4.882,1.366Zm1.14,8.678,4.08-.858-4.526-1.267-3.633,2.983ZM159.685,73.1l-1.107-5.268-2.807,8.483Z" transform="translate(-21.139 -8.881)" fill="#ffdb53"/>
        <path id="Контур_2405"  d="M145.505,81.536a1.675,1.675,0,0,1,1.069-.731,1.482,1.482,0,0,1,.194-.021l7.93-23.97a1.691,1.691,0,0,1-.53-.911h0a1.691,1.691,0,1,1,3.189.349l16.911,18.739c.041-.012.079-.029.122-.039a1.691,1.691,0,0,1,.7,3.31,1.741,1.741,0,0,1-.352.036,1.674,1.674,0,0,1-.92-.275,1.7,1.7,0,0,1-.455-.439L148.577,82.8a1.69,1.69,0,1,1-3.071-1.263M174.4,76.681a.348.348,0,1,0,.267-.411.345.345,0,0,0-.267.411m-18.238-21.2a.345.345,0,0,0-.338-.275.4.4,0,0,0-.072.007.348.348,0,0,0-.268.411.334.334,0,0,0,.164.214c.025.005.05.009.075.016a.655.655,0,0,1,.071.032.359.359,0,0,0,.1.005.365.365,0,0,0,.1-.041.635.635,0,0,1,.046-.062.541.541,0,0,1,.074-.044l0,0a.342.342,0,0,0,.048-.26m-7.862,26,24.784-5.214a1.7,1.7,0,0,1,.151-.417l-16.876-18.7a1.748,1.748,0,0,1-.187.06,1.841,1.841,0,0,1-.195.02L148.045,81.2a1.634,1.634,0,0,1,.254.279m-1.717,1.048a.347.347,0,1,0,.339-.418.329.329,0,0,0-.071.008.347.347,0,0,0-.268.411" transform="translate(-19.97 -7.407)" fill="#ffdb53"/>
        <path id="Контур_2406"  d="M91.521,4.968h30.056C121.577,2.5,120.051.5,118.17.5H98.545" transform="translate(-12.585 -0.069)" fill="#676593"/>
        <path id="Контур_2407"  d="M91.521,4.968h30.056C121.577,2.5,120.051.5,118.17.5H98.545" transform="translate(-12.585 -0.069)" fill="none" stroke="#282b38" stroke-linecap="round" stroke-linejoin="round" stroke-width="1"/>
        <path id="Контур_2408"  d="M117.87.5a2.354,2.354,0,0,0-2.45,2.245V38.484a3.6,3.6,0,0,1-3.743,3.429H87.311V2.745A2.354,2.354,0,0,1,89.761.5H117.87Z" transform="translate(-12.006 -0.069)" fill="#e1e7ff"/>
        <path id="Контур_2409"  d="M105.985,43.334a4.469,4.469,0,0,0,4.469,4.469H86.722a4.469,4.469,0,0,1-4.469-4.469Z" transform="translate(-11.31 -5.959)" fill="#676593"/>
        <path id="Контур_2410"  d="M105.985,43.334a4.469,4.469,0,0,0,4.469,4.469H86.722a4.469,4.469,0,0,1-4.469-4.469Z" transform="translate(-11.31 -5.959)" fill="none" stroke="#282b38" stroke-linecap="round" stroke-linejoin="round" stroke-width="1"/>
        <path id="Контур_2411"  d="M96.666,10.048a.326.326,0,0,0-.125-.274,1.5,1.5,0,0,0-.45-.194,2.184,2.184,0,0,1-.518-.218.693.693,0,0,1-.368-.6.655.655,0,0,1,.266-.536,1.07,1.07,0,0,1,.689-.211,1.166,1.166,0,0,1,.5.1.817.817,0,0,1,.346.3.753.753,0,0,1,.126.423h-.467a.425.425,0,0,0-.132-.33.549.549,0,0,0-.379-.119.57.57,0,0,0-.356.1.327.327,0,0,0-.127.274A.3.3,0,0,0,95.809,9a1.6,1.6,0,0,0,.452.192,2.086,2.086,0,0,1,.5.212.818.818,0,0,1,.279.274.723.723,0,0,1,.089.362.641.641,0,0,1-.258.536,1.12,1.12,0,0,1-.7.2,1.316,1.316,0,0,1-.538-.109.9.9,0,0,1-.381-.3.745.745,0,0,1-.135-.444h.468a.438.438,0,0,0,.151.356.667.667,0,0,0,.436.126.583.583,0,0,0,.367-.1.32.32,0,0,0,.122-.262" transform="translate(-13.08 -1.102)"/>
        <path id="Контур_2412"  d="M98.935,8.054l.777,2.066.775-2.066h.6v2.694h-.466V9.86l.047-1.188-.8,2.076h-.335l-.794-2.074.047,1.186v.888h-.467V8.054Z" transform="translate(-13.52 -1.107)"/>
        <path id="Контур_2413"  d="M104.077,10.12h-1.043l-.219.627h-.486l1.018-2.694h.42l1.019,2.694H104.3Zm-.912-.377h.781l-.39-1.118Z" transform="translate(-14.071 -1.107)"/>
        <path id="Контур_2414"  d="M106.917,9.712H106.4v1.037h-.467V8.054h.947a1.1,1.1,0,0,1,.719.21.741.741,0,0,1,.254.605.757.757,0,0,1-.13.453.834.834,0,0,1-.363.281l.6,1.121v.024h-.5Zm-.522-.377h.481a.54.54,0,0,0,.371-.119.421.421,0,0,0,.133-.327.445.445,0,0,0-.123-.336.521.521,0,0,0-.367-.122H106.4Z" transform="translate(-14.566 -1.107)"/>
        <path id="Контур_2415"  d="M110.874,8.432h-.84v2.317h-.465V8.432h-.832V8.054h2.137Z" transform="translate(-14.952 -1.107)"/>
        <path id="Контур_2416"  d="M92.75,15.515a.965.965,0,0,1-.318.672,1.084,1.084,0,0,1-.738.243,1.039,1.039,0,0,1-.568-.154,1,1,0,0,1-.379-.433,1.564,1.564,0,0,1-.138-.653v-.253a1.577,1.577,0,0,1,.135-.671,1,1,0,0,1,.388-.448,1.069,1.069,0,0,1,.584-.158,1.044,1.044,0,0,1,.718.241,1.012,1.012,0,0,1,.317.684h-.467a.67.67,0,0,0-.169-.42.56.56,0,0,0-.4-.129.551.551,0,0,0-.469.223,1.11,1.11,0,0,0-.167.655v.238a1.182,1.182,0,0,0,.156.668.519.519,0,0,0,.458.229.607.607,0,0,0,.414-.122.643.643,0,0,0,.176-.413Z" transform="translate(-12.459 -1.878)"/>
        <path id="Контур_2417"  d="M96.108,15.115a1.666,1.666,0,0,1-.137.7,1.03,1.03,0,0,1-.392.459,1.071,1.071,0,0,1-.586.16,1.083,1.083,0,0,1-.585-.16,1.069,1.069,0,0,1-.4-.456,1.622,1.622,0,0,1-.141-.682v-.153a1.624,1.624,0,0,1,.141-.7,1.04,1.04,0,0,1,.394-.461,1.071,1.071,0,0,1,.584-.16,1.087,1.087,0,0,1,.584.158,1.038,1.038,0,0,1,.392.455,1.621,1.621,0,0,1,.141.692Zm-.468-.141a1.185,1.185,0,0,0-.169-.687.6.6,0,0,0-.956,0,1.155,1.155,0,0,0-.174.673v.155a1.159,1.159,0,0,0,.173.687.556.556,0,0,0,.48.242.551.551,0,0,0,.479-.236,1.205,1.205,0,0,0,.167-.693Z" transform="translate(-12.908 -1.878)"/>
        <path id="Контур_2418"  d="M99.537,16.4H99.07l-1.2-1.911V16.4H97.4V13.7h.468l1.2,1.919V13.7h.465Z" transform="translate(-13.393 -1.884)"/>
        <path id="Контур_2419"  d="M102.769,14.081h-.84V16.4h-.465V14.081h-.832V13.7h2.137Z" transform="translate(-13.837 -1.884)"/>
        <path id="Контур_2420"  d="M104.905,15.362h-.522V16.4h-.467V13.7h.947a1.1,1.1,0,0,1,.719.21.741.741,0,0,1,.254.605.757.757,0,0,1-.13.453.834.834,0,0,1-.363.281l.6,1.121V16.4h-.5Zm-.522-.377h.481a.54.54,0,0,0,.371-.119.421.421,0,0,0,.133-.327.445.445,0,0,0-.123-.336.521.521,0,0,0-.367-.122h-.494Z" transform="translate(-14.289 -1.884)"/>
        <path id="Контур_2421"  d="M108.522,15.77H107.48l-.219.627h-.486l1.018-2.694h.42l1.019,2.694h-.488Zm-.912-.377h.781L108,14.276Z" transform="translate(-14.682 -1.884)"/>
        <path id="Контур_2422"  d="M112.37,15.515a.965.965,0,0,1-.318.672,1.084,1.084,0,0,1-.738.243,1.039,1.039,0,0,1-.568-.154,1,1,0,0,1-.379-.433,1.564,1.564,0,0,1-.138-.653v-.253a1.577,1.577,0,0,1,.135-.671,1,1,0,0,1,.388-.448,1.069,1.069,0,0,1,.584-.158,1.044,1.044,0,0,1,.718.241,1.012,1.012,0,0,1,.317.684H111.9a.67.67,0,0,0-.169-.42.56.56,0,0,0-.4-.129.551.551,0,0,0-.469.223,1.11,1.11,0,0,0-.167.655v.238a1.182,1.182,0,0,0,.156.668.519.519,0,0,0,.458.229.607.607,0,0,0,.414-.122.643.643,0,0,0,.176-.413Z" transform="translate(-15.157 -1.878)"/>
        <path id="Контур_2423"  d="M115.445,14.081h-.84V16.4h-.465V14.081h-.832V13.7h2.137Z" transform="translate(-15.58 -1.884)"/>
        <path id="Контур_2424"  d="M92.687,24.231a1.191,1.191,0,0,1-.156.681.649.649,0,0,1-.975.005,1.13,1.13,0,0,1-.163-.65v-.348a1.169,1.169,0,0,1,.156-.673.561.561,0,0,1,.491-.219.568.568,0,0,1,.487.211,1.123,1.123,0,0,1,.16.655Zm-.26-.356a.954.954,0,0,0-.093-.482.319.319,0,0,0-.294-.152.315.315,0,0,0-.292.152.931.931,0,0,0-.094.463v.417a.965.965,0,0,0,.1.491.32.32,0,0,0,.292.16.313.313,0,0,0,.286-.151.922.922,0,0,0,.1-.47Z" transform="translate(-12.567 -3.166)" fill="#42475f"/>
        <path id="Контур_2425"  d="M94.654,25.11h-.262V23.373l-.525.193v-.237l.747-.28h.041Z" transform="translate(-12.907 -3.169)" fill="#42475f"/>
        <path id="Контур_2426"  d="M97.456,24.231a1.191,1.191,0,0,1-.156.681.649.649,0,0,1-.975.005,1.13,1.13,0,0,1-.163-.65v-.348a1.169,1.169,0,0,1,.156-.673.561.561,0,0,1,.491-.219.567.567,0,0,1,.487.211,1.123,1.123,0,0,1,.16.655Zm-.26-.356a.954.954,0,0,0-.093-.482.319.319,0,0,0-.294-.152.315.315,0,0,0-.292.152.931.931,0,0,0-.094.463v.417a.965.965,0,0,0,.1.491.32.32,0,0,0,.292.16.313.313,0,0,0,.286-.151.922.922,0,0,0,.1-.47Z" transform="translate(-13.223 -3.166)" fill="#42475f"/>
        <path id="Контур_2427"  d="M99.424,25.11h-.262V23.373l-.525.193v-.237l.747-.28h.041Z" transform="translate(-13.563 -3.169)" fill="#42475f"/>
        <path id="Контур_2428"  d="M102.226,24.231a1.191,1.191,0,0,1-.156.681.649.649,0,0,1-.975.005,1.13,1.13,0,0,1-.163-.65v-.348a1.169,1.169,0,0,1,.156-.673.561.561,0,0,1,.491-.219.567.567,0,0,1,.487.211,1.123,1.123,0,0,1,.16.655Zm-.26-.356a.954.954,0,0,0-.093-.482.319.319,0,0,0-.294-.152.315.315,0,0,0-.292.152.931.931,0,0,0-.094.463v.417a.964.964,0,0,0,.1.491.32.32,0,0,0,.292.16.313.313,0,0,0,.286-.151.922.922,0,0,0,.1-.47Z" transform="translate(-13.878 -3.166)" fill="#42475f"/>
        <path id="Контур_2429"  d="M104.611,24.231a1.191,1.191,0,0,1-.156.681.649.649,0,0,1-.975.005,1.13,1.13,0,0,1-.163-.65v-.348a1.169,1.169,0,0,1,.156-.673.561.561,0,0,1,.491-.219.567.567,0,0,1,.487.211,1.123,1.123,0,0,1,.16.655Zm-.26-.356a.954.954,0,0,0-.093-.482.319.319,0,0,0-.294-.152.315.315,0,0,0-.292.152.931.931,0,0,0-.094.463v.417a.964.964,0,0,0,.1.491.32.32,0,0,0,.292.16.313.313,0,0,0,.286-.151.922.922,0,0,0,.1-.47Z" transform="translate(-14.206 -3.166)" fill="#42475f"/>
        <path id="Контур_2430"  d="M107,24.231a1.191,1.191,0,0,1-.156.681.649.649,0,0,1-.975.005,1.13,1.13,0,0,1-.163-.65v-.348a1.169,1.169,0,0,1,.156-.673.561.561,0,0,1,.491-.219.568.568,0,0,1,.487.211,1.123,1.123,0,0,1,.16.655Zm-.26-.356a.954.954,0,0,0-.093-.482.319.319,0,0,0-.294-.152.315.315,0,0,0-.292.152.931.931,0,0,0-.094.463v.417a.965.965,0,0,0,.1.491.32.32,0,0,0,.292.16.313.313,0,0,0,.286-.151.922.922,0,0,0,.1-.47Z" transform="translate(-14.534 -3.166)" fill="#42475f"/>
        <path id="Контур_2431"  d="M108.963,25.11H108.7V23.373l-.525.193v-.237l.747-.28h.041Z" transform="translate(-14.875 -3.169)" fill="#42475f"/>
        <path id="Контур_2432"  d="M111.765,24.231a1.191,1.191,0,0,1-.156.681.649.649,0,0,1-.975.005,1.13,1.13,0,0,1-.163-.65v-.348a1.169,1.169,0,0,1,.156-.673.561.561,0,0,1,.491-.219.568.568,0,0,1,.487.211,1.123,1.123,0,0,1,.16.655Zm-.26-.356a.954.954,0,0,0-.093-.482.319.319,0,0,0-.294-.152.315.315,0,0,0-.292.152.931.931,0,0,0-.094.463v.417a.964.964,0,0,0,.1.491.32.32,0,0,0,.292.16.313.313,0,0,0,.286-.151.922.922,0,0,0,.1-.47Z" transform="translate(-15.19 -3.166)" fill="#42475f"/>
        <path id="Контур_2433"  d="M113.732,25.11h-.262V23.373l-.525.193v-.237l.747-.28h.041Z" transform="translate(-15.53 -3.169)" fill="#42475f"/>
        <path id="Контур_2434"  d="M92.687,28.413a1.191,1.191,0,0,1-.156.681.651.651,0,0,1-.975.005,1.13,1.13,0,0,1-.163-.65V28.1a1.167,1.167,0,0,1,.156-.673.662.662,0,0,1,.978-.008,1.123,1.123,0,0,1,.16.655Zm-.26-.356a.955.955,0,0,0-.093-.483.32.32,0,0,0-.294-.151.316.316,0,0,0-.292.151.935.935,0,0,0-.094.463v.417a.968.968,0,0,0,.1.492.32.32,0,0,0,.292.159.314.314,0,0,0,.286-.15.924.924,0,0,0,.1-.47Z" transform="translate(-12.567 -3.741)" fill="#42475f"/>
        <path id="Контур_2435"  d="M94.654,29.291h-.262V27.554l-.525.193V27.51l.747-.28h.041Z" transform="translate(-12.907 -3.744)" fill="#42475f"/>
        <path id="Контур_2436"  d="M97.456,28.413a1.191,1.191,0,0,1-.156.681.651.651,0,0,1-.975.005,1.13,1.13,0,0,1-.163-.65V28.1a1.167,1.167,0,0,1,.156-.673.662.662,0,0,1,.978-.008,1.123,1.123,0,0,1,.16.655Zm-.26-.356a.955.955,0,0,0-.093-.483.32.32,0,0,0-.294-.151.316.316,0,0,0-.292.151.935.935,0,0,0-.094.463v.417a.968.968,0,0,0,.1.492.32.32,0,0,0,.292.159.314.314,0,0,0,.286-.15.924.924,0,0,0,.1-.47Z" transform="translate(-13.223 -3.741)" fill="#42475f"/>
        <path id="Контур_2437"  d="M99.424,29.291h-.262V27.554l-.525.193V27.51l.747-.28h.041Z" transform="translate(-13.563 -3.744)" fill="#42475f"/>
        <path id="Контур_2438"  d="M102.226,28.413a1.191,1.191,0,0,1-.156.681.651.651,0,0,1-.975.005,1.13,1.13,0,0,1-.163-.65V28.1a1.167,1.167,0,0,1,.156-.673.662.662,0,0,1,.978-.008,1.123,1.123,0,0,1,.16.655Zm-.26-.356a.955.955,0,0,0-.093-.483.32.32,0,0,0-.294-.151.316.316,0,0,0-.292.151.935.935,0,0,0-.094.463v.417a.968.968,0,0,0,.1.492.32.32,0,0,0,.292.159.314.314,0,0,0,.286-.15.924.924,0,0,0,.1-.47Z" transform="translate(-13.878 -3.741)" fill="#42475f"/>
        <path id="Контур_2439"  d="M104.193,29.291h-.262V27.554l-.525.193V27.51l.747-.28h.041Z" transform="translate(-14.219 -3.744)" fill="#42475f"/>
        <path id="Контур_2440"  d="M107,28.413a1.191,1.191,0,0,1-.156.681.651.651,0,0,1-.975.005,1.13,1.13,0,0,1-.163-.65V28.1a1.167,1.167,0,0,1,.156-.673.662.662,0,0,1,.978-.008,1.123,1.123,0,0,1,.16.655Zm-.26-.356a.955.955,0,0,0-.093-.483.32.32,0,0,0-.294-.151.316.316,0,0,0-.292.151.936.936,0,0,0-.094.463v.417a.968.968,0,0,0,.1.492.32.32,0,0,0,.292.159.314.314,0,0,0,.286-.15.924.924,0,0,0,.1-.47Z" transform="translate(-14.534 -3.741)" fill="#42475f"/>
        <path id="Контур_2441"  d="M109.381,28.413a1.2,1.2,0,0,1-.156.681.652.652,0,0,1-.976.005,1.13,1.13,0,0,1-.162-.65V28.1a1.167,1.167,0,0,1,.156-.673.661.661,0,0,1,.977-.008,1.123,1.123,0,0,1,.161.655Zm-.26-.356a.954.954,0,0,0-.094-.483.36.36,0,0,0-.587,0,.945.945,0,0,0-.094.463v.417a.968.968,0,0,0,.1.492.322.322,0,0,0,.293.159.314.314,0,0,0,.286-.15.934.934,0,0,0,.1-.47Z" transform="translate(-14.862 -3.741)" fill="#42475f"/>
        <path id="Контур_2442"  d="M111.765,28.413a1.191,1.191,0,0,1-.156.681.651.651,0,0,1-.975.005,1.13,1.13,0,0,1-.163-.65V28.1a1.167,1.167,0,0,1,.156-.673.662.662,0,0,1,.978-.008,1.123,1.123,0,0,1,.16.655Zm-.26-.356a.955.955,0,0,0-.093-.483.32.32,0,0,0-.294-.151.316.316,0,0,0-.292.151.935.935,0,0,0-.094.463v.417a.968.968,0,0,0,.1.492.32.32,0,0,0,.292.159.314.314,0,0,0,.286-.15.924.924,0,0,0,.1-.47Z" transform="translate(-15.19 -3.741)" fill="#42475f"/>
        <path id="Контур_2443"  d="M114.15,28.413a1.191,1.191,0,0,1-.156.681.651.651,0,0,1-.975.005,1.13,1.13,0,0,1-.163-.65V28.1a1.167,1.167,0,0,1,.156-.673.662.662,0,0,1,.978-.008,1.123,1.123,0,0,1,.16.655Zm-.26-.356a.955.955,0,0,0-.093-.483.32.32,0,0,0-.294-.151.316.316,0,0,0-.292.151.935.935,0,0,0-.094.463v.417a.968.968,0,0,0,.1.492.32.32,0,0,0,.292.159.314.314,0,0,0,.286-.15.924.924,0,0,0,.1-.47Z" transform="translate(-15.518 -3.741)" fill="#42475f"/>
        <path id="Контур_2444"  d="M92.269,33.474h-.262V31.737l-.525.193v-.237l.747-.28h.041Z" transform="translate(-12.579 -4.319)" fill="#42475f"/>
        <path id="Контур_2445"  d="M95.071,32.6a1.191,1.191,0,0,1-.156.681.651.651,0,0,1-.975.005,1.13,1.13,0,0,1-.163-.65v-.348a1.167,1.167,0,0,1,.156-.673.662.662,0,0,1,.978-.008,1.123,1.123,0,0,1,.16.655Zm-.26-.356a.955.955,0,0,0-.093-.483.32.32,0,0,0-.294-.151.316.316,0,0,0-.292.151.936.936,0,0,0-.094.463v.417a.968.968,0,0,0,.1.492.32.32,0,0,0,.292.159.314.314,0,0,0,.286-.15.925.925,0,0,0,.1-.47Z" transform="translate(-12.895 -4.316)" fill="#42475f"/>
        <path id="Контур_2446"  d="M97.039,33.474h-.262V31.737l-.525.193v-.237l.747-.28h.041Z" transform="translate(-13.235 -4.319)" fill="#42475f"/>
        <path id="Контур_2447"  d="M99.841,32.6a1.191,1.191,0,0,1-.156.681.651.651,0,0,1-.975.005,1.13,1.13,0,0,1-.163-.65v-.348a1.167,1.167,0,0,1,.156-.673.662.662,0,0,1,.978-.008,1.123,1.123,0,0,1,.16.655Zm-.26-.356a.955.955,0,0,0-.093-.483.32.32,0,0,0-.294-.151.316.316,0,0,0-.292.151.935.935,0,0,0-.094.463v.417a.968.968,0,0,0,.1.492.32.32,0,0,0,.292.159.314.314,0,0,0,.286-.15.924.924,0,0,0,.1-.47Z" transform="translate(-13.551 -4.316)" fill="#42475f"/>
        <path id="Контур_2448"  d="M102.226,32.6a1.191,1.191,0,0,1-.156.681.651.651,0,0,1-.975.005,1.13,1.13,0,0,1-.163-.65v-.348a1.167,1.167,0,0,1,.156-.673.662.662,0,0,1,.978-.008,1.123,1.123,0,0,1,.16.655Zm-.26-.356a.955.955,0,0,0-.093-.483.32.32,0,0,0-.294-.151.316.316,0,0,0-.292.151.935.935,0,0,0-.094.463v.417a.968.968,0,0,0,.1.492.32.32,0,0,0,.292.159.314.314,0,0,0,.286-.15.924.924,0,0,0,.1-.47Z" transform="translate(-13.878 -4.316)" fill="#42475f"/>
        <path id="Контур_2449"  d="M104.611,32.6a1.191,1.191,0,0,1-.156.681.651.651,0,0,1-.975.005,1.13,1.13,0,0,1-.163-.65v-.348a1.167,1.167,0,0,1,.156-.673.662.662,0,0,1,.978-.008,1.123,1.123,0,0,1,.16.655Zm-.26-.356a.955.955,0,0,0-.093-.483.32.32,0,0,0-.294-.151.316.316,0,0,0-.292.151.936.936,0,0,0-.094.463v.417a.968.968,0,0,0,.1.492.32.32,0,0,0,.292.159.314.314,0,0,0,.286-.15.924.924,0,0,0,.1-.47Z" transform="translate(-14.206 -4.316)" fill="#42475f"/>
        <path id="Контур_2450"  d="M107,32.6a1.191,1.191,0,0,1-.156.681.651.651,0,0,1-.975.005,1.13,1.13,0,0,1-.163-.65v-.348a1.167,1.167,0,0,1,.156-.673.662.662,0,0,1,.978-.008,1.123,1.123,0,0,1,.16.655Zm-.26-.356a.955.955,0,0,0-.093-.483.32.32,0,0,0-.294-.151.316.316,0,0,0-.292.151.936.936,0,0,0-.094.463v.417a.968.968,0,0,0,.1.492.32.32,0,0,0,.292.159.314.314,0,0,0,.286-.15.925.925,0,0,0,.1-.47Z" transform="translate(-14.534 -4.316)" fill="#42475f"/>
        <path id="Контур_2451"  d="M108.963,33.474H108.7V31.737l-.525.193v-.237l.747-.28h.041Z" transform="translate(-14.875 -4.319)" fill="#42475f"/>
        <path id="Контур_2452"  d="M111.765,32.6a1.191,1.191,0,0,1-.156.681.651.651,0,0,1-.975.005,1.13,1.13,0,0,1-.163-.65v-.348a1.167,1.167,0,0,1,.156-.673.662.662,0,0,1,.978-.008,1.123,1.123,0,0,1,.16.655Zm-.26-.356a.955.955,0,0,0-.093-.483.32.32,0,0,0-.294-.151.316.316,0,0,0-.292.151.935.935,0,0,0-.094.463v.417a.968.968,0,0,0,.1.492.32.32,0,0,0,.292.159.314.314,0,0,0,.286-.15.925.925,0,0,0,.1-.47Z" transform="translate(-15.19 -4.316)" fill="#42475f"/>
        <path id="Контур_2453"  d="M114.15,32.6a1.191,1.191,0,0,1-.156.681.651.651,0,0,1-.975.005,1.13,1.13,0,0,1-.163-.65v-.348a1.167,1.167,0,0,1,.156-.673.662.662,0,0,1,.978-.008,1.123,1.123,0,0,1,.16.655Zm-.26-.356a.955.955,0,0,0-.093-.483.32.32,0,0,0-.294-.151.316.316,0,0,0-.292.151.935.935,0,0,0-.094.463v.417a.968.968,0,0,0,.1.492.32.32,0,0,0,.292.159.314.314,0,0,0,.286-.15.924.924,0,0,0,.1-.47Z" transform="translate(-15.518 -4.316)" fill="#42475f"/>
        <path id="Контур_2454"  d="M231.17,76.453a1.664,1.664,0,1,0,2.354,0A1.664,1.664,0,0,0,231.17,76.453Z" transform="translate(-31.72 -10.446)" fill="none" stroke="#b5d1e6" stroke-linecap="round" stroke-linejoin="round" stroke-width="0.5"/>
        <path id="Контур_2455"  d="M240.254,71.182a10.405,10.405,0,0,0-18.182,0" transform="translate(-30.536 -9.054)" fill="none" stroke="#b5d1e6" stroke-linecap="round" stroke-linejoin="round" stroke-width="0.5"/>
        <path id="Контур_2456"  d="M238.766,73.331a8.025,8.025,0,0,0-14.642,0" transform="translate(-30.818 -9.432)" fill="none" stroke="#b5d1e6" stroke-linecap="round" stroke-linejoin="round" stroke-width="0.5"/>
        <path id="Контур_2457"  d="M237.2,75.567a5.648,5.648,0,0,0-10.928,0" transform="translate(-31.114 -9.811)" fill="none" stroke="#b5d1e6" stroke-linecap="round" stroke-linejoin="round" stroke-width="0.5"/>
        <line id="Линия_181"  y2="11.118" transform="translate(200.533 71.342)" fill="none" stroke="#b5d1e6" stroke-linecap="round" stroke-linejoin="round" stroke-width="0.5"/>
        <path id="Контур_2458"  d="M168.551,136.758c4.383-8.966,32.963-28.513,32.963-28.513L203.7,111l.043-.043,6.3,7.648s-25.261,25.109-35.7,26.488c-2.872.38-5.313-2.753-6.208-5.306a2.931,2.931,0,0,1,.41-3.027" transform="translate(-23.081 -14.884)" fill="#ff6b20"/>
        <path id="Контур_2459"  d="M168.551,136.758c4.383-8.966,32.963-28.513,32.963-28.513L203.7,111l.043-.043,6.3,7.648s-25.261,25.109-35.7,26.488c-2.872.38-5.313-2.753-6.208-5.306A2.931,2.931,0,0,1,168.551,136.758Z" transform="translate(-23.081 -14.884)" fill="none" stroke="#fff" stroke-miterlimit="10" stroke-width="0.5"/>
        <rect id="Прямоугольник_965"  width="2.685" height="4.13" transform="matrix(0.772, -0.636, 0.636, 0.772, 179.959, 89.694)" fill="#ff6b25"/>
        <rect id="Прямоугольник_966"  width="2.685" height="4.13" transform="matrix(0.772, -0.636, 0.636, 0.772, 179.959, 89.694)" fill="none" stroke="#fff" stroke-miterlimit="10" stroke-width="0.5"/>
        <rect id="Прямоугольник_967"  width="10.118" height="13.422" transform="matrix(0.772, -0.636, 0.636, 0.772, 178.274, 93.493)" fill="#ff6b20"/>
        <rect id="Прямоугольник_968"  width="10.118" height="13.422" transform="matrix(0.772, -0.636, 0.636, 0.772, 178.274, 93.493)" fill="none" stroke="#fff" stroke-miterlimit="10" stroke-width="0.5"/>
        <rect id="Прямоугольник_969"  width="3.097" height="1.446" transform="translate(179.274 89.188) rotate(-39.503)" fill="#f98d62"/>
        <rect id="Прямоугольник_970"  width="3.097" height="1.446" transform="translate(179.274 89.188) rotate(-39.503)" fill="none" stroke="#fff" stroke-miterlimit="10" stroke-width="0.5"/>
        <path id="Контур_2460"  d="M217.588,105.166a13.086,13.086,0,0,1,23.959-10.517c.037.076.072.155.107.237.075.171.145.342.212.513,4.849,11.809,5.556,20.332,11.752,35.029l.765,1.743.286.654c6.626,14.509,12.42,20.8,17.83,32.36.081.166.16.334.234.5.037.08.07.159.1.235a13.085,13.085,0,0,1-23.959,10.517c-.036-.074-.072-.152-.105-.233q-.113-.256-.212-.513c-4.849-11.809-5.556-20.331-11.752-35.029l-.286-.654-.766-1.743c-6.625-14.509-12.419-20.8-17.83-32.36q-.122-.248-.235-.5c-.037-.081-.071-.161-.1-.24" transform="translate(-29.781 -11.971)" fill="#ff6b25"/>
        <path id="Контур_2461"  d="M217.588,105.166a13.086,13.086,0,0,1,23.959-10.517c.037.076.072.155.107.237.075.171.145.342.212.513,4.849,11.809,5.556,20.332,11.752,35.029l.765,1.743.286.654c6.626,14.509,12.42,20.8,17.83,32.36.081.166.16.334.234.5.037.08.07.159.1.235a13.085,13.085,0,0,1-23.959,10.517c-.036-.074-.072-.152-.105-.233q-.113-.256-.212-.513c-4.849-11.809-5.556-20.331-11.752-35.029l-.286-.654-.766-1.743c-6.625-14.509-12.419-20.8-17.83-32.36q-.122-.248-.235-.5C217.653,105.325,217.619,105.244,217.588,105.166Z" transform="translate(-29.781 -11.971)" fill="none" stroke="#fff" stroke-miterlimit="10" stroke-width="0.5"/>
        <path id="Контур_2462"  d="M240.145,96.34a10.944,10.944,0,1,1-14.419-5.623,10.944,10.944,0,0,1,14.419,5.623" transform="translate(-30.138 -12.347)" fill="#0a0e0d"/>
        <path id="Контур_2463"  d="M240.145,96.34a10.944,10.944,0,1,1-14.419-5.623A10.944,10.944,0,0,1,240.145,96.34Z" transform="translate(-30.138 -12.347)" fill="none" stroke="#fff" stroke-miterlimit="10" stroke-width="0.5"/>
        <path id="Контур_2464"  d="M245.2,121.139c.475,1.082-1.285,2.9-3.932,4.065s-5.178,1.226-5.654.143,1.285-2.9,3.932-4.065,5.178-1.226,5.654-.143" transform="translate(-32.387 -16.551)" fill="#f98d62"/>
        <path id="Контур_2465"  d="M245.2,121.139c.475,1.082-1.285,2.9-3.932,4.065s-5.178,1.226-5.654.143,1.285-2.9,3.932-4.065S244.724,120.057,245.2,121.139Z" transform="translate(-32.387 -16.551)" fill="none" stroke="#fff" stroke-miterlimit="10" stroke-width="0.5"/>
        <path id="Контур_2466"  d="M259.5,153.723c.475,1.082-1.285,2.9-3.932,4.065s-5.178,1.226-5.654.143,1.285-2.9,3.932-4.065,5.178-1.226,5.654-.143" transform="translate(-34.354 -21.031)" fill="#f98d62"/>
        <path id="Контур_2467"  d="M259.5,153.723c.475,1.082-1.285,2.9-3.932,4.065s-5.178,1.226-5.654.143,1.285-2.9,3.932-4.065S259.028,152.641,259.5,153.723Z" transform="translate(-34.354 -21.031)" fill="none" stroke="#fff" stroke-miterlimit="10" stroke-width="0.5"/>
        <path id="Контур_2468"  d="M280.3,196.628c-2.855-1.9-.678-10.585-1.564-17.3a12.857,12.857,0,0,0-.276-1.678c-.019-.1-.036-.2-.059-.3a7.654,7.654,0,0,0-.694-1.939c-2.293-5.2-7.951-8.886-14.574-8.886-8.653,0-15.667,6.285-15.667,14.037a12.671,12.671,0,0,0,.154,1.941c.625,6.063,10.792,20.542,10.792,20.542h20.461l1.189-6.424" transform="translate(-34.028 -22.899)" fill="#f98d62"/>
        <path id="Контур_2469"  d="M280.3,196.628c-2.855-1.9-.678-10.585-1.564-17.3a12.857,12.857,0,0,0-.276-1.678c-.019-.1-.036-.2-.059-.3a7.654,7.654,0,0,0-.694-1.939c-2.293-5.2-7.951-8.886-14.574-8.886-8.653,0-15.667,6.285-15.667,14.037a12.671,12.671,0,0,0,.154,1.941c.625,6.063,10.792,20.542,10.792,20.542h20.461l1.189-6.424" transform="translate(-34.028 -22.899)" fill="none" stroke="#fff" stroke-miterlimit="10" stroke-width="0.5"/>
        <path id="Контур_2470"  d="M276.643,195.047c-.76-1.628.736-6.659-.058-13.371a13.91,13.91,0,0,0-.248-1.678c-.017-.1-.033-.2-.052-.3a8.222,8.222,0,0,0-.623-1.939,14.035,14.035,0,0,0-26.958,7.091c.561,6.063,4.616,10.375,3.75,12.816-.534,1.505-3.767,1.686-3.767,1.686l.713,6.041h30.692l.238-8.446c-2.261,0-2.856-.119-3.688-1.9" transform="translate(-34.179 -23.221)" fill="#ff6b25"/>
        <path id="Контур_2471"  d="M276.643,195.047c-.76-1.628.736-6.659-.058-13.371a13.91,13.91,0,0,0-.248-1.678c-.017-.1-.033-.2-.052-.3a8.222,8.222,0,0,0-.623-1.939,14.035,14.035,0,0,0-26.958,7.091c.561,6.063,4.616,10.375,3.75,12.816-.534,1.505-3.767,1.686-3.767,1.686l.713,6.041h30.692l.238-8.446C278.071,196.95,277.476,196.831,276.643,195.047Z" transform="translate(-34.179 -23.221)" fill="none" stroke="#fff" stroke-miterlimit="10" stroke-width="0.5"/>
        <path id="Контур_2472"  d="M279.512,234.059h-28.55l-1.427-22.841h30.692Z" transform="translate(-34.312 -29.043)" fill="#0a0e0d"/>
        <path id="Контур_2473"  d="M279.512,234.059h-28.55l-1.427-22.841h30.692Z" transform="translate(-34.312 -29.043)" fill="none" stroke="#fff" stroke-miterlimit="10" stroke-width="0.5"/>
        <path id="Контур_2474"  d="M274.043,183.406A10.944,10.944,0,1,1,263.1,172.462a10.944,10.944,0,0,1,10.944,10.944" transform="translate(-34.672 -23.714)" fill="#0a0e0d"/>
        <circle id="Эллипс_130"  cx="10.944" cy="10.944" r="10.944" transform="translate(217.482 148.747)" fill="none" stroke="#fff" stroke-miterlimit="10" stroke-width="0.5"/>
        <path id="Контур_2475"  d="M272,203.843c0,1.182-2.343,2.142-5.234,2.142s-5.234-.959-5.234-2.142,2.343-2.142,5.234-2.142,5.234.959,5.234,2.142" transform="translate(-35.962 -27.735)" fill="#f98d62"/>
        <path id="Контур_2476"  d="M272,203.843c0,1.182-2.343,2.142-5.234,2.142s-5.234-.959-5.234-2.142,2.343-2.142,5.234-2.142S272,202.66,272,203.843Z" transform="translate(-35.962 -27.735)" fill="none" stroke="#fff" stroke-miterlimit="10" stroke-width="0.5"/>
        <path id="Контур_2477"  d="M168.551,136.758c4.383-8.966,32.963-28.513,32.963-28.513L203.7,111l.043-.043,6.3,7.648s-25.261,25.109-35.7,26.488c-2.872.38-5.313-2.753-6.208-5.306a2.931,2.931,0,0,1,.41-3.027" transform="translate(-23.081 -14.884)" fill="#ff6b20"/>
        <path id="Контур_2478"  d="M168.551,136.758c4.383-8.966,32.963-28.513,32.963-28.513L203.7,111l.043-.043,6.3,7.648s-25.261,25.109-35.7,26.488c-2.872.38-5.313-2.753-6.208-5.306A2.931,2.931,0,0,1,168.551,136.758Z" transform="translate(-23.081 -14.884)" fill="none" stroke="#000" stroke-miterlimit="10" stroke-width="0.5"/>
        <rect id="Прямоугольник_971"  width="2.685" height="4.13" transform="matrix(0.772, -0.636, 0.636, 0.772, 179.959, 89.694)" fill="#ff6b25"/>
        <rect id="Прямоугольник_972"  width="2.685" height="4.13" transform="matrix(0.772, -0.636, 0.636, 0.772, 179.959, 89.694)" fill="none" stroke="#000" stroke-miterlimit="10" stroke-width="0.5"/>
        <rect id="Прямоугольник_973"  width="10.118" height="13.422" transform="matrix(0.772, -0.636, 0.636, 0.772, 178.274, 93.493)" fill="#ff6b20"/>
        <rect id="Прямоугольник_974"  width="10.118" height="13.422" transform="matrix(0.772, -0.636, 0.636, 0.772, 178.274, 93.493)" fill="none" stroke="#000" stroke-miterlimit="10" stroke-width="0.5"/>
        <rect id="Прямоугольник_975"  width="3.097" height="1.446" transform="translate(179.274 89.188) rotate(-39.503)" fill="#f98d62"/>
        <rect id="Прямоугольник_976"  width="3.097" height="1.446" transform="translate(179.274 89.188) rotate(-39.503)" fill="none" stroke="#000" stroke-miterlimit="10" stroke-width="0.5"/>
        <rect id="Прямоугольник_977"  width="12.803" height="9.086" transform="matrix(0.772, -0.636, 0.636, 0.772, 148.764, 125.515)" fill="#f4d706"/>
        <rect id="Прямоугольник_978"  width="12.803" height="9.086" transform="matrix(0.772, -0.636, 0.636, 0.772, 148.764, 125.515)" fill="none" stroke="#000" stroke-miterlimit="10" stroke-width="0.5"/>
        <path id="Контур_2479"  d="M217.588,105.166a13.086,13.086,0,0,1,23.959-10.517c.037.076.072.155.107.237.075.171.145.342.212.513,4.849,11.809,5.556,20.332,11.752,35.029l.765,1.743.286.654c6.626,14.509,12.42,20.8,17.83,32.36.081.166.16.334.234.5.037.08.07.159.1.235a13.085,13.085,0,0,1-23.959,10.517c-.036-.074-.072-.152-.105-.233q-.113-.256-.212-.513c-4.849-11.809-5.556-20.331-11.752-35.029l-.286-.654-.766-1.743c-6.625-14.509-12.419-20.8-17.83-32.36q-.122-.248-.235-.5c-.037-.081-.071-.161-.1-.24" transform="translate(-29.781 -11.971)" fill="#ff6b25"/>
        <path id="Контур_2480"  d="M217.588,105.166a13.086,13.086,0,0,1,23.959-10.517c.037.076.072.155.107.237.075.171.145.342.212.513,4.849,11.809,5.556,20.332,11.752,35.029l.765,1.743.286.654c6.626,14.509,12.42,20.8,17.83,32.36.081.166.16.334.234.5.037.08.07.159.1.235a13.085,13.085,0,0,1-23.959,10.517c-.036-.074-.072-.152-.105-.233q-.113-.256-.212-.513c-4.849-11.809-5.556-20.331-11.752-35.029l-.286-.654-.766-1.743c-6.625-14.509-12.419-20.8-17.83-32.36q-.122-.248-.235-.5C217.653,105.325,217.619,105.244,217.588,105.166Z" transform="translate(-29.781 -11.971)" fill="none" stroke="#000" stroke-miterlimit="10" stroke-width="0.5"/>
        <path id="Контур_2481"  d="M239.666,123.537a4.7,4.7,0,0,1,8.6-3.776c.013.027.026.055.038.085.027.061.053.122.077.184,1.741,4.24,1.995,7.3,4.219,12.577l.274.626.1.235c2.379,5.209,4.459,7.467,6.4,11.619.029.06.057.12.085.181.013.028.025.056.035.085a4.7,4.7,0,0,1-8.6,3.776c-.014-.027-.026-.055-.038-.084-.027-.061-.053-.123-.077-.185-1.741-4.24-1.995-7.3-4.219-12.577l-.1-.235-.275-.625c-2.379-5.209-4.459-7.467-6.4-11.62-.029-.059-.057-.119-.084-.18h0c-.013-.029-.025-.058-.036-.086" transform="translate(-32.905 -16.093)" fill="#f98d62"/>
        <path id="Контур_2482"  d="M240.145,96.34a10.944,10.944,0,1,1-14.419-5.623,10.944,10.944,0,0,1,14.419,5.623" transform="translate(-30.138 -12.347)" fill="#0a0e0d"/>
        <path id="Контур_2483"  d="M240.145,96.34a10.944,10.944,0,1,1-14.419-5.623A10.944,10.944,0,0,1,240.145,96.34Z" transform="translate(-30.138 -12.347)" fill="none" stroke="#000" stroke-miterlimit="10" stroke-width="0.5"/>
        <path id="Контур_2484"  d="M280.3,196.628c-2.855-1.9-.678-10.585-1.564-17.3a12.857,12.857,0,0,0-.276-1.678c-.019-.1-.036-.2-.059-.3a7.654,7.654,0,0,0-.694-1.939c-2.293-5.2-7.951-8.886-14.574-8.886-8.653,0-15.667,6.285-15.667,14.037a12.671,12.671,0,0,0,.154,1.941c.625,6.063,10.792,20.542,10.792,20.542h20.461l1.189-6.424" transform="translate(-34.028 -22.899)" fill="#f98d62"/>
        <path id="Контур_2485"  d="M280.3,196.628c-2.855-1.9-.678-10.585-1.564-17.3a12.857,12.857,0,0,0-.276-1.678c-.019-.1-.036-.2-.059-.3a7.654,7.654,0,0,0-.694-1.939c-2.293-5.2-7.951-8.886-14.574-8.886-8.653,0-15.667,6.285-15.667,14.037a12.671,12.671,0,0,0,.154,1.941c.625,6.063,10.792,20.542,10.792,20.542h20.461l1.189-6.424" transform="translate(-34.028 -22.899)" fill="none" stroke="#000" stroke-miterlimit="10" stroke-width="0.5"/>
        <path id="Контур_2486"  d="M276.643,195.047c-.76-1.628.736-6.659-.058-13.371a13.91,13.91,0,0,0-.248-1.678c-.017-.1-.033-.2-.052-.3a8.222,8.222,0,0,0-.623-1.939,14.035,14.035,0,0,0-26.958,7.091c.561,6.063,4.616,10.375,3.75,12.816-.534,1.505-3.767,1.686-3.767,1.686l.713,6.041h30.692l.238-8.446c-2.261,0-2.856-.119-3.688-1.9" transform="translate(-34.179 -23.221)" fill="#ff6b25"/>
        <path id="Контур_2487"  d="M276.643,195.047c-.76-1.628.736-6.659-.058-13.371a13.91,13.91,0,0,0-.248-1.678c-.017-.1-.033-.2-.052-.3a8.222,8.222,0,0,0-.623-1.939,14.035,14.035,0,0,0-26.958,7.091c.561,6.063,4.616,10.375,3.75,12.816-.534,1.505-3.767,1.686-3.767,1.686l.713,6.041h30.692l.238-8.446C278.071,196.95,277.476,196.831,276.643,195.047Z" transform="translate(-34.179 -23.221)" fill="none" stroke="#000" stroke-miterlimit="10" stroke-width="0.5"/>
        <path id="Контур_2488"  d="M279.512,234.059h-28.55l-1.427-22.841h30.692Z" transform="translate(-34.312 -29.043)" fill="#0a0e0d"/>
        <path id="Контур_2489"  d="M279.512,234.059h-28.55l-1.427-22.841h30.692Z" transform="translate(-34.312 -29.043)" fill="none" stroke="#000" stroke-miterlimit="10" stroke-width="0.5"/>
        <path id="Контур_2490"  d="M274.043,183.406A10.944,10.944,0,1,1,263.1,172.462a10.944,10.944,0,0,1,10.944,10.944" transform="translate(-34.672 -23.714)" fill="#0a0e0d"/>
        <circle id="Эллипс_131"  cx="10.944" cy="10.944" r="10.944" transform="translate(217.482 148.747)" fill="none" stroke="#000" stroke-miterlimit="10" stroke-width="0.5"/>
        <path id="Контур_2491"  d="M272,203.843c0,1.182-2.343,2.142-5.234,2.142s-5.234-.959-5.234-2.142,2.343-2.142,5.234-2.142,5.234.959,5.234,2.142" transform="translate(-35.962 -27.735)" fill="#f98d62"/>
        <rect id="Прямоугольник_979"  width="62.103" height="8.595" transform="translate(0.216 196.577)" fill="#ffb300"/>
        <rect id="Прямоугольник_980"  width="62.103" height="8.595" transform="translate(0.216 196.577)" fill="none" stroke="#000" stroke-miterlimit="10" stroke-width="0.5"/>
        <rect id="Прямоугольник_981"  width="51.237" height="8.595" transform="translate(206.547 196.577)" fill="#7c4025"/>
        <rect id="Прямоугольник_982"  width="51.237" height="8.595" transform="translate(206.547 196.577)" fill="none" stroke="#000" stroke-miterlimit="10" stroke-width="0.5"/>
        <path id="Контур_2492"  d="M65.444,113.979A13.753,13.753,0,1,0,51.69,100.225a13.754,13.754,0,0,0,13.754,13.753" transform="translate(-7.108 -11.89)" fill="#ffd500"/>
        <path id="Контур_2493"  d="M65.444,113.979A13.753,13.753,0,1,0,51.69,100.225,13.754,13.754,0,0,0,65.444,113.979Z" transform="translate(-7.108 -11.89)" fill="none" stroke="#000" stroke-miterlimit="10" stroke-width="0.5"/>
        <path id="Контур_2494"  d="M66.56,94.586a6.755,6.755,0,1,0,6.755,6.755,6.755,6.755,0,0,0-6.755-6.755" transform="translate(-8.223 -13.006)" fill="#4d4d4d"/>
        <circle id="Эллипс_132"  cx="6.755" cy="6.755" r="6.755" transform="translate(51.582 81.58)" fill="none" stroke="#000" stroke-miterlimit="10" stroke-width="0.5"/>
        <path id="Контур_2495"  d="M71.978,101.594a5.165,5.165,0,1,1-5.165-5.165,5.171,5.171,0,0,1,5.165,5.165" transform="translate(-8.477 -13.259)" fill="#2e2f2e"/>
        <path id="Контур_2496"  d="M71.978,101.594a5.165,5.165,0,1,1-5.165-5.165A5.171,5.171,0,0,1,71.978,101.594Z" transform="translate(-8.477 -13.259)" fill="none" stroke="#000" stroke-miterlimit="10" stroke-width="0.5"/>
        <rect id="Прямоугольник_983"  width="40.608" height="2.14" transform="translate(10.817 194.438)" fill="#676868"/>
        <rect id="Прямоугольник_984"  width="40.608" height="2.14" transform="translate(10.817 194.438)" fill="none" stroke="#000" stroke-miterlimit="10" stroke-width="0.5"/>
        <rect id="Прямоугольник_985"  width="44.076" height="2.146" transform="translate(9.44 185.851)" fill="#ffb300"/>
        <rect id="Прямоугольник_986"  width="44.076" height="2.146" transform="translate(9.44 185.851)" fill="none" stroke="#000" stroke-miterlimit="10" stroke-width="0.5"/>
        <rect id="Прямоугольник_987"  width="44.076" height="2.147" transform="translate(9.44 192.29)" fill="#0a0e0d"/>
        <rect id="Прямоугольник_988"  width="44.076" height="2.147" transform="translate(9.44 192.29)" fill="none" stroke="#000" stroke-miterlimit="10" stroke-width="0.5"/>
        <rect id="Прямоугольник_989"  width="40.714" height="2.146" transform="translate(10.537 190.145)" fill="#676868"/>
        <rect id="Прямоугольник_990"  width="40.714" height="2.146" transform="translate(10.537 190.145)" fill="none" stroke="#000" stroke-miterlimit="10" stroke-width="0.5"/>
        <rect id="Прямоугольник_991"  width="44.076" height="2.148" transform="translate(9.44 187.997)" fill="#0a0e0d"/>
        <rect id="Прямоугольник_992"  width="44.076" height="2.148" transform="translate(9.44 187.997)" fill="none" stroke="#000" stroke-miterlimit="10" stroke-width="0.5"/>
        <path id="Контур_2497"  d="M141.254,156.41s8.313,1.979,7.363,3.757-5.783-.549-5.783-.549-3.117-1.338-2.982-1.969a1.813,1.813,0,0,1,1.4-1.239" transform="translate(-19.23 -21.507)" fill="#b5c0f1"/>
        <path id="Контур_2498"  d="M141.254,156.41s8.313,1.979,7.363,3.757-5.783-.549-5.783-.549-3.117-1.338-2.982-1.969A1.813,1.813,0,0,1,141.254,156.41Z" transform="translate(-19.23 -21.507)" fill="none" stroke="#000" stroke-miterlimit="10" stroke-width="0.5"/>
      </g>
    </g>
  </g>
</svg>
