<svg id="Сгруппировать_645" data-name="Сгруппировать 645" xmlns="http://www.w3.org/2000/svg" xmlns:xlink="http://www.w3.org/1999/xlink" width="197.467" height="203.657" viewBox="0 0 197.467 203.657">
  <defs>
    <clipPath id="clip-path">
      <rect id="Прямоугольник_696" data-name="Прямоугольник 696" width="197.467" height="203.657" fill="none"/>
    </clipPath>
  </defs>
  <g id="Сгруппировать_642" data-name="Сгруппировать 642">
    <g id="Сгруппировать_641" data-name="Сгруппировать 641" clip-path="url(#clip-path)">
      <text id="_010100" data-name="010100" transform="translate(155.475 7.886)" fill="#00bdff" font-size="9.218" font-family="RobotoMono-Regular, Roboto Mono"><tspan x="0" y="0" letter-spacing="0.099em">01010</tspan><tspan y="0">0</tspan></text>
    </g>
  </g>
  <text id="_101010" data-name="101010" transform="translate(155.475 18.948)" fill="#00bdff" font-size="9.218" font-family="RobotoMono-Regular, Roboto Mono"><tspan x="0" y="0" letter-spacing="0.099em">10101</tspan><tspan y="0">0</tspan></text>
  <text id="_100101" data-name="100101" transform="translate(155.475 30.01)" fill="#00bdff" font-size="9.218" font-family="RobotoMono-Regular, Roboto Mono"><tspan x="0" y="0" letter-spacing="0.099em">10010</tspan><tspan y="0">1</tspan></text>
  <g id="Сгруппировать_644" data-name="Сгруппировать 644">
    <g id="Сгруппировать_643" data-name="Сгруппировать 643" clip-path="url(#clip-path)">
      <path id="Контур_1046" data-name="Контур 1046" d="M34.189,75.771a2.017,2.017,0,0,0,0,2.979,2.35,2.35,0,0,0,3.173,0,2.015,2.015,0,0,0,0-2.979A2.35,2.35,0,0,0,34.189,75.771Z" fill="none" stroke="#333" stroke-linecap="round" stroke-linejoin="round" stroke-width="0.5"/>
      <path id="Контур_1047" data-name="Контур 1047" d="M48.034,70.861a13.256,13.256,0,0,0-2.341-2.909,14.7,14.7,0,0,0-19.834,0,13.256,13.256,0,0,0-2.341,2.909" fill="none" stroke="#333" stroke-linecap="round" stroke-linejoin="round" stroke-width="0.5"/>
      <path id="Контур_1048" data-name="Контур 1048" d="M45.646,73.1a10.107,10.107,0,0,0-2.221-3.022,11.339,11.339,0,0,0-15.3,0A10.119,10.119,0,0,0,25.9,73.1" fill="none" stroke="#333" stroke-linecap="round" stroke-linejoin="round" stroke-width="0.5"/>
      <path id="Контур_1049" data-name="Контур 1049" d="M43.143,75.453a7.014,7.014,0,0,0-1.984-3.245,7.969,7.969,0,0,0-10.767,0,7.02,7.02,0,0,0-1.983,3.245" fill="none" stroke="#333" stroke-linecap="round" stroke-linejoin="round" stroke-width="0.5"/>
      <line id="Линия_84" data-name="Линия 84" y2="14.069" transform="translate(35.648 82.522)" fill="none" stroke="#333" stroke-linecap="round" stroke-linejoin="round" stroke-width="0.5"/>
      <path id="Контур_1050" data-name="Контур 1050" d="M47.55,171.008l.418-19.979H46.486v3.722H44.94v-3.722H43.457l.418,19.979H44.94v4.853a1.657,1.657,0,0,0,0,2.947v.4a1.657,1.657,0,0,0,0,2.947v.4a1.657,1.657,0,0,0,0,2.947v.4a1.657,1.657,0,0,0,0,2.947v.4a1.657,1.657,0,0,0,0,2.947v.4a1.657,1.657,0,0,0,0,2.947v.4a1.657,1.657,0,0,0,0,2.947v.79a6.978,6.978,0,0,0-.9,3.125c0,1.173,3.343,1.173,3.343,0a6.989,6.989,0,0,0-.9-3.125v-.79a1.658,1.658,0,0,0,0-2.947v-.4a1.658,1.658,0,0,0,0-2.947v-.4a1.658,1.658,0,0,0,0-2.947v-.4a1.658,1.658,0,0,0,0-2.947v-.4a1.658,1.658,0,0,0,0-2.947v-.4a1.658,1.658,0,0,0,0-2.947v-.4a1.658,1.658,0,0,0,0-2.947v-4.853Z" fill="#7a779f"/>
      <path id="Контур_1051" data-name="Контур 1051" d="M27.592,171.008l.418-19.979H26.528v3.722H24.982v-3.722H23.5l.418,19.979h1.065v4.853a1.657,1.657,0,0,0,0,2.947v.4a1.657,1.657,0,0,0,0,2.947v.4a1.657,1.657,0,0,0,0,2.947v.4a1.657,1.657,0,0,0,0,2.947v.4a1.657,1.657,0,0,0,0,2.947v.4a1.657,1.657,0,0,0,0,2.947v.4a1.657,1.657,0,0,0,0,2.947v.79a6.978,6.978,0,0,0-.9,3.125c0,1.173,3.343,1.173,3.343,0a6.989,6.989,0,0,0-.9-3.125v-.79a1.658,1.658,0,0,0,0-2.947v-.4a1.658,1.658,0,0,0,0-2.947v-.4a1.658,1.658,0,0,0,0-2.947v-.4a1.658,1.658,0,0,0,0-2.947v-.4a1.658,1.658,0,0,0,0-2.947v-.4a1.658,1.658,0,0,0,0-2.947v-.4a1.658,1.658,0,0,0,0-2.947v-4.853Z" fill="#7a779f"/>
      <path id="Контур_1052" data-name="Контур 1052" d="M37.6,171.008l.418-19.979H36.533v3.722H34.987v-3.722H33.5l.418,19.979h1.065v4.853a1.657,1.657,0,0,0,0,2.947v.4a1.657,1.657,0,0,0,0,2.947v.4a1.657,1.657,0,0,0,0,2.947v.4a1.657,1.657,0,0,0,0,2.947v.4a1.657,1.657,0,0,0,0,2.947v.4a1.657,1.657,0,0,0,0,2.947v.4a1.657,1.657,0,0,0,0,2.947v.79a6.978,6.978,0,0,0-.9,3.125c0,1.173,3.343,1.173,3.343,0a6.989,6.989,0,0,0-.9-3.125v-.79a1.658,1.658,0,0,0,0-2.947v-.4a1.658,1.658,0,0,0,0-2.947v-.4a1.658,1.658,0,0,0,0-2.947v-.4a1.658,1.658,0,0,0,0-2.947v-.4a1.658,1.658,0,0,0,0-2.947v-.4a1.658,1.658,0,0,0,0-2.947v-.4a1.658,1.658,0,0,0,0-2.947v-4.853Z" fill="#7a779f"/>
      <rect id="Прямоугольник_697" data-name="Прямоугольник 697" width="5.005" height="22.898" transform="translate(33.231 175.677)" fill="#7a779f"/>
      <rect id="Прямоугольник_698" data-name="Прямоугольник 698" width="49.055" height="10.144" transform="translate(11.206 154.388)" fill="#5168a7"/>
      <rect id="Прямоугольник_699" data-name="Прямоугольник 699" width="49.055" height="10.144" transform="translate(11.206 154.388)" fill="none" stroke="#000" stroke-miterlimit="10" stroke-width="0.5"/>
      <rect id="Прямоугольник_700" data-name="Прямоугольник 700" width="6.98" height="3.207" transform="translate(36.445 141.679)" fill="#3a3a38"/>
      <path id="Контур_1053" data-name="Контур 1053" d="M38.233,118a83.939,83.939,0,0,0-.972-9.616l-.48-19.193a1.159,1.159,0,0,0-2.318.014l-.287,19.831a83.133,83.133,0,0,0-.87,8.964v28.381H38.33Z" fill="#008fd1"/>
      <path id="Контур_1054" data-name="Контур 1054" d="M38.233,118a83.939,83.939,0,0,0-.972-9.616l-.48-19.193a1.159,1.159,0,0,0-2.318.014l-.287,19.831a83.133,83.133,0,0,0-.87,8.964v28.381H38.33Z" fill="none" stroke="#008fd1" stroke-miterlimit="10" stroke-width="0.5"/>
      <rect id="Прямоугольник_701" data-name="Прямоугольник 701" width="11.866" height="8.376" transform="translate(29.365 98.371) rotate(-0.109)" fill="#e9510e"/>
      <rect id="Прямоугольник_702" data-name="Прямоугольник 702" width="11.866" height="8.376" transform="translate(29.365 98.371) rotate(-0.109)" fill="none" stroke="#000" stroke-miterlimit="10" stroke-width="0.5"/>
      <rect id="Прямоугольник_703" data-name="Прямоугольник 703" width="8.376" height="3.49" transform="translate(62.489 116.125) rotate(-0.109)" fill="#008fd1"/>
      <rect id="Прямоугольник_704" data-name="Прямоугольник 704" width="8.376" height="11.866" transform="translate(59.689 111.942) rotate(-0.109)" fill="#e9510e"/>
      <rect id="Прямоугольник_705" data-name="Прямоугольник 705" width="8.376" height="11.866" transform="translate(59.689 111.942) rotate(-0.109)" fill="none" stroke="#000" stroke-miterlimit="10" stroke-width="0.5"/>
      <rect id="Прямоугольник_706" data-name="Прямоугольник 706" width="8.376" height="3.49" transform="matrix(1, -0.002, 0.002, 1, 0, 116.13)" fill="#008fd1"/>
      <rect id="Прямоугольник_707" data-name="Прямоугольник 707" width="8.376" height="11.866" transform="translate(2.784 111.937) rotate(-0.109)" fill="#e9510e"/>
      <rect id="Прямоугольник_708" data-name="Прямоугольник 708" width="8.376" height="11.866" transform="translate(2.784 111.937) rotate(-0.109)" fill="none" stroke="#000" stroke-miterlimit="10" stroke-width="0.5"/>
      <path id="Контур_1055" data-name="Контур 1055" d="M11.4,156.613H60.066a4.713,4.713,0,0,0,4.713-4.713V106.026a4.713,4.713,0,0,0-4.713-4.713H11.4a4.713,4.713,0,0,0-4.713,4.713V151.9a4.713,4.713,0,0,0,4.713,4.713" fill="#2f4784"/>
      <rect id="Прямоугольник_709" data-name="Прямоугольник 709" width="58.092" height="55.3" rx="4.713" transform="translate(6.687 101.313)" fill="none" stroke="#000" stroke-miterlimit="10" stroke-width="0.5"/>
      <path id="Контур_1056" data-name="Контур 1056" d="M17.57,151.73H53.9a4.819,4.819,0,0,0,4.819-4.818v-35.9a4.819,4.819,0,0,0-4.819-4.818H17.57a4.818,4.818,0,0,0-4.818,4.818v35.9a4.818,4.818,0,0,0,4.818,4.818" fill="#e9510e"/>
      <path id="Прямоугольник_710" data-name="Прямоугольник 710" d="M4.818,0H41.145a4.819,4.819,0,0,1,4.819,4.819v35.9a4.819,4.819,0,0,1-4.819,4.819H4.818A4.818,4.818,0,0,1,0,40.717V4.818A4.818,4.818,0,0,1,4.818,0Z" transform="translate(12.752 106.195)" fill="none" stroke="#000" stroke-miterlimit="10" stroke-width="0.5"/>
      <path id="Контур_1057" data-name="Контур 1057" d="M49.208,146.753H22.259a4.483,4.483,0,0,1-4.483-4.483V115.656a4.483,4.483,0,0,1,4.483-4.483H49.208a4.483,4.483,0,0,1,4.483,4.483V142.27a4.483,4.483,0,0,1-4.483,4.483" fill="#131d3a"/>
      <rect id="Прямоугольник_711" data-name="Прямоугольник 711" width="35.915" height="35.58" rx="4.483" transform="translate(17.776 111.173)" fill="none" stroke="#000" stroke-miterlimit="10" stroke-width="0.5"/>
      <rect id="Прямоугольник_712" data-name="Прямоугольник 712" width="12.401" height="12.401" transform="translate(29.611 122.915)" fill="none" stroke="#fff" stroke-linecap="round" stroke-linejoin="round" stroke-width="0.5"/>
      <rect id="Прямоугольник_713" data-name="Прямоугольник 713" width="5.684" height="5.684" transform="translate(31.792 129.116) rotate(-45)" fill="none" stroke="#fff" stroke-linecap="round" stroke-linejoin="round" stroke-width="0.5"/>
      <circle id="Эллипс_103" data-name="Эллипс 103" cx="1.55" cy="1.55" r="1.55" transform="translate(46.276 115.552)" fill="none" stroke="#fff" stroke-linecap="round" stroke-linejoin="round" stroke-width="0.5"/>
      <line id="Линия_85" data-name="Линия 85" y1="4.724" x2="4.726" transform="translate(42.012 118.191)" fill="none" stroke="#fff" stroke-linecap="round" stroke-linejoin="round" stroke-width="0.5"/>
      <circle id="Эллипс_104" data-name="Эллипс 104" cx="1.55" cy="1.55" r="1.55" transform="translate(22.377 115.552)" fill="none" stroke="#fff" stroke-linecap="round" stroke-linejoin="round" stroke-width="0.5"/>
      <line id="Линия_86" data-name="Линия 86" x1="4.726" y1="4.724" transform="translate(25.014 118.191)" fill="none" stroke="#fff" stroke-linecap="round" stroke-linejoin="round" stroke-width="0.5"/>
      <circle id="Эллипс_105" data-name="Эллипс 105" cx="1.55" cy="1.55" r="1.55" transform="translate(46.276 139.579)" fill="none" stroke="#fff" stroke-linecap="round" stroke-linejoin="round" stroke-width="0.5"/>
      <line id="Линия_87" data-name="Линия 87" x2="4.726" y2="4.724" transform="translate(42.012 135.316)" fill="none" stroke="#fff" stroke-linecap="round" stroke-linejoin="round" stroke-width="0.5"/>
      <circle id="Эллипс_106" data-name="Эллипс 106" cx="1.55" cy="1.55" r="1.55" transform="translate(22.377 139.579)" fill="none" stroke="#fff" stroke-linecap="round" stroke-linejoin="round" stroke-width="0.5"/>
      <line id="Линия_88" data-name="Линия 88" x1="4.726" y2="4.724" transform="translate(25.014 135.316)" fill="none" stroke="#fff" stroke-linecap="round" stroke-linejoin="round" stroke-width="0.5"/>
      <path id="Контур_1058" data-name="Контур 1058" d="M33.221,119.475a3.7,3.7,0,0,1,5.724-.13" fill="none" stroke="#fff" stroke-linecap="round" stroke-linejoin="round" stroke-width="0.5"/>
      <path id="Контур_1059" data-name="Контур 1059" d="M31.914,118.29a5.4,5.4,0,0,1,8.338-.189" fill="none" stroke="#fff" stroke-linecap="round" stroke-linejoin="round" stroke-width="0.5"/>
      <path id="Контур_1060" data-name="Контур 1060" d="M26.351,132.069a3.7,3.7,0,0,1-.13-5.724" fill="none" stroke="#fff" stroke-linecap="round" stroke-linejoin="round" stroke-width="0.5"/>
      <path id="Контур_1061" data-name="Контур 1061" d="M25.166,133.376a5.4,5.4,0,0,1-.189-8.338" fill="none" stroke="#fff" stroke-linecap="round" stroke-linejoin="round" stroke-width="0.5"/>
      <path id="Контур_1062" data-name="Контур 1062" d="M38.945,138.939a3.7,3.7,0,0,1-5.724.13" fill="none" stroke="#fff" stroke-linecap="round" stroke-linejoin="round" stroke-width="0.5"/>
      <path id="Контур_1063" data-name="Контур 1063" d="M40.252,140.124a5.4,5.4,0,0,1-8.338.189" fill="none" stroke="#fff" stroke-linecap="round" stroke-linejoin="round" stroke-width="0.5"/>
      <path id="Контур_1064" data-name="Контур 1064" d="M45.815,126.345a3.7,3.7,0,0,1,.13,5.724" fill="none" stroke="#fff" stroke-linecap="round" stroke-linejoin="round" stroke-width="0.5"/>
      <path id="Контур_1065" data-name="Контур 1065" d="M47,125.038a5.4,5.4,0,0,1,.189,8.338" fill="none" stroke="#fff" stroke-linecap="round" stroke-linejoin="round" stroke-width="0.5"/>
      <path id="Контур_1066" data-name="Контур 1066" d="M121.632,23.871a2.017,2.017,0,0,0,0,2.979,2.35,2.35,0,0,0,3.173,0,2.015,2.015,0,0,0,0-2.979A2.35,2.35,0,0,0,121.632,23.871Z" fill="none" stroke="#00bdff" stroke-miterlimit="10" stroke-width="0.5"/>
      <path id="Контур_1067" data-name="Контур 1067" d="M135.477,18.961a13.257,13.257,0,0,0-2.341-2.909,14.7,14.7,0,0,0-19.834,0,13.256,13.256,0,0,0-2.341,2.909" fill="none" stroke="#00bdff" stroke-miterlimit="10" stroke-width="0.5"/>
      <path id="Контур_1068" data-name="Контур 1068" d="M133.09,21.2a10.107,10.107,0,0,0-2.221-3.022,11.339,11.339,0,0,0-15.3,0,10.119,10.119,0,0,0-2.221,3.022" fill="none" stroke="#00bdff" stroke-miterlimit="10" stroke-width="0.5"/>
      <path id="Контур_1069" data-name="Контур 1069" d="M130.586,23.552a7.014,7.014,0,0,0-1.984-3.245,7.969,7.969,0,0,0-10.767,0,7.02,7.02,0,0,0-1.983,3.245" fill="none" stroke="#00bdff" stroke-miterlimit="10" stroke-width="0.5"/>
      <line id="Линия_89" data-name="Линия 89" y2="14.069" transform="translate(123.091 30.621)" fill="#f2f2f2"/>
      <line id="Линия_90" data-name="Линия 90" y2="14.069" transform="translate(123.091 30.621)" fill="none" stroke="#00bdff" stroke-miterlimit="10" stroke-width="0.5"/>
      <path id="Контур_1070" data-name="Контур 1070" d="M134.993,119.107l.418-19.979h-1.482v3.722h-1.546V99.128H130.9l.418,19.979h1.065v4.853a1.657,1.657,0,0,0,0,2.947v.4a1.657,1.657,0,0,0,0,2.947v.4a1.657,1.657,0,0,0,0,2.947v.4a1.657,1.657,0,0,0,0,2.947v.4a1.657,1.657,0,0,0,0,2.947v.4a1.657,1.657,0,0,0,0,2.947v.4a1.657,1.657,0,0,0,0,2.947v.79a6.978,6.978,0,0,0-.9,3.125c0,1.173,3.343,1.173,3.343,0a6.989,6.989,0,0,0-.9-3.125v-.79a1.658,1.658,0,0,0,0-2.947v-.4a1.658,1.658,0,0,0,0-2.947v-.4a1.658,1.658,0,0,0,0-2.947v-.4a1.658,1.658,0,0,0,0-2.947v-.4a1.658,1.658,0,0,0,0-2.947v-.4a1.658,1.658,0,0,0,0-2.947v-.4a1.658,1.658,0,0,0,0-2.947v-4.853Z" fill="#f2f2f2"/>
      <path id="Контур_1071" data-name="Контур 1071" d="M134.993,119.107l.418-19.979h-1.482v3.722h-1.546V99.128H130.9l.418,19.979h1.065v4.853a1.657,1.657,0,0,0,0,2.947v.4a1.657,1.657,0,0,0,0,2.947v.4a1.657,1.657,0,0,0,0,2.947v.4a1.657,1.657,0,0,0,0,2.947v.4a1.657,1.657,0,0,0,0,2.947v.4a1.657,1.657,0,0,0,0,2.947v.4a1.657,1.657,0,0,0,0,2.947v.79a6.978,6.978,0,0,0-.9,3.125c0,1.173,3.343,1.173,3.343,0a6.989,6.989,0,0,0-.9-3.125v-.79a1.658,1.658,0,0,0,0-2.947v-.4a1.658,1.658,0,0,0,0-2.947v-.4a1.658,1.658,0,0,0,0-2.947v-.4a1.658,1.658,0,0,0,0-2.947v-.4a1.658,1.658,0,0,0,0-2.947v-.4a1.658,1.658,0,0,0,0-2.947v-.4a1.658,1.658,0,0,0,0-2.947v-4.853Z" fill="none" stroke="#00bdff" stroke-miterlimit="10" stroke-width="0.5"/>
      <path id="Контур_1072" data-name="Контур 1072" d="M115.035,119.107l.418-19.979h-1.482v3.722h-1.546V99.128h-1.483l.418,19.979h1.065v4.853a1.657,1.657,0,0,0,0,2.947v.4a1.657,1.657,0,0,0,0,2.947v.4a1.657,1.657,0,0,0,0,2.947v.4a1.657,1.657,0,0,0,0,2.947v.4a1.657,1.657,0,0,0,0,2.947v.4a1.657,1.657,0,0,0,0,2.947v.4a1.657,1.657,0,0,0,0,2.947v.79a6.978,6.978,0,0,0-.9,3.125c0,1.173,3.343,1.173,3.343,0a6.989,6.989,0,0,0-.9-3.125v-.79a1.658,1.658,0,0,0,0-2.947v-.4a1.658,1.658,0,0,0,0-2.947v-.4a1.658,1.658,0,0,0,0-2.947v-.4a1.658,1.658,0,0,0,0-2.947v-.4a1.658,1.658,0,0,0,0-2.947v-.4a1.658,1.658,0,0,0,0-2.947v-.4a1.658,1.658,0,0,0,0-2.947v-4.853Z" fill="#f2f2f2"/>
      <path id="Контур_1073" data-name="Контур 1073" d="M115.035,119.107l.418-19.979h-1.482v3.722h-1.546V99.128h-1.483l.418,19.979h1.065v4.853a1.657,1.657,0,0,0,0,2.947v.4a1.657,1.657,0,0,0,0,2.947v.4a1.657,1.657,0,0,0,0,2.947v.4a1.657,1.657,0,0,0,0,2.947v.4a1.657,1.657,0,0,0,0,2.947v.4a1.657,1.657,0,0,0,0,2.947v.4a1.657,1.657,0,0,0,0,2.947v.79a6.978,6.978,0,0,0-.9,3.125c0,1.173,3.343,1.173,3.343,0a6.989,6.989,0,0,0-.9-3.125v-.79a1.658,1.658,0,0,0,0-2.947v-.4a1.658,1.658,0,0,0,0-2.947v-.4a1.658,1.658,0,0,0,0-2.947v-.4a1.658,1.658,0,0,0,0-2.947v-.4a1.658,1.658,0,0,0,0-2.947v-.4a1.658,1.658,0,0,0,0-2.947v-.4a1.658,1.658,0,0,0,0-2.947v-4.853Z" fill="none" stroke="#00bdff" stroke-miterlimit="10" stroke-width="0.5"/>
      <path id="Контур_1074" data-name="Контур 1074" d="M125.04,119.107l.418-19.979h-1.482v3.722H122.43V99.128h-1.483l.418,19.979h1.065v4.853a1.657,1.657,0,0,0,0,2.947v.4a1.657,1.657,0,0,0,0,2.947v.4a1.657,1.657,0,0,0,0,2.947v.4a1.657,1.657,0,0,0,0,2.947v.4a1.657,1.657,0,0,0,0,2.947v.4a1.657,1.657,0,0,0,0,2.947v.4a1.657,1.657,0,0,0,0,2.947v.79a6.978,6.978,0,0,0-.9,3.125c0,1.173,3.343,1.173,3.343,0a6.989,6.989,0,0,0-.9-3.125v-.79a1.658,1.658,0,0,0,0-2.947v-.4a1.658,1.658,0,0,0,0-2.947v-.4a1.658,1.658,0,0,0,0-2.947v-.4a1.658,1.658,0,0,0,0-2.947v-.4a1.658,1.658,0,0,0,0-2.947v-.4a1.658,1.658,0,0,0,0-2.947v-.4a1.658,1.658,0,0,0,0-2.947v-4.853Z" fill="#f2f2f2"/>
      <path id="Контур_1075" data-name="Контур 1075" d="M125.04,119.107l.418-19.979h-1.482v3.722H122.43V99.128h-1.483l.418,19.979h1.065v4.853a1.657,1.657,0,0,0,0,2.947v.4a1.657,1.657,0,0,0,0,2.947v.4a1.657,1.657,0,0,0,0,2.947v.4a1.657,1.657,0,0,0,0,2.947v.4a1.657,1.657,0,0,0,0,2.947v.4a1.657,1.657,0,0,0,0,2.947v.4a1.657,1.657,0,0,0,0,2.947v.79a6.978,6.978,0,0,0-.9,3.125c0,1.173,3.343,1.173,3.343,0a6.989,6.989,0,0,0-.9-3.125v-.79a1.658,1.658,0,0,0,0-2.947v-.4a1.658,1.658,0,0,0,0-2.947v-.4a1.658,1.658,0,0,0,0-2.947v-.4a1.658,1.658,0,0,0,0-2.947v-.4a1.658,1.658,0,0,0,0-2.947v-.4a1.658,1.658,0,0,0,0-2.947v-.4a1.658,1.658,0,0,0,0-2.947v-4.853Z" fill="none" stroke="#00bdff" stroke-miterlimit="10" stroke-width="0.5"/>
      <rect id="Прямоугольник_714" data-name="Прямоугольник 714" width="5.005" height="22.898" transform="translate(120.674 123.777)" fill="#f2f2f2"/>
      <rect id="Прямоугольник_715" data-name="Прямоугольник 715" width="5.005" height="22.898" transform="translate(120.674 123.777)" fill="none" stroke="#00bdff" stroke-miterlimit="10" stroke-width="0.5"/>
      <rect id="Прямоугольник_716" data-name="Прямоугольник 716" width="49.055" height="10.144" transform="translate(98.649 102.488)" fill="#f2f2f2"/>
      <rect id="Прямоугольник_717" data-name="Прямоугольник 717" width="49.055" height="10.144" transform="translate(98.649 102.488)" fill="none" stroke="#00bdff" stroke-miterlimit="10" stroke-width="0.5"/>
      <rect id="Прямоугольник_718" data-name="Прямоугольник 718" width="6.98" height="3.207" transform="translate(123.888 89.779)" fill="#f2f2f2"/>
      <rect id="Прямоугольник_719" data-name="Прямоугольник 719" width="6.98" height="3.207" transform="translate(123.888 89.779)" fill="none" stroke="#00bdff" stroke-miterlimit="10" stroke-width="0.5"/>
      <path id="Контур_1076" data-name="Контур 1076" d="M125.676,66.1a83.94,83.94,0,0,0-.972-9.616l-.48-19.193a1.159,1.159,0,0,0-2.318.014l-.287,19.831a83.131,83.131,0,0,0-.87,8.964V94.477h5.024Z" fill="#f2f2f2"/>
      <path id="Контур_1077" data-name="Контур 1077" d="M125.676,66.1a83.94,83.94,0,0,0-.972-9.616l-.48-19.193a1.159,1.159,0,0,0-2.318.014l-.287,19.831a83.131,83.131,0,0,0-.87,8.964V94.477h5.024Z" fill="none" stroke="#00bdff" stroke-miterlimit="10" stroke-width="0.5"/>
      <rect id="Прямоугольник_720" data-name="Прямоугольник 720" width="11.866" height="8.376" transform="translate(116.809 46.471) rotate(-0.109)" fill="#f2f2f2"/>
      <rect id="Прямоугольник_721" data-name="Прямоугольник 721" width="11.866" height="8.376" transform="translate(116.809 46.471) rotate(-0.109)" fill="none" stroke="#00bdff" stroke-miterlimit="10" stroke-width="0.5"/>
      <rect id="Прямоугольник_722" data-name="Прямоугольник 722" width="8.376" height="3.49" transform="translate(149.933 64.225) rotate(-0.109)" fill="#f2f2f2"/>
      <rect id="Прямоугольник_723" data-name="Прямоугольник 723" width="8.376" height="3.49" transform="translate(149.933 64.225) rotate(-0.109)" fill="none" stroke="#00bdff" stroke-miterlimit="10" stroke-width="0.5"/>
      <rect id="Прямоугольник_724" data-name="Прямоугольник 724" width="8.376" height="11.866" transform="translate(147.132 60.042) rotate(-0.109)" fill="#f2f2f2"/>
      <rect id="Прямоугольник_725" data-name="Прямоугольник 725" width="8.376" height="11.866" transform="translate(147.132 60.042) rotate(-0.109)" fill="none" stroke="#00bdff" stroke-miterlimit="10" stroke-width="0.5"/>
      <rect id="Прямоугольник_726" data-name="Прямоугольник 726" width="8.376" height="3.49" transform="translate(87.443 64.23) rotate(-0.109)" fill="#f2f2f2"/>
      <rect id="Прямоугольник_727" data-name="Прямоугольник 727" width="8.376" height="3.49" transform="translate(87.443 64.23) rotate(-0.109)" fill="none" stroke="#00bdff" stroke-miterlimit="10" stroke-width="0.5"/>
      <rect id="Прямоугольник_728" data-name="Прямоугольник 728" width="8.376" height="11.866" transform="translate(90.227 60.037) rotate(-0.109)" fill="#f2f2f2"/>
      <rect id="Прямоугольник_729" data-name="Прямоугольник 729" width="8.376" height="11.866" transform="translate(90.227 60.037) rotate(-0.109)" fill="none" stroke="#00bdff" stroke-miterlimit="10" stroke-width="0.5"/>
      <path id="Контур_1078" data-name="Контур 1078" d="M98.844,104.713H147.51A4.713,4.713,0,0,0,152.223,100V54.126a4.713,4.713,0,0,0-4.713-4.713H98.844a4.713,4.713,0,0,0-4.713,4.713V100a4.713,4.713,0,0,0,4.713,4.713" fill="#f2f2f2"/>
      <rect id="Прямоугольник_730" data-name="Прямоугольник 730" width="58.092" height="55.3" rx="4.713" transform="translate(94.131 49.413)" fill="none" stroke="#00bdff" stroke-miterlimit="10" stroke-width="0.5"/>
      <path id="Контур_1079" data-name="Контур 1079" d="M105.013,99.83H141.34a4.819,4.819,0,0,0,4.819-4.818v-35.9a4.819,4.819,0,0,0-4.819-4.818H105.013a4.818,4.818,0,0,0-4.818,4.818v35.9a4.818,4.818,0,0,0,4.818,4.818" fill="#f2f2f2"/>
      <path id="Прямоугольник_731" data-name="Прямоугольник 731" d="M4.818,0H41.145a4.819,4.819,0,0,1,4.819,4.819v35.9a4.818,4.818,0,0,1-4.818,4.818H4.818A4.818,4.818,0,0,1,0,40.717V4.818A4.818,4.818,0,0,1,4.818,0Z" transform="translate(100.195 54.295)" fill="none" stroke="#00bdff" stroke-miterlimit="10" stroke-width="0.5"/>
      <path id="Контур_1080" data-name="Контур 1080" d="M136.651,94.853H109.7a4.483,4.483,0,0,1-4.483-4.484V63.756a4.482,4.482,0,0,1,4.483-4.483h26.949a4.482,4.482,0,0,1,4.483,4.483V90.369a4.483,4.483,0,0,1-4.483,4.484" fill="#f2f2f2"/>
      <rect id="Прямоугольник_732" data-name="Прямоугольник 732" width="35.915" height="35.58" rx="4.483" transform="translate(105.219 59.273)" fill="none" stroke="#00bdff" stroke-miterlimit="10" stroke-width="0.5"/>
      <rect id="Прямоугольник_733" data-name="Прямоугольник 733" width="12.401" height="12.401" transform="translate(117.054 71.015)" fill="#f2f2f2"/>
      <rect id="Прямоугольник_734" data-name="Прямоугольник 734" width="12.401" height="12.401" transform="translate(117.054 71.015)" fill="none" stroke="#00bdff" stroke-miterlimit="10" stroke-width="0.5"/>
      <rect id="Прямоугольник_735" data-name="Прямоугольник 735" width="5.684" height="5.684" transform="translate(119.236 77.215) rotate(-45)" fill="#f2f2f2"/>
      <rect id="Прямоугольник_736" data-name="Прямоугольник 736" width="5.684" height="5.684" transform="translate(119.236 77.215) rotate(-45)" fill="none" stroke="#00bdff" stroke-miterlimit="10" stroke-width="0.5"/>
      <path id="Контур_1081" data-name="Контур 1081" d="M136.819,65.2a1.55,1.55,0,1,1-1.55-1.55,1.55,1.55,0,0,1,1.55,1.55" fill="#f2f2f2"/>
      <circle id="Эллипс_107" data-name="Эллипс 107" cx="1.55" cy="1.55" r="1.55" transform="translate(133.719 63.652)" fill="none" stroke="#00bdff" stroke-miterlimit="10" stroke-width="0.5"/>
      <line id="Линия_91" data-name="Линия 91" y1="4.724" x2="4.726" transform="translate(129.456 66.291)" fill="#f2f2f2"/>
      <line id="Линия_92" data-name="Линия 92" y1="4.724" x2="4.726" transform="translate(129.456 66.291)" fill="none" stroke="#00bdff" stroke-miterlimit="10" stroke-width="0.5"/>
      <path id="Контур_1082" data-name="Контур 1082" d="M109.82,65.2a1.55,1.55,0,1,0,1.55-1.55,1.55,1.55,0,0,0-1.55,1.55" fill="#f2f2f2"/>
      <circle id="Эллипс_108" data-name="Эллипс 108" cx="1.55" cy="1.55" r="1.55" transform="translate(109.82 63.652)" fill="none" stroke="#00bdff" stroke-miterlimit="10" stroke-width="0.5"/>
      <line id="Линия_93" data-name="Линия 93" x1="4.726" y1="4.724" transform="translate(112.457 66.291)" fill="#f2f2f2"/>
      <line id="Линия_94" data-name="Линия 94" x1="4.726" y1="4.724" transform="translate(112.457 66.291)" fill="none" stroke="#00bdff" stroke-miterlimit="10" stroke-width="0.5"/>
      <path id="Контур_1083" data-name="Контур 1083" d="M136.819,89.229a1.55,1.55,0,1,0-1.55,1.55,1.55,1.55,0,0,0,1.55-1.55" fill="#f2f2f2"/>
      <circle id="Эллипс_109" data-name="Эллипс 109" cx="1.55" cy="1.55" r="1.55" transform="translate(133.719 87.679)" fill="none" stroke="#00bdff" stroke-miterlimit="10" stroke-width="0.5"/>
      <line id="Линия_95" data-name="Линия 95" x2="4.726" y2="4.724" transform="translate(129.456 83.416)" fill="#f2f2f2"/>
      <line id="Линия_96" data-name="Линия 96" x2="4.726" y2="4.724" transform="translate(129.456 83.416)" fill="none" stroke="#00bdff" stroke-miterlimit="10" stroke-width="0.5"/>
      <path id="Контур_1084" data-name="Контур 1084" d="M109.82,89.229a1.55,1.55,0,1,1,1.55,1.55,1.55,1.55,0,0,1-1.55-1.55" fill="#f2f2f2"/>
      <circle id="Эллипс_110" data-name="Эллипс 110" cx="1.55" cy="1.55" r="1.55" transform="translate(109.82 87.679)" fill="none" stroke="#00bdff" stroke-miterlimit="10" stroke-width="0.5"/>
      <line id="Линия_97" data-name="Линия 97" x1="4.726" y2="4.724" transform="translate(112.457 83.416)" fill="#f2f2f2"/>
      <line id="Линия_98" data-name="Линия 98" x1="4.726" y2="4.724" transform="translate(112.457 83.416)" fill="none" stroke="#00bdff" stroke-miterlimit="10" stroke-width="0.5"/>
      <path id="Контур_1085" data-name="Контур 1085" d="M120.664,67.575a3.7,3.7,0,0,1,5.724-.13" fill="#f2f2f2"/>
      <path id="Контур_1086" data-name="Контур 1086" d="M120.664,67.575a3.7,3.7,0,0,1,5.724-.13" fill="none" stroke="#00bdff" stroke-miterlimit="10" stroke-width="0.5"/>
      <path id="Контур_1087" data-name="Контур 1087" d="M119.357,66.39a5.4,5.4,0,0,1,8.338-.189" fill="#f2f2f2"/>
      <path id="Контур_1088" data-name="Контур 1088" d="M119.357,66.39a5.4,5.4,0,0,1,8.338-.189" fill="none" stroke="#00bdff" stroke-miterlimit="10" stroke-width="0.5"/>
      <path id="Контур_1089" data-name="Контур 1089" d="M113.794,80.169a3.7,3.7,0,0,1-.13-5.724" fill="#f2f2f2"/>
      <path id="Контур_1090" data-name="Контур 1090" d="M113.794,80.169a3.7,3.7,0,0,1-.13-5.724" fill="none" stroke="#00bdff" stroke-miterlimit="10" stroke-width="0.5"/>
      <path id="Контур_1091" data-name="Контур 1091" d="M112.609,81.476a5.4,5.4,0,0,1-.189-8.338" fill="#f2f2f2"/>
      <path id="Контур_1092" data-name="Контур 1092" d="M112.609,81.476a5.4,5.4,0,0,1-.189-8.338" fill="none" stroke="#00bdff" stroke-miterlimit="10" stroke-width="0.5"/>
      <path id="Контур_1093" data-name="Контур 1093" d="M126.388,87.039a3.7,3.7,0,0,1-5.724.13" fill="#f2f2f2"/>
      <path id="Контур_1094" data-name="Контур 1094" d="M126.388,87.039a3.7,3.7,0,0,1-5.724.13" fill="none" stroke="#00bdff" stroke-miterlimit="10" stroke-width="0.5"/>
      <path id="Контур_1095" data-name="Контур 1095" d="M127.695,88.224a5.4,5.4,0,0,1-8.338.189" fill="#f2f2f2"/>
      <path id="Контур_1096" data-name="Контур 1096" d="M127.695,88.224a5.4,5.4,0,0,1-8.338.189" fill="none" stroke="#00bdff" stroke-miterlimit="10" stroke-width="0.5"/>
      <path id="Контур_1097" data-name="Контур 1097" d="M133.258,74.445a3.7,3.7,0,0,1,.13,5.724" fill="#f2f2f2"/>
      <path id="Контур_1098" data-name="Контур 1098" d="M133.258,74.445a3.7,3.7,0,0,1,.13,5.724" fill="none" stroke="#00bdff" stroke-miterlimit="10" stroke-width="0.5"/>
      <path id="Контур_1099" data-name="Контур 1099" d="M134.443,73.138a5.4,5.4,0,0,1,.189,8.338" fill="#f2f2f2"/>
      <path id="Контур_1100" data-name="Контур 1100" d="M134.443,73.138a5.4,5.4,0,0,1,.189,8.338" fill="none" stroke="#00bdff" stroke-miterlimit="10" stroke-width="0.5"/>
    </g>
  </g>
</svg>
